<svg viewBox="0 0 35.4 511.23" xmlns="http://www.w3.org/2000/svg" xmlns:xlink="http://www.w3.org/1999/xlink" overflow="hidden"><defs><linearGradient x1="437.66" y1="-1011.02" x2="437.66" y2="-973.92" gradientUnits="userSpaceOnUse" id="linear-gradient" gradientTransform="matrix(6.12323e-17 -1 1 6.12323e-17 47.83 483.45)"><stop offset="0" stop-color="#FFFFFF"/><stop offset="0.17" stop-color="#F9FBFC"/><stop offset="0.41" stop-color="#E7EFF2"/><stop offset="0.69" stop-color="#CBDBE1"/><stop offset="0.99" stop-color="#A3C0CB"/><stop offset="1" stop-color="#A1BFCA"/></linearGradient><linearGradient x1="272.31" y1="-1005.47" x2="272.31" y2="-979.78" gradientUnits="userSpaceOnUse" id="linear-gradient-2" gradientTransform="matrix(6.12323e-17 -1 1 6.12323e-17 47.83 483.45)"><stop offset="0" stop-color="#F37F7B"/><stop offset="0.5" stop-color="#ED3D57"/><stop offset="1" stop-color="#DD1E47"/></linearGradient></defs><g><g id="OBJECTS"><path d="M-954.71-209.83-935.65-209.83C-931.13-209.83-927.48-207.93-927.48-205.57L-927.48 301.43-962.88 301.43-962.88-205.57C-962.88-207.43-960.59-209-957.43-209.57-956.534-209.746-955.623-209.833-954.71-209.83Z" fill="url(#linear-gradient)" transform="translate(962.88 209.83)"/><path d="M-957.43-209.57-957.43 301.43-962.88 301.43-962.88-205.57C-962.88-207.43-960.59-209-957.43-209.57Z" fill="#5A8997" opacity="0.5" transform="translate(962.88 209.83)"/><path d="M-957.42 122.2-957.42 301.4-932.92 301.4-932.92 122.2C-932.92 121.47-934.14 120.87-935.64 120.87L-954.7 120.87C-956.2 120.87-957.42 121.47-957.42 122.2Z" fill="url(#linear-gradient-2)" transform="translate(962.88 209.83)"/></g></g></svg>