<svg viewBox="0 0 158.48 30.62" xmlns="http://www.w3.org/2000/svg" xmlns:xlink="http://www.w3.org/1999/xlink" id="OBJECTS" overflow="hidden"><defs><linearGradient x1="-1207.71" y1="-138.05" x2="-1207.71" y2="-105.96" gradientUnits="userSpaceOnUse" id="linear-gradient"><stop offset="0" stop-color="#FFE7A3"/><stop offset="0.5" stop-color="#FFCA05"/><stop offset="1" stop-color="#FAAC18"/></linearGradient><linearGradient x1="-1265.33" y1="-138.05" x2="-1265.33" y2="-105.96" gradientUnits="userSpaceOnUse" id="linear-gradient-2"><stop offset="0" stop-color="#FFFFFF"/><stop offset="0.17" stop-color="#F9FBFC"/><stop offset="0.41" stop-color="#E7EFF2"/><stop offset="0.69" stop-color="#CBDBE1"/><stop offset="0.99" stop-color="#A3C0CB"/><stop offset="1" stop-color="#A1BFCA"/></linearGradient></defs><path d="M-1128.64-121.81-1136.19-107.81C-1136.4-107.398-1136.82-107.136-1137.28-107.13L-1278.15-107.13C-1278.61-107.138-1279.03-107.4-1279.24-107.81L-1286.78-121.81C-1287.01-122.224-1287.01-122.726-1286.78-123.14L-1279.24-137.14C-1279.02-137.543-1278.61-137.796-1278.15-137.8L-1137.28-137.8C-1136.82-137.798-1136.4-137.544-1136.19-137.14L-1128.64-123.14C-1128.41-122.726-1128.41-122.224-1128.64-121.81Z" fill="url(#linear-gradient)" transform="translate(1286.95 137.78)"/><path d="M-1278.15-137.78-1243.71-137.78-1243.71-107.17-1278.15-107.17C-1278.61-107.178-1279.03-107.44-1279.24-107.85L-1286.78-121.85C-1287.01-122.264-1287.01-122.766-1286.78-123.18L-1279.24-137.18C-1279.01-137.559-1278.59-137.788-1278.15-137.78Z" fill="url(#linear-gradient-2)" transform="translate(1286.95 137.78)"/><path d="M-1269.66-125.34C-1268.99-124.691-1268.62-123.785-1268.66-122.85-1268.66-122.191-1268.83-121.543-1269.15-120.97-1269.51-120.371-1270.04-119.889-1270.67-119.58-1271.46-119.2-1272.33-119.018-1273.21-119.05-1273.92-119.051-1274.62-119.131-1275.31-119.29-1275.95-119.438-1276.56-119.684-1277.13-120.02L-1276-122.71C-1275.59-122.457-1275.14-122.258-1274.68-122.12-1274.24-121.991-1273.79-121.924-1273.34-121.92-1273.01-121.908-1272.68-121.988-1272.39-122.15-1272.16-122.273-1272.02-122.512-1272.03-122.77-1272.02-123.011-1272.15-123.236-1272.36-123.35-1272.73-123.507-1273.14-123.572-1273.54-123.54L-1276.42-123.54-1275.93-130.11-1269.32-130.11-1269.32-127.36-1273.17-127.36-1273.24-126.29-1272.73-126.29C-1271.62-126.383-1270.52-126.042-1269.66-125.34Z" fill="#5A8997" transform="translate(1286.95 137.78)"/><path d="M-1265.84-119.72C-1266.55-120.216-1267.11-120.912-1267.43-121.72-1267.84-122.667-1268.03-123.69-1268.01-124.72-1268.03-125.75-1267.83-126.773-1267.43-127.72-1267.11-128.528-1266.55-129.224-1265.84-129.72-1265.14-130.168-1264.33-130.401-1263.5-130.39-1262.67-130.403-1261.86-130.17-1261.17-129.72-1260.46-129.222-1259.9-128.527-1259.57-127.72-1259.17-126.771-1258.98-125.749-1259-124.72-1258.98-123.691-1259.17-122.669-1259.57-121.72-1259.9-120.913-1260.46-120.218-1261.17-119.72-1261.86-119.266-1262.67-119.032-1263.5-119.05-1264.33-119.034-1265.14-119.267-1265.84-119.72ZM-1262.37-124.72C-1262.37-126.55-1262.74-127.46-1263.5-127.46-1264.26-127.46-1264.64-126.55-1264.64-124.72-1264.64-122.89-1264.26-121.99-1263.5-121.99-1262.74-121.99-1262.37-122.88-1262.37-124.7Z" fill="#5A8997" transform="translate(1286.95 137.78)"/><path d="M-1257.62-125C-1258.14-125.615-1258.4-126.406-1258.36-127.21-1258.38-127.769-1258.26-128.325-1258.02-128.83-1257.79-129.256-1257.45-129.605-1257.02-129.83-1256.61-130.069-1256.14-130.19-1255.67-130.18-1255.19-130.191-1254.72-130.07-1254.31-129.83-1253.9-129.594-1253.57-129.247-1253.36-128.83-1253.12-128.323-1253.01-127.769-1253.02-127.21-1252.98-126.406-1253.24-125.615-1253.76-125-1254.25-124.469-1254.95-124.177-1255.67-124.2-1256.41-124.163-1257.12-124.457-1257.62-125ZM-1249.88-130.07-1247.47-130.07-1254.27-119.25-1256.67-119.25ZM-1255.27-126.19C-1255.13-126.504-1255.07-126.847-1255.09-127.19-1255.07-127.533-1255.13-127.876-1255.27-128.19-1255.35-128.373-1255.52-128.496-1255.72-128.51-1255.92-128.499-1256.09-128.374-1256.16-128.19-1256.3-127.876-1256.36-127.533-1256.34-127.19-1256.36-126.847-1256.3-126.504-1256.16-126.19-1256.09-126.004-1255.92-125.878-1255.72-125.87-1255.51-125.886-1255.33-126.029-1255.27-126.23ZM-1250.33-119.9C-1250.85-120.516-1251.11-121.306-1251.07-122.11-1251.09-122.672-1250.97-123.231-1250.73-123.74-1250.5-124.165-1250.16-124.513-1249.73-124.74-1249.32-124.982-1248.85-125.107-1248.38-125.1-1247.9-125.108-1247.43-124.984-1247.02-124.74-1246.6-124.51-1246.25-124.163-1246.02-123.74-1245.79-123.229-1245.67-122.672-1245.68-122.11-1245.64-121.306-1245.9-120.516-1246.42-119.9-1246.91-119.371-1247.61-119.079-1248.33-119.1-1249.09-119.058-1249.83-119.368-1250.33-119.94ZM-1247.98-121.09C-1247.84-121.404-1247.78-121.747-1247.8-122.09-1247.78-122.433-1247.84-122.775-1247.98-123.09-1248.06-123.273-1248.23-123.396-1248.43-123.41-1248.63-123.399-1248.8-123.274-1248.87-123.09-1249.01-122.775-1249.07-122.433-1249.05-122.09-1249.07-121.747-1249.01-121.404-1248.87-121.09-1248.8-120.904-1248.63-120.778-1248.43-120.77-1248.23-120.793-1248.06-120.935-1248-121.13Z" fill="#5A8997" transform="translate(1286.95 137.78)"/><path d="M-1210.13-126-1210.28-126C-1210.6-126.012-1210.91-125.867-1211.11-125.61-1211.33-125.368-1211.45-125.049-1211.45-124.72L-1211.45-119.62C-1211.45-119.526-1211.5-119.439-1211.58-119.39-1211.64-119.372-1211.7-119.372-1211.76-119.39L-1212.41-119.39C-1212.54-119.384-1212.66-119.466-1212.7-119.59-1212.7-119.62-1212.7-119.65-1212.7-119.68L-1212.7-124.61C-1212.74-125.314-1212.51-126.006-1212.05-126.54-1211.56-127.056-1210.87-127.328-1210.16-127.28L-1207.16-127.28C-1206.79-127.281-1206.44-127.15-1206.16-126.91-1206.1-126.91-1206.03-126.78-1205.95-126.7-1205.67-126.345-1205.51-125.905-1205.51-125.45L-1205.51-123.99C-1205.51-123.558-1205.65-123.139-1205.92-122.8-1206-122.703-1206.09-122.613-1206.18-122.53-1206.46-122.293-1206.81-122.165-1207.18-122.17L-1208.53-122.17C-1208.9-122.169-1209.25-122.305-1209.53-122.55L-1209.76-122.78C-1209.84-122.897-1209.92-123.021-1209.98-123.15-1210.11-123.427-1210.18-123.732-1210.17-124.04ZM-1208.13-125.61C-1208.54-125.616-1208.93-125.453-1209.21-125.16-1209.5-124.874-1209.66-124.485-1209.65-124.08-1209.65-123.675-1209.5-123.286-1209.21-123-1208.92-122.714-1208.53-122.555-1208.13-122.56-1207.73-122.555-1207.34-122.714-1207.05-123-1206.76-123.282-1206.59-123.673-1206.6-124.08-1206.59-124.487-1206.76-124.878-1207.05-125.16-1207.35-125.459-1207.76-125.615-1208.18-125.59Z" fill="#FFFFFF" transform="translate(1286.95 137.78)"/><path d="M-1199.93-122.37C-1199.93-121.532-1200.29-120.736-1200.93-120.19-1201.54-119.606-1202.35-119.283-1203.19-119.29L-1204.13-119.29C-1204.26-119.28-1204.38-119.363-1204.42-119.49-1204.42-119.523-1204.42-119.557-1204.42-119.59L-1204.42-120.28C-1204.42-120.354-1204.39-120.426-1204.34-120.48-1204.3-120.528-1204.23-120.556-1204.17-120.56L-1203.38-120.56C-1202.83-120.542-1202.29-120.731-1201.87-121.09-1201.54-121.331-1201.32-121.689-1201.24-122.09L-1202.95-122.09C-1203.31-122.088-1203.66-122.204-1203.95-122.42L-1204.16-122.61C-1204.44-122.918-1204.6-123.321-1204.6-123.74L-1204.6-125.06C-1204.6-125.457-1204.46-125.841-1204.2-126.14-1204.12-126.23-1204.03-126.311-1203.93-126.38-1203.64-126.6-1203.29-126.717-1202.93-126.71L-1201.58-126.71C-1201.22-126.712-1200.86-126.588-1200.58-126.36-1200.5-126.298-1200.42-126.231-1200.35-126.16-1200.26-126.051-1200.19-125.934-1200.12-125.81-1199.99-125.563-1199.93-125.288-1199.94-125.01ZM-1202.64-125.59C-1203.05-125.596-1203.44-125.433-1203.72-125.14-1204.01-124.857-1204.17-124.465-1204.16-124.06-1204.17-123.655-1204.01-123.263-1203.72-122.98-1203.43-122.694-1203.04-122.535-1202.64-122.54-1202.24-122.535-1201.85-122.694-1201.56-122.98-1201.27-123.266-1201.11-123.655-1201.12-124.06-1201.12-124.465-1201.27-124.854-1201.56-125.14-1201.84-125.433-1202.23-125.596-1202.64-125.59Z" fill="#FFFFFF" transform="translate(1286.95 137.78)"/><path d="M-1196.88-128.28-1193.99-125.28C-1193.62-124.905-1193.41-124.398-1193.41-123.87-1193.39-123.384-1193.59-122.914-1193.96-122.6-1194.34-122.295-1194.81-122.139-1195.3-122.16L-1198.45-122.16C-1198.58-122.146-1198.7-122.226-1198.73-122.35-1198.73-122.383-1198.73-122.417-1198.73-122.45L-1198.73-123.14C-1198.73-123.215-1198.7-123.287-1198.65-123.34-1198.6-123.397-1198.53-123.43-1198.45-123.43L-1195.35-123.43C-1194.88-123.43-1194.65-123.59-1194.65-123.92-1194.65-124.097-1194.72-124.266-1194.85-124.39L-1197.74-127.46C-1197.81-127.561-1197.81-127.699-1197.74-127.8L-1197.68-127.87-1197.2-128.33C-1197.15-128.379-1197.08-128.408-1197.01-128.41-1196.96-128.379-1196.91-128.334-1196.88-128.28Z" fill="#FFFFFF" transform="translate(1286.95 137.78)"/><path d="M-1183.3-122.11C-1183.63-122.098-1183.95-122.174-1184.24-122.33-1184.71-122.694-1185.15-123.085-1185.57-123.5-1185.95-122.546-1186.89-121.932-1187.92-121.96-1188.57-121.94-1189.21-122.189-1189.67-122.65-1190.13-123.114-1190.38-123.747-1190.36-124.4-1190.29-125.283-1189.89-126.107-1189.23-126.7L-1189.08-126.86-1189.08-126.86-1188.61-127.37-1188.5-127.45-1188.33-127.45C-1188.29-127.457-1188.25-127.457-1188.21-127.45L-1187.69-126.95-1184.62-124.25C-1184.42-124.027-1184.2-123.823-1183.96-123.64-1183.78-123.532-1183.59-123.464-1183.38-123.44ZM-1188.61-125.71C-1188.99-125.715-1189.35-125.563-1189.61-125.29-1189.88-125.028-1190.03-124.666-1190.02-124.29-1190.03-123.914-1189.88-123.552-1189.61-123.29-1189.35-123.017-1188.99-122.865-1188.61-122.87-1188.23-122.864-1187.87-123.016-1187.61-123.29-1187.34-123.552-1187.19-123.914-1187.2-124.29-1187.19-124.666-1187.34-125.028-1187.61-125.29-1187.87-125.564-1188.23-125.716-1188.61-125.71Z" fill="#FFFFFF" transform="translate(1286.95 137.78)"/><path d="M-1180.86-130-1180.86-130-1180.86-124.37C-1180.86-123.9-1180.72-123.61-1180.45-123.5-1180.22-123.432-1179.98-123.395-1179.74-123.39L-1179.74-122.11-1180.13-122.11C-1180.63-122.11-1181.11-122.283-1181.49-122.6-1181.73-122.386-1182.01-122.232-1182.32-122.15-1182.72-122.125-1183.11-122.125-1183.51-122.15L-1183.51-123.43-1183.09-123.43C-1182.68-123.43-1182.41-123.52-1182.28-123.75-1182.16-124.037-1182.11-124.35-1182.14-124.66L-1182.14-130-1182.14-130-1182.14-130C-1182.15-130.076-1182.12-130.15-1182.06-130.2-1182.01-130.256-1181.94-130.289-1181.87-130.29L-1181.15-130.29C-1181.06-130.288-1180.98-130.239-1180.93-130.16-1180.9-130.117-1180.88-130.064-1180.88-130.01Z" fill="#FFFFFF" transform="translate(1286.95 137.78)"/><path d="M-1172.9-124.58-1175.83-122.91C-1176.5-122.53-1177.24-122.289-1178-122.2-1178.76-122.129-1179.53-122.099-1180.29-122.11L-1180.29-123.39-1179.29-123.39C-1178.39-123.381-1177.5-123.566-1176.68-123.93-1176.54-123.99-1175.75-124.43-1174.31-125.23-1174.48-125.574-1174.8-125.816-1175.18-125.88-1175.3-125.88-1176.41-125.91-1178.51-125.97L-1178.69-127.22-1175.53-127.22C-1174.26-127.399-1173.08-126.511-1172.9-125.236-1172.87-125.019-1172.87-124.798-1172.9-124.58Z" fill="#FFFFFF" transform="translate(1286.95 137.78)"/><path d="M-1169.81-123.56C-1169.51-123.44-1169.2-123.383-1168.88-123.39L-1168.88-122.11C-1169.22-122.106-1169.55-122.227-1169.81-122.45L-1169.81-122-1169.81-122C-1169.89-121.317-1170.2-120.681-1170.68-120.19-1171.28-119.605-1172.09-119.281-1172.93-119.29L-1173.17-119.29C-1173.3-119.285-1173.41-119.367-1173.45-119.49-1173.45-119.523-1173.45-119.557-1173.45-119.59L-1173.45-120.28C-1173.45-120.354-1173.42-120.426-1173.37-120.48-1173.32-120.527-1173.26-120.559-1173.19-120.57L-1173.12-120.57C-1172.57-120.552-1172.03-120.741-1171.61-121.1-1171.31-121.356-1171.11-121.711-1171.05-122.1L-1171.05-122.1-1171.05-126.1C-1171.05-126.175-1171.02-126.247-1170.97-126.3-1170.92-126.357-1170.85-126.39-1170.77-126.39L-1170.03-126.39C-1169.94-126.386-1169.86-126.337-1169.81-126.26-1169.8-126.211-1169.8-126.159-1169.81-126.11Z" fill="#FFFFFF" transform="translate(1286.95 137.78)"/><path d="M-1164.25-122.71C-1164.7-122.288-1165.3-122.071-1165.91-122.11-1166.41-122.1-1166.91-122.202-1167.36-122.41-1167.87-122.21-1168.41-122.108-1168.96-122.11L-1168.96-123.39C-1168.72-123.372-1168.49-123.436-1168.29-123.57L-1168.29-125C-1168.3-125.278-1168.24-125.553-1168.11-125.8-1168.05-125.924-1167.97-126.038-1167.88-126.14-1167.81-126.216-1167.73-126.287-1167.65-126.35-1167.37-126.577-1167.01-126.7-1166.65-126.7L-1165.31-126.7C-1164.95-126.707-1164.6-126.59-1164.31-126.37-1164.21-126.3-1164.13-126.219-1164.05-126.13-1163.79-125.832-1163.64-125.448-1163.64-125.05L-1163.64-123.73C-1163.72-123.328-1163.93-122.967-1164.25-122.71ZM-1165.97-125.59C-1166.38-125.6-1166.77-125.436-1167.05-125.14-1167.34-124.858-1167.51-124.467-1167.5-124.06-1167.49-123.653-1167.31-123.269-1167-123-1166.72-122.711-1166.33-122.551-1165.92-122.56-1165.52-122.553-1165.13-122.712-1164.85-123-1164.56-123.282-1164.39-123.673-1164.4-124.08-1164.39-124.487-1164.56-124.878-1164.85-125.16-1165.15-125.468-1165.57-125.625-1166-125.59Z" fill="#FFFFFF" transform="translate(1286.95 137.78)"/></svg>