<svg viewBox="0 0 109.12 21.46" xmlns="http://www.w3.org/2000/svg" xmlns:xlink="http://www.w3.org/1999/xlink" id="OBJECTS" overflow="hidden"><defs><linearGradient x1="-122.32" y1="234.74" x2="-122.32" y2="257.23" gradientUnits="userSpaceOnUse" id="linear-gradient"><stop offset="0" stop-color="#F37F7B"/><stop offset="0.5" stop-color="#ED3D57"/><stop offset="1" stop-color="#DD1E47"/></linearGradient><linearGradient x1="-162" y1="234.74" x2="-162" y2="257.23" gradientUnits="userSpaceOnUse" id="linear-gradient-2"><stop offset="0" stop-color="#FFFFFF"/><stop offset="0.17" stop-color="#F9FBFC"/><stop offset="0.41" stop-color="#E7EFF2"/><stop offset="0.69" stop-color="#CBDBE1"/><stop offset="0.99" stop-color="#A3C0CB"/><stop offset="1" stop-color="#A1BFCA"/></linearGradient></defs><path d="M-67.88 246.12-73.08 255.92C-73.2267 256.199-73.5146 256.376-73.83 256.38L-170.83 256.38C-171.145 256.374-171.432 256.198-171.58 255.92L-176.78 246.12C-176.933 245.829-176.933 245.481-176.78 245.19L-171.58 235.39C-171.432 235.112-171.145 234.936-170.83 234.93L-73.83 234.93C-73.5146 234.934-73.2267 235.111-73.08 235.39L-67.88 245.19C-67.7271 245.481-67.7271 245.829-67.88 246.12Z" fill="url(#linear-gradient)" transform="translate(176.88 -234.93)"/><path d="M-147.11 234.93-147.11 256.38-170.82 256.38C-171.135 256.374-171.422 256.198-171.57 255.92L-176.77 246.12C-176.923 245.829-176.923 245.481-176.77 245.19L-171.57 235.39C-171.422 235.112-171.135 234.936-170.82 234.93Z" fill="url(#linear-gradient-2)" transform="translate(176.88 -234.93)"/><path d="M-164.55 245.67-164.55 247.61-170 247.61-170 246.07-167.53 243.59C-167.357 243.428-167.212 243.239-167.1 243.03-167.032 242.89-166.994 242.736-166.99 242.58-166.981 242.419-167.043 242.261-167.16 242.15-167.3 242.034-167.479 241.976-167.66 241.99-167.867 241.988-168.07 242.051-168.24 242.17-168.426 242.297-168.571 242.473-168.66 242.68L-170.4 241.74C-170.149 241.219-169.753 240.781-169.26 240.48-168.709 240.158-168.078 239.999-167.44 240.02-166.948 240.011-166.46 240.11-166.01 240.31-165.607 240.48-165.26 240.761-165.01 241.12-164.777 241.484-164.655 241.908-164.66 242.34-164.656 242.736-164.738 243.128-164.9 243.49-165.136 243.948-165.45 244.361-165.83 244.71L-166.83 245.71Z" fill="#5A8997" transform="translate(176.88 -234.93)"/><path d="M-159.18 243.46C-158.722 243.908-158.475 244.53-158.5 245.17-158.494 245.623-158.611 246.069-158.84 246.46-159.074 246.867-159.422 247.197-159.84 247.41-160.381 247.674-160.978 247.801-161.58 247.78-162.065 247.778-162.548 247.721-163.02 247.61-163.462 247.515-163.885 247.346-164.27 247.11L-163.49 245.27C-163.21 245.443-162.907 245.578-162.59 245.67-162.291 245.76-161.982 245.807-161.67 245.81-161.442 245.822-161.216 245.766-161.02 245.65-160.863 245.564-160.767 245.399-160.77 245.22-160.766 245.057-160.856 244.906-161 244.83-161.256 244.722-161.533 244.677-161.81 244.7L-163.81 244.7-163.46 240.19-158.93 240.19-158.93 242.08-161.57 242.08-161.57 242.81-161.22 242.81C-160.483 242.768-159.757 243-159.18 243.46Z" fill="#5A8997" transform="translate(176.88 -234.93)"/><path d="M-157.76 243.67C-158.118 243.247-158.3 242.703-158.27 242.15-158.278 241.75-158.185 241.355-158 241-157.862 240.705-157.639 240.458-157.36 240.29-157.079 240.121-156.757 240.035-156.43 240.04-156.099 240.033-155.774 240.12-155.49 240.29-155.211 240.458-154.988 240.705-154.85 241-154.682 241.345-154.6 241.726-154.61 242.11-154.58 242.663-154.762 243.207-155.12 243.63-155.457 243.994-155.934 244.194-156.43 244.18-156.926 244.212-157.412 244.025-157.76 243.67ZM-152.45 240.19-150.8 240.19-155.46 247.61-157.11 247.61ZM-156.15 242.86C-156.055 242.636-156.014 242.393-156.03 242.15-156.014 241.91-156.055 241.67-156.15 241.45-156.199 241.32-156.321 241.233-156.46 241.23-156.595 241.237-156.713 241.324-156.76 241.45-156.855 241.67-156.896 241.91-156.88 242.15-156.896 242.393-156.855 242.636-156.76 242.86-156.708 242.981-156.592 243.062-156.46 243.07-156.325 243.066-156.204 242.984-156.15 242.86ZM-152.76 247.16C-153.12 246.742-153.303 246.201-153.27 245.65-153.28 245.266-153.198 244.885-153.03 244.54-152.895 244.243-152.671 243.995-152.39 243.83-152.106 243.66-151.781 243.573-151.45 243.58-151.123 243.575-150.801 243.661-150.52 243.83-150.239 243.995-150.015 244.243-149.88 244.54-149.712 244.885-149.63 245.266-149.64 245.65-149.607 246.201-149.79 246.742-150.15 247.16-150.48 247.528-150.956 247.733-151.45 247.72-151.948 247.736-152.427 247.531-152.76 247.16ZM-151.15 246.35C-151.055 246.13-151.014 245.89-151.03 245.65-151.014 245.407-151.055 245.164-151.15 244.94-151.202 244.819-151.318 244.738-151.45 244.73-151.585 244.734-151.706 244.816-151.76 244.94-151.855 245.164-151.896 245.407-151.88 245.65-151.896 245.89-151.855 246.13-151.76 246.35-151.711 246.48-151.589 246.567-151.45 246.57-151.315 246.563-151.197 246.476-151.15 246.35Z" fill="#5A8997" transform="translate(176.88 -234.93)"/><path d="M-121 246.6C-120.986 247.043-121.165 247.469-121.49 247.77-121.807 248.08-122.236 248.25-122.68 248.24L-124.24 248.24C-124.687 248.251-125.12 248.082-125.44 247.77-125.761 247.466-125.938 247.042-125.93 246.6L-125.93 245.19C-125.942 245.154-125.942 245.116-125.93 245.08-125.895 245.031-125.84 245.002-125.78 245L-125.27 245C-125.22 245.001-125.173 245.023-125.14 245.06-125.101 245.091-125.078 245.14-125.08 245.19L-125.08 246.56C-125.101 246.893-124.883 247.195-124.56 247.28-124.449 247.31-124.335 247.33-124.22 247.34L-122.78 247.34C-122.668 247.33-122.558 247.31-122.45 247.28-122.125 247.195-121.904 246.895-121.92 246.56L-121.92 241C-121.941 240.956-121.941 240.904-121.92 240.86-121.885 240.82-121.833 240.798-121.78 240.8L-121.28 240.8C-121.217 240.798-121.157 240.828-121.12 240.88-121.111 240.916-121.111 240.954-121.12 240.99Z" fill="#FFFFFF" transform="translate(176.88 -234.93)"/><path d="M-117 246.18C-116.999 246.748-117.238 247.29-117.66 247.67-118.076 248.071-118.632 248.294-119.21 248.29L-119.86 248.29C-119.948 248.293-120.027 248.235-120.05 248.15-120.055 248.13-120.055 248.11-120.05 248.09L-120.05 247.62C-120.067 247.575-120.067 247.525-120.05 247.48-120.02 247.444-119.977 247.423-119.93 247.42L-119.39 247.42C-119.024 247.423-118.67 247.296-118.39 247.06-118.161 246.896-118.007 246.648-117.96 246.37L-119.13 246.37C-119.372 246.366-119.606 246.285-119.8 246.14L-119.94 246.01C-120.134 245.8-120.241 245.525-120.24 245.24L-120.24 244.33C-120.242 244.059-120.146 243.796-119.97 243.59L-119.78 243.42C-119.594 243.277-119.365 243.199-119.13 243.2L-118.2 243.2C-117.953 243.202-117.714 243.287-117.52 243.44-117.461 243.479-117.407 243.527-117.36 243.58-117.298 243.648-117.247 243.726-117.21 243.81-117.118 243.978-117.073 244.168-117.08 244.36ZM-118.86 243.97C-119.139 243.966-119.407 244.078-119.6 244.28-119.798 244.474-119.907 244.742-119.9 245.02-119.907 245.298-119.798 245.566-119.6 245.76-119.406 245.958-119.138 246.067-118.86 246.06-118.582 246.067-118.314 245.958-118.12 245.76-117.918 245.567-117.806 245.299-117.81 245.02-117.806 244.741-117.918 244.473-118.12 244.28-118.325 244.081-118.605 243.979-118.89 244Z" fill="#FFFFFF" transform="translate(176.88 -234.93)"/><path d="M-115.53 246.18C-115.532 246.242-115.566 246.299-115.62 246.33-115.659 246.342-115.701 246.342-115.74 246.33L-116.19 246.33C-116.282 246.338-116.366 246.279-116.39 246.19-116.395 246.17-116.395 246.15-116.39 246.13L-116.39 240.91C-116.389 240.859-116.371 240.81-116.34 240.77-116.302 240.735-116.252 240.717-116.2 240.72L-115.71 240.72C-115.646 240.714-115.584 240.745-115.55 240.8-115.54 240.836-115.54 240.874-115.55 240.91Z" fill="#FFFFFF" transform="translate(176.88 -234.93)"/><path d="M-108.55 246.36C-108.773 246.368-108.994 246.316-109.19 246.21-109.514 245.96-109.821 245.69-110.11 245.4-110.368 246.059-111.013 246.483-111.72 246.46-112.169 246.472-112.603 246.299-112.92 245.98-113.235 245.662-113.405 245.228-113.39 244.78-113.343 244.178-113.067 243.616-112.62 243.21L-112.51 243.1-112.51 243.1-112.19 242.75-112.11 242.7-111.99 242.7-111.91 242.7-111.55 243.04-111.55 243.04-109.44 244.89C-109.303 245.046-109.152 245.19-108.99 245.32-108.866 245.388-108.73 245.433-108.59 245.45ZM-112.2 243.89C-112.456 243.886-112.701 243.987-112.88 244.17-113.063 244.349-113.164 244.594-113.16 244.85-113.166 245.109-113.064 245.358-112.88 245.54-112.697 245.716-112.454 245.816-112.2 245.82-111.946 245.816-111.703 245.716-111.52 245.54-111.332 245.36-111.227 245.11-111.23 244.85-111.23 244.593-111.335 244.348-111.52 244.17-111.697 243.985-111.944 243.884-112.2 243.89Z" fill="#FFFFFF" transform="translate(176.88 -234.93)"/><path d="M-106.87 241-106.87 241-106.87 244.86C-106.87 245.18-106.77 245.38-106.59 245.45-106.432 245.502-106.267 245.529-106.1 245.53L-106.1 246.41-106.37 246.41C-106.711 246.411-107.04 246.29-107.3 246.07-107.462 246.218-107.658 246.325-107.87 246.38-108.14 246.397-108.41 246.397-108.68 246.38L-108.68 245.5-108.4 245.5C-108.187 245.537-107.971 245.452-107.84 245.28-107.763 245.08-107.732 244.864-107.75 244.65L-107.75 241-107.75 241-107.75 241C-107.765 240.955-107.765 240.905-107.75 240.86-107.713 240.822-107.663 240.801-107.61 240.8L-107.12 240.8C-107.06 240.802-107.005 240.831-106.97 240.88-106.959 240.916-106.959 240.954-106.97 240.99Z" fill="#FFFFFF" transform="translate(176.88 -234.93)"/><path d="M-101.41 244.66-103.41 245.81C-103.866 246.071-104.369 246.237-104.89 246.3-105.11 246.3-105.64 246.3-106.47 246.36L-106.47 245.48-105.76 245.48C-105.144 245.487-104.533 245.361-103.97 245.11L-102.35 244.22C-102.467 243.983-102.69 243.816-102.95 243.77-103.03 243.77-103.79 243.75-105.23 243.71L-105.35 242.85-103.19 242.85C-102.313 242.742-101.514 243.366-101.407 244.243-101.389 244.381-101.391 244.522-101.41 244.66Z" fill="#FFFFFF" transform="translate(176.88 -234.93)"/><path d="M-99.3 245.36C-99.0967 245.442-98.8792 245.483-98.66 245.48L-98.66 246.36C-98.8937 246.36-99.1201 246.279-99.3 246.13L-99.3 246.43-99.3 246.43C-99.3541 246.899-99.5656 247.336-99.9 247.67-100.312 248.071-100.865 248.293-101.44 248.29L-101.6 248.29C-101.691 248.294-101.773 248.237-101.8 248.15-101.805 248.13-101.805 248.11-101.8 248.09L-101.8 247.62C-101.817 247.575-101.817 247.525-101.8 247.48-101.765 247.444-101.72 247.419-101.67 247.41L-101.67 247.41C-101.304 247.415-100.949 247.287-100.67 247.05-100.471 246.88-100.337 246.647-100.29 246.39L-100.29 246.39-100.29 243.63C-100.29 243.579-100.272 243.529-100.24 243.49-100.203 243.452-100.153 243.431-100.1 243.43L-99.59 243.43C-99.5302 243.432-99.4746 243.461-99.44 243.51-99.4322 243.546-99.4322 243.584-99.44 243.62Z" fill="#FFFFFF" transform="translate(176.88 -234.93)"/><path d="M-95.48 246C-95.788 246.287-96.2 246.435-96.62 246.41-96.965 246.418-97.3072 246.346-97.62 246.2-97.9715 246.334-98.3439 246.405-98.72 246.41L-98.72 245.53C-98.556 245.544-98.3925 245.498-98.26 245.4-98.26 245.4-98.26 245.32-98.26 245.28L-98.26 244.4C-98.2631 244.209-98.2184 244.02-98.13 243.85-98.0851 243.765-98.0315 243.684-97.97 243.61L-97.82 243.47C-97.6256 243.318-97.3868 243.234-97.14 243.23L-96.21 243.23C-95.9712 243.235-95.7402 243.316-95.55 243.46L-95.37 243.62C-95.1957 243.827-95.1001 244.089-95.1 244.36L-95.1 245.27C-95.1323 245.552-95.2676 245.812-95.48 246ZM-96.66 244C-96.9391 243.996-97.2074 244.108-97.4 244.31-97.6021 244.503-97.7145 244.771-97.71 245.05-97.7145 245.329-97.6021 245.597-97.4 245.79-97.2057 245.988-96.9376 246.097-96.66 246.09-96.3824 246.097-96.1143 245.988-95.92 245.79-95.7216 245.596-95.6129 245.328-95.62 245.05-95.6129 244.772-95.7216 244.504-95.92 244.31-96.1126 244.108-96.3809 243.996-96.66 244Z" fill="#FFFFFF" transform="translate(176.88 -234.93)"/></svg>