<svg viewBox="0 0 18.43 14.18" xmlns="http://www.w3.org/2000/svg" xmlns:xlink="http://www.w3.org/1999/xlink" overflow="hidden"><defs><linearGradient x1="58.96" y1="167.85" x2="77.39" y2="167.85" gradientUnits="userSpaceOnUse" id="linear-gradient"><stop offset="0" stop-color="#590097"/><stop offset="1" stop-color="#9629EF"/></linearGradient><linearGradient x1="68.17" y1="161.97" x2="68.17" y2="172.35" gradientUnits="userSpaceOnUse" id="linear-gradient-2"><stop offset="0" stop-color="#EEEEEE"/><stop offset="1" stop-color="#292929"/></linearGradient></defs><g><g id="OBJECT"><path d="M76.08 160.76 60.27 160.76C59.5599 160.776 58.9943 161.36 59 162.07L59 170.74C59 171.464 59.5865 172.05 60.31 172.05L65.2 172.05 68 174.88C68.0845 174.959 68.2155 174.959 68.3 174.88L71.12 172.05 76.06 172.05C76.7835 172.05 77.37 171.464 77.37 170.74L77.37 162.07C77.3701 161.354 76.7957 160.771 76.08 160.76Z" fill="url(#linear-gradient)" transform="translate(-58.96 -160.76)"/><path d="M76.08 160.76 60.27 160.76C59.5599 160.776 58.9943 161.36 59 162.07L59 170.74C59 171.464 59.5865 172.05 60.31 172.05L65.2 172.05 68 174.88C68.0845 174.959 68.2155 174.959 68.3 174.88L71.12 172.05 76.06 172.05C76.7835 172.05 77.37 171.464 77.37 170.74L77.37 162.07C77.3701 161.354 76.7957 160.771 76.08 160.76ZM77.14 170.76C77.1346 171.343 76.6632 171.815 76.08 171.82L71 171.82 68.17 174.72 65.28 171.82 60.28 171.82C59.6946 171.82 59.22 171.345 59.22 170.76L59.22 162.09C59.1979 161.511 59.6498 161.023 60.2292 161.001 60.2428 161 60.2564 161 60.27 161L76.08 161C76.6654 161 77.14 161.475 77.14 162.06Z" fill="url(#linear-gradient-2)" transform="translate(-58.96 -160.76)"/><path d="M63.79 165.49C63.7567 165.124 63.8803 164.76 64.13 164.49 64.3379 164.287 64.6199 164.179 64.91 164.19 65.1957 164.188 65.4686 164.308 65.66 164.52 65.8618 164.725 65.9734 165.002 65.97 165.29 65.9692 165.595 65.9009 165.895 65.77 166.17 65.615 166.451 65.4413 166.722 65.25 166.98 65.18 167.08 65.07 167.24 64.93 167.46L64.81 167.65C64.7449 167.74 64.6848 167.833 64.63 167.93L64.63 167.99 65.95 167.99 65.95 168.65 63.78 168.65 63.78 168.03C63.8216 167.945 63.8718 167.865 63.93 167.79L64.08 167.56 64.26 167.31 64.74 166.64C64.9196 166.393 65.0737 166.128 65.2 165.85 65.2745 165.683 65.3153 165.503 65.32 165.32 65.3271 165.194 65.288 165.069 65.21 164.97 65.1334 164.872 65.0145 164.816 64.89 164.82 64.6966 164.825 64.5314 164.961 64.49 165.15 64.478 165.233 64.478 165.317 64.49 165.4L64.49 165.57 63.83 165.57Z" fill="#FFFFFF" transform="translate(-58.96 -160.76)"/><path d="M67.42 164.91 67.42 165.91C67.535 165.743 67.727 165.645 67.93 165.65 68.1853 165.636 68.4304 165.753 68.58 165.96 68.713 166.19 68.7756 166.455 68.76 166.72L68.76 167.72C68.7685 168.02 68.657 168.312 68.45 168.53 68.2527 168.737 67.976 168.85 67.69 168.84 67.4128 168.839 67.1485 168.723 66.96 168.52 66.7663 168.32 66.6648 168.048 66.68 167.77L66.68 167.67 67.32 167.67 67.32 167.82C67.3212 167.971 67.4058 168.11 67.54 168.18L67.66 168.18C67.93 168.18 68.07 168.04 68.07 167.75L68.07 166.66C68.0709 166.536 68.0158 166.419 67.92 166.34 67.8708 166.296 67.8057 166.274 67.74 166.28 67.6317 166.276 67.5294 166.329 67.47 166.42 67.4237 166.495 67.3994 166.582 67.4 166.67L67.4 166.8 66.73 166.8 66.73 164.36 68.73 164.36 68.73 165.04Z" fill="#FFFFFF" transform="translate(-58.96 -160.76)"/><path d="M70.59 165.87C70.5928 166.019 70.5308 166.161 70.42 166.26 70.3187 166.368 70.1778 166.429 70.03 166.43 69.8787 166.432 69.7336 166.37 69.63 166.26 69.5218 166.16 69.4632 166.017 69.47 165.87L69.47 164.6C69.4671 164.453 69.525 164.312 69.63 164.21 69.7194 164.092 69.8531 164.016 70 164 70.3049 164.01 70.5497 164.255 70.56 164.56ZM70.08 168.76 69.68 168.76 71.96 164.06 72.35 164.06ZM69.82 165.87C69.817 165.922 69.835 165.972 69.87 166.01 69.9093 166.05 69.9638 166.072 70.02 166.07 70.1283 166.065 70.215 165.978 70.22 165.87L70.22 164.6C70.222 164.544 70.2002 164.489 70.16 164.45 70.1231 164.412 70.0728 164.391 70.02 164.39 69.9638 164.388 69.9093 164.41 69.87 164.45 69.8334 164.491 69.8154 164.545 69.82 164.6ZM72.01 166.33C72.1578 166.331 72.2987 166.392 72.4 166.5 72.505 166.602 72.5629 166.743 72.56 166.89L72.56 168.16C72.56 168.464 72.3138 168.71 72.01 168.71 71.8602 168.714 71.7154 168.657 71.61 168.55 71.505 168.448 71.4471 168.307 71.45 168.16L71.45 166.89C71.4446 166.743 71.5029 166.601 71.61 166.5 71.7113 166.392 71.8522 166.331 72 166.33ZM72.2 166.88C72.195 166.772 72.1083 166.685 72 166.68 71.9438 166.678 71.8893 166.7 71.85 166.74 71.8123 166.777 71.7907 166.827 71.79 166.88L71.79 168.15C71.79 168.266 71.884 168.36 72 168.36 72.0528 168.359 72.1031 168.338 72.14 168.3 72.1802 168.261 72.202 168.206 72.2 168.15Z" fill="#FFFFFF" transform="translate(-58.96 -160.76)"/></g></g></svg>