<svg viewBox="0 0 533.4 264.69" xmlns="http://www.w3.org/2000/svg" xmlns:xlink="http://www.w3.org/1999/xlink" id="Layer_1" overflow="hidden"><defs></defs><path d="M-2325.17-476.87C-2332.8-476.87-2338.63-478.147-2342.64-480.7-2346.65-483.253-2348.65-487.113-2348.64-492.28-2348.66-495.038-2348.08-497.767-2346.94-500.28L-2346.47-501.34-2345.39-500.87-2340.79-498.87-2339.79-498.43-2340.2-497.37C-2340.77-495.987-2341.08-494.507-2341.1-493.01-2341.15-490.354-2339.65-487.911-2337.27-486.74-2334.73-485.313-2330.71-484.6-2325.2-484.6L-2319.86-484.6C-2318.65-484.6-2317.54-484.6-2316.52-484.72-2315.5-484.84-2314.61-484.9-2313.83-485.04-2313.12-485.163-2312.41-485.333-2311.72-485.55-2311.17-485.724-2310.65-485.955-2310.15-486.24-2309.78-486.469-2309.44-486.752-2309.15-487.08-2308.9-487.353-2308.69-487.668-2308.55-488.01-2308.42-488.328-2308.36-488.668-2308.36-489.01-2308.36-490.603-2309.25-492.227-2311.03-493.88-2314.11-496.753-2316.76-499.037-2318.97-500.73-2321.49-502.73-2322.75-504.84-2322.75-507.15-2322.79-508.562-2322.34-509.944-2321.49-511.07-2320.55-512.24-2319.3-513.115-2317.88-513.59L-2297.58-521.3-2296-521.91-2296-514.12-2296.76-513.83-2314.57-507.18C-2311.16-504.357-2307.91-501.352-2304.82-498.18-2303.95-497.223-2303.19-496.174-2302.55-495.05-2301.84-493.815-2301.24-492.516-2300.77-491.17-2300.21-489.278-2299.17-487.559-2297.77-486.17-2296.58-485.121-2295.04-484.557-2293.45-484.59L-2292.98-484.59C-2292.76-484.593-2292.54-484.552-2292.34-484.47-2292.17-484.415-2292.01-484.327-2291.87-484.21-2291.73-484.085-2291.63-483.931-2291.56-483.76L-2291.35-483.26C-2291.29-483.068-2291.26-482.87-2291.25-482.67-2291.25-482.41-2291.25-482.23-2291.25-482.13-2291.24-481.95-2291.24-481.77-2291.25-481.59-2291.25-481.32-2291.25-481.18-2291.25-481.16L-2291.25-480.61C-2291.25-480.61-2291.25-480.39-2291.25-480.06-2291.25-479.73-2291.25-479.51-2291.25-479.36-2291.25-479.21-2291.25-478.99-2291.31-478.69-2291.32-478.443-2291.38-478.2-2291.47-477.97-2291.56-477.775-2291.66-477.588-2291.78-477.41-2291.9-477.225-2292.07-477.078-2292.27-476.99-2292.51-476.897-2292.76-476.852-2293.02-476.86L-2293.49-476.86C-2295.39-476.86-2297.26-477.248-2299-478-2300.75-478.771-2302.31-479.91-2303.58-481.34-2305.31-479.653-2307.47-478.476-2309.82-477.94-2313.09-477.154-2316.45-476.791-2319.82-476.86Z" fill="#FFFFFF" transform="translate(2544.57 521.92)"/><path d="M-2291.09-476.87-2293.32-476.87C-2294.18-476.817-2295-477.229-2295.47-477.95-2295.97-478.748-2296.22-479.678-2296.19-480.62L-2296.19-481.17C-2296.22-482.041-2295.95-482.896-2295.44-483.6-2294.95-484.269-2294.15-484.645-2293.32-484.6L-2291.09-484.6C-2288.18-484.6-2286.25-484.863-2285.32-485.39-2284.05-486.13-2283.41-487.83-2283.42-490.49-2283.45-493.011-2283.79-495.519-2284.42-497.96L-2284.72-499.1-2283.57-499.37-2278.8-500.57-2277.74-500.86-2277.39-499.81C-2276.45-496.823-2275.95-493.712-2275.93-490.58-2275.93-485.4-2277.45-481.66-2280.5-479.36-2281.12-478.907-2281.79-478.528-2282.5-478.23-2283.28-477.893-2284.1-477.632-2284.93-477.45-2285.87-477.25-2286.82-477.104-2287.78-477.01-2288.8-476.91-2289.9-476.87-2291.09-476.87ZM-2294.2-468.02-2289.94-472.29-2289.5-472.73-2289.06-472.29-2284.77-467.99-2284.77-467.99-2284.7-468.05-2280.44-472.32-2280-472.76-2279.56-472.32-2275.27-468.02-2274.83-467.58-2275.27-467.14-2279.53-462.88-2279.97-462.44-2280.41-462.88-2284.7-467.18-2284.7-467.18-2284.77-467.11-2289.03-462.85-2289.47-462.41-2289.91-462.85-2294.2-467.15-2294.64-467.58Z" fill="#FFFFFF" transform="translate(2544.57 521.92)"/><path d="M-2253.77-493.95-2252.13-488.29C-2251.87-487.206-2251.3-486.222-2250.49-485.46-2249.68-484.854-2248.68-484.55-2247.67-484.6L-2246.85-484.6C-2246.66-484.602-2246.48-484.579-2246.3-484.53-2246.13-484.49-2245.98-484.403-2245.86-484.28L-2245.55-483.96C-2245.45-483.834-2245.37-483.687-2245.33-483.53-2245.27-483.35-2245.23-483.2-2245.2-483.09-2245.16-482.922-2245.14-482.752-2245.14-482.58-2245.14-482.34-2245.14-482.19-2245.14-482.11-2245.14-482.03-2245.14-481.89-2245.14-481.67L-2245.14-480.62C-2245.14-480.62-2245.14-480.42-2245.14-480.09-2245.14-479.76-2245.14-479.52-2245.14-479.37-2245.14-479.22-2245.14-478.99-2245.2-478.68-2245.21-478.433-2245.27-478.19-2245.36-477.96-2245.45-477.774-2245.56-477.594-2245.67-477.42-2245.8-477.234-2245.97-477.088-2246.18-477-2246.41-476.909-2246.66-476.865-2246.91-476.87L-2247.41-476.87C-2248.93-476.809-2250.46-477.047-2251.89-477.57-2252.68-473.382-2255.09-469.673-2258.59-467.24-2262.13-464.733-2266.88-463.157-2272.84-462.51L-2273.84-462.39-2274.07-463.39-2275.33-468.39-2275.65-469.71-2274.31-469.85C-2268.98-470.383-2265.05-471.7-2262.53-473.8-2259.98-475.964-2258.59-479.2-2258.78-482.54-2258.86-485.616-2259.61-488.637-2260.98-491.39L-2261.53-492.56-2260.3-493-2255.3-494.73-2254.13-495.14Z" fill="#FFFFFF" transform="translate(2544.57 521.92)"/><path d="M-2224.12-480.62-2224.12-479.55C-2224.12-479.397-2224.12-479.197-2224.12-478.95-2224.13-478.738-2224.16-478.527-2224.21-478.32-2224.26-478.128-2224.32-477.94-2224.4-477.76-2224.46-477.576-2224.57-477.411-2224.72-477.28-2224.86-477.153-2225.02-477.051-2225.2-476.98-2225.41-476.906-2225.63-476.869-2225.85-476.87L-2226.14-476.87C-2229.75-476.87-2232.45-477.983-2234.26-480.21-2236.5-477.983-2239.83-476.87-2244.26-476.87L-2247.26-476.87C-2248.12-476.816-2248.94-477.234-2249.4-477.96-2249.89-478.76-2250.13-479.684-2250.1-480.62L-2250.1-481.17C-2250.11-481.747-2250.01-482.32-2249.81-482.86-2249.61-483.363-2249.26-483.794-2248.81-484.1-2248.35-484.439-2247.78-484.615-2247.21-484.6L-2244.31-484.6C-2240.44-484.6-2238.33-485.567-2237.98-487.5-2237.86-488.237-2237.8-488.983-2237.81-489.73-2237.81-490.68-2237.81-491.58-2237.9-492.42L-2238.04-494.83-2238.13-495.94-2237.02-496.06-2232.18-496.64-2230.98-496.76-2230.89-495.56-2230.42-488.76C-2230.43-487.584-2230-486.446-2229.22-485.57-2228.31-484.832-2227.14-484.474-2225.97-484.57L-2225.74-484.57C-2225.49-484.576-2225.24-484.532-2225-484.44-2224.79-484.355-2224.62-484.204-2224.51-484.01-2224.39-483.82-2224.29-483.64-2224.2-483.47-2224.09-483.251-2224.03-483.013-2224.02-482.77-2224.02-482.47-2224.02-482.25-2224.02-482.11L-2224.02-480.59ZM-2242.83-468.02-2238.57-472.29-2238.13-472.73-2237.69-472.29-2233.4-467.99-2232.96-467.55-2233.4-467.11-2237.66-462.85-2238.1-462.41-2238.54-462.85-2242.83-467.15-2243.27-467.58Z" fill="#FFFFFF" transform="translate(2544.57 521.92)"/><path d="M-2224.09-476.87-2226.32-476.87C-2227.18-476.823-2228-477.234-2228.47-477.95-2228.97-478.748-2229.22-479.678-2229.19-480.62L-2229.19-481.17C-2229.22-482.041-2228.95-482.896-2228.44-483.6-2227.94-484.266-2227.15-484.641-2226.32-484.6L-2224.09-484.6C-2221.18-484.6-2219.25-484.863-2218.32-485.39-2217.05-486.13-2216.41-487.83-2216.41-490.49-2216.44-493.011-2216.78-495.519-2217.41-497.96L-2217.7-499.1-2216.56-499.37-2211.78-500.57-2210.78-500.86-2210.43-499.81C-2209.48-496.825-2208.98-493.713-2208.96-490.58-2208.96-485.4-2210.48-481.66-2213.53-479.36-2214.15-478.911-2214.82-478.533-2215.53-478.23-2216.31-477.893-2217.13-477.632-2217.96-477.45-2218.9-477.25-2219.86-477.103-2220.82-477.01-2221.79-476.91-2222.9-476.87-2224.09-476.87ZM-2226.73-509.68-2222.47-513.95-2222.03-514.39-2221.59-513.95-2217.29-509.65-2217.29-509.65-2217.23-509.71-2212.97-513.98-2212.53-514.42-2212.09-513.98-2207.79-509.68-2207.36-509.24-2207.79-508.8-2212.06-504.54-2212.5-504.1-2212.94-504.54-2217.23-508.84-2217.23-508.84-2217.29-508.77-2221.56-504.51-2222-504.07-2222.43-504.51-2226.73-508.81-2227.17-509.25Z" fill="#FFFFFF" transform="translate(2544.57 521.92)"/><path d="M-2524.84-409.6-2524.78-434.17-2524.78-434.95-2519.86-434.95-2519.86-434.17-2519.86-413.49C-2519.86-411.6-2519.92-409.82-2520.04-408.16-2520.32-404.407-2521.52-401.56-2523.63-399.62-2525.74-397.68-2528.69-396.71-2532.48-396.71-2536.42-396.71-2539.43-397.71-2541.48-399.71-2543.53-401.71-2544.56-404.62-2544.55-408.46-2544.55-409.83-2544.41-411.197-2544.14-412.54-2543.84-413.956-2543.42-415.341-2542.87-416.68L-2542.58-417.4-2541.83-417.09-2538.75-415.82-2538.05-415.53-2538.32-414.83C-2539.13-412.783-2539.56-410.603-2539.57-408.4-2539.57-406.113-2539-404.447-2537.85-403.4-2536.7-402.353-2534.91-401.813-2532.46-401.78-2529.86-401.78-2527.94-402.417-2526.7-403.69-2525.48-404.91-2524.86-406.89-2524.84-409.6Z" fill="#FFFFFF" transform="translate(2544.57 521.92)"/><path d="M-2508.72-406.83C-2510.81-406.697-2512.88-407.294-2514.57-408.52-2516.01-409.765-2516.78-411.621-2516.63-413.52-2516.64-415.189-2516.26-416.837-2515.54-418.34-2514.97-419.614-2514.08-420.714-2512.95-421.53-2511.87-422.259-2510.59-422.64-2509.29-422.62-2508.34-422.632-2507.41-422.43-2506.55-422.03-2505.72-421.63-2504.98-421.054-2504.39-420.34-2503.73-419.533-2503.21-418.62-2502.86-417.64-2502-415.335-2501.59-412.889-2501.63-410.43-2501.63-406.577-2502.84-403.55-2505.27-401.35-2507.7-399.15-2511.2-397.817-2515.77-397.35L-2516.43-397.29-2516.59-397.93-2517.43-401.25-2517.65-402.13-2516.75-402.23C-2511.64-402.75-2508.4-404.343-2507.02-407.01L-2508.08-406.91ZM-2506.57-412.16C-2506.64-412.983-2506.78-413.799-2506.98-414.6-2507.11-415.168-2507.34-415.709-2507.65-416.2-2507.86-416.547-2508.15-416.839-2508.5-417.05-2508.8-417.229-2509.15-417.322-2509.5-417.32-2509.76-417.322-2510.02-417.268-2510.26-417.16-2510.52-417.023-2510.73-416.828-2510.9-416.59-2511.13-416.256-2511.31-415.888-2511.43-415.5-2511.63-414.941-2511.74-414.353-2511.75-413.76-2511.79-413.199-2511.54-412.658-2511.08-412.33-2510.34-411.955-2509.51-411.795-2508.68-411.87-2507.97-411.888-2507.26-411.986-2506.57-412.16Z" fill="#FFFFFF" transform="translate(2544.57 521.92)"/><path d="M-2497.73-434.95-2493.57-434.95-2493.57-406.89-2498.51-406.89-2498.51-434.95Z" fill="#FFFFFF" transform="translate(2544.57 521.92)"/><path d="M-2480.64-415.58C-2480.64-419.647-2477.31-422.777-2470.64-424.97L-2470.64-425.19-2470.78-425.93-2470.04-426.08-2466.85-426.75-2466.05-426.91-2465.93-426.08-2464.31-414.54C-2464.28-413.815-2463.98-413.127-2463.47-412.61-2462.9-412.181-2462.19-411.971-2461.47-412.02L-2461.08-412.02C-2460.97-412.039-2460.85-412.039-2460.74-412.02-2460.65-411.995-2460.55-411.958-2460.47-411.91-2460.39-411.857-2460.32-411.789-2460.26-411.71-2460.2-411.636-2460.15-411.56-2460.1-411.48-2460.06-411.39-2460.03-411.296-2460.01-411.2-2459.98-411.111-2459.96-411.021-2459.95-410.93-2459.95-410.857-2459.95-410.757-2459.95-410.63-2459.95-410.5-2459.95-410.41-2459.95-410.35L-2459.95-409.42C-2459.95-409.42-2459.95-409.27-2459.95-409.05-2459.94-408.897-2459.94-408.743-2459.95-408.59-2459.95-408.49-2459.95-408.34-2459.95-408.13-2459.96-407.964-2459.99-407.802-2460.06-407.65-2460.12-407.526-2460.19-407.406-2460.26-407.29-2460.34-407.163-2460.46-407.062-2460.6-407-2460.76-406.947-2460.92-406.92-2461.09-406.92L-2461.56-406.92C-2463.04-406.879-2464.5-407.224-2465.81-407.92-2466.96-408.567-2467.84-409.597-2468.3-410.83-2469.71-409.844-2471.4-409.319-2473.12-409.33-2476.33-409.33-2478.57-410.4-2479.86-412.55-2480.13-413.002-2480.32-413.491-2480.45-414-2480.57-414.517-2480.64-415.048-2480.64-415.58ZM-2469.86-420.13C-2470.78-419.789-2471.67-419.388-2472.54-418.93-2473.17-418.601-2473.77-418.209-2474.32-417.76-2474.7-417.478-2475.04-417.141-2475.32-416.76-2475.51-416.49-2475.62-416.17-2475.63-415.84-2475.68-415.376-2475.49-414.919-2475.13-414.62-2474.57-414.313-2473.93-414.18-2473.29-414.24-2472.36-414.258-2471.45-414.535-2470.67-415.04-2470.22-415.299-2469.87-415.7-2469.67-416.18-2469.47-416.756-2469.44-417.375-2469.57-417.97Z" fill="#FFFFFF" transform="translate(2544.57 521.92)"/><path d="M-2460.43-406.87-2461.43-406.87C-2462-406.835-2462.55-407.11-2462.86-407.59-2463.2-408.121-2463.37-408.741-2463.35-409.37L-2463.35-409.74C-2463.37-410.319-2463.2-410.888-2462.86-411.36-2462.52-411.801-2461.99-412.047-2461.43-412.02L-2460.43-412.02C-2459.55-411.995-2458.67-412.12-2457.83-412.39-2457.25-412.583-2456.76-412.963-2456.42-413.47-2456.12-414.023-2455.97-414.649-2455.99-415.28L-2455.9-434.17-2455.9-434.95-2450.96-434.95-2450.96-415.28C-2450.98-414.637-2450.86-413.998-2450.6-413.41-2450.38-412.937-2449.99-412.56-2449.51-412.35-2448.87-412.105-2448.19-411.992-2447.51-412.02L-2447.18-412.02C-2447-412.026-2446.82-411.991-2446.65-411.92-2446.5-411.868-2446.37-411.756-2446.3-411.61-2446.21-411.489-2446.14-411.358-2446.08-411.22-2446.02-411.061-2445.98-410.897-2445.96-410.73-2445.96-410.52-2445.96-410.37-2445.96-410.26L-2445.96-408.6C-2445.96-408.46-2445.96-408.27-2446.03-408.02-2446.06-407.815-2446.12-407.615-2446.21-407.43-2446.3-407.274-2446.43-407.141-2446.58-407.04-2446.77-406.918-2446.99-406.859-2447.21-406.87L-2447.5-406.87C-2449.79-406.734-2452.04-407.577-2453.67-409.19-2455.09-407.64-2457.37-406.87-2460.43-406.87Z" fill="#FFFFFF" transform="translate(2544.57 521.92)"/><path d="M-2447.36-406.87C-2447.93-406.838-2448.48-407.112-2448.8-407.59-2449.13-408.123-2449.3-408.743-2449.27-409.37L-2449.27-409.74C-2449.29-410.319-2449.12-410.889-2448.78-411.36-2448.44-411.799-2447.91-412.046-2447.36-412.02L-2446.19-412.02C-2442.05-412.02-2436.9-413.603-2430.74-416.77L-2433.32-417.77C-2434.88-418.508-2436.54-419.01-2438.24-419.26-2439.43-419.261-2440.54-418.692-2441.24-417.73L-2441.78-417.01-2442.17-416.52-2442.74-416.8-2445.74-418.28-2446.5-418.65-2446.05-419.39-2445.74-419.92C-2444.95-421.275-2443.84-422.413-2442.5-423.23-2441.19-423.987-2439.7-424.384-2438.18-424.38-2435.99-424.265-2433.84-423.664-2431.91-422.62-2427.91-420.693-2424.86-419.693-2422.77-419.62L-2422.03-419.62-2422.03-418.86-2422.03-415.48-2422.03-414.76-2422.73-414.7C-2424.14-414.58-2426.8-413.49-2430.73-411.42-2436.42-408.413-2441.62-406.91-2446.33-406.91Z" fill="#FFFFFF" transform="translate(2544.57 521.92)"/><path d="M-2411.65-418.25-2410.55-414.48C-2410.38-413.759-2410-413.104-2409.46-412.6-2408.92-412.189-2408.26-411.983-2407.58-412.02L-2407.04-412.02C-2406.92-412.041-2406.79-412.041-2406.67-412.02-2406.56-411.996-2406.45-411.94-2406.37-411.86L-2406.17-411.64C-2406.1-411.559-2406.05-411.463-2406.02-411.36L-2405.93-411.07C-2405.92-410.953-2405.92-410.837-2405.93-410.72-2405.93-410.57-2405.93-410.46-2405.93-410.41-2405.92-410.313-2405.92-410.217-2405.93-410.12L-2405.93-409.42C-2405.93-409.42-2405.93-409.29-2405.93-409.06-2405.92-408.904-2405.92-408.746-2405.93-408.59-2405.93-408.49-2405.93-408.34-2405.93-408.13-2405.94-407.966-2405.97-407.804-2406.03-407.65-2406.09-407.524-2406.16-407.404-2406.24-407.29-2406.32-407.161-2406.44-407.059-2406.58-407-2406.74-406.946-2406.9-406.919-2407.07-406.92L-2407.4-406.92C-2408.42-406.879-2409.44-407.035-2410.4-407.38-2410.93-404.592-2412.53-402.122-2414.86-400.5-2417.71-398.662-2420.98-397.578-2424.36-397.35L-2425.05-397.27-2425.2-397.93-2426.04-401.25-2426.26-402.13-2425.36-402.23C-2421.8-402.58-2419.19-403.46-2417.51-404.86-2415.81-406.305-2414.89-408.463-2415.01-410.69-2415.06-412.736-2415.56-414.746-2416.47-416.58L-2416.84-417.37-2416.02-417.66-2412.7-418.81-2411.92-419.08Z" fill="#FFFFFF" transform="translate(2544.57 521.92)"/><path d="M-2401.47-409.31C-2402.88-407.77-2404.87-406.886-2406.96-406.87L-2407.37-406.87C-2407.94-406.834-2408.49-407.115-2408.79-407.6-2409.12-408.131-2409.28-408.747-2409.26-409.37L-2409.26-409.74C-2409.28-410.318-2409.11-410.886-2408.78-411.36-2408.45-411.8-2407.92-412.048-2407.37-412.02L-2407.06-412.02C-2406.03-412.144-2405.11-412.714-2404.54-413.58-2403.98-414.341-2403.52-415.171-2403.17-416.05-2401.32-420.13-2398.85-422.19-2395.75-422.2-2394.64-422.218-2393.55-421.992-2392.54-421.54-2391.56-421.081-2390.7-420.396-2390.04-419.54-2388.71-417.867-2388-415.78-2388.04-413.64-2387.92-411.824-2388.45-410.024-2389.53-408.56-2389.71-408.37-2389.9-408.18-2390.09-408-2390.29-407.819-2390.5-407.652-2390.72-407.5-2390.94-407.353-2391.17-407.22-2391.4-407.1-2391.64-406.982-2391.88-406.879-2392.13-406.79-2392.39-406.698-2392.65-406.621-2392.92-406.56-2393.19-406.498-2393.47-406.458-2393.75-406.44-2394.04-406.425-2394.34-406.425-2394.63-406.44-2397.2-406.468-2399.65-407.498-2401.47-409.31ZM-2394.89-411.5C-2394.35-411.437-2393.8-411.588-2393.37-411.92-2393.04-412.334-2392.88-412.862-2392.94-413.39-2392.94-413.55-2392.94-413.69-2392.94-413.83-2392.93-413.963-2392.93-414.097-2392.94-414.23-2392.94-414.36-2392.99-414.49-2393.01-414.61-2393.04-414.725-2393.07-414.839-2393.11-414.95L-2393.23-415.26C-2393.34-415.533-2393.49-415.791-2393.66-416.03-2393.8-416.227-2393.98-416.399-2394.18-416.54-2394.38-416.679-2394.6-416.781-2394.84-416.84-2395.1-416.899-2395.36-416.926-2395.63-416.92-2396.96-416.92-2398.03-415.92-2398.85-413.84-2397.44-412.28-2396.12-411.5-2394.89-411.5Z" fill="#FFFFFF" transform="translate(2544.57 521.92)"/><path d="M-2350.61-414.66C-2350.4-413.871-2349.94-413.171-2349.3-412.66-2348.64-412.205-2347.84-411.98-2347.04-412.02-2346.46-411.998-2345.89-412.096-2345.35-412.31-2344.94-412.475-2344.61-412.79-2344.43-413.19-2344.22-413.7-2344.13-414.249-2344.15-414.8-2344.15-415.29-2344.15-415.71-2344.15-416.06-2344.15-416.41-2344.15-416.66-2344.15-416.83L-2344.25-418.43-2344.31-419.17-2343.57-419.25-2340.35-419.62-2339.55-419.72-2339.49-418.92-2339.17-414.39C-2339.18-413.73-2338.96-413.086-2338.55-412.57-2338.08-412.177-2337.48-411.987-2336.87-412.04-2336.61-412.036-2336.36-412.066-2336.11-412.13-2335.89-412.188-2335.68-412.294-2335.51-412.44-2335.33-412.607-2335.18-412.807-2335.07-413.03-2334.94-413.32-2334.86-413.626-2334.81-413.94-2334.74-414.36-2334.71-414.785-2334.7-415.21-2334.7-415.48-2334.7-415.75-2334.7-416.03-2334.7-416.31-2334.7-416.57-2334.7-416.84-2334.7-417.11-2334.7-417.37-2334.7-417.63L-2334.82-418.82-2334.87-419.56-2334.13-419.66-2330.91-420.03-2330.11-420.13-2330.03-419.33-2329.72-415.64C-2329.68-414.909-2329.52-414.189-2329.24-413.51-2329.06-413.037-2328.73-412.634-2328.3-412.36-2327.87-412.124-2327.38-412.007-2326.89-412.02L-2326.54-412.02C-2326.39-412.027-2326.24-412-2326.1-411.94-2325.99-411.896-2325.88-411.839-2325.78-411.77-2325.69-411.686-2325.62-411.584-2325.57-411.47-2325.51-411.33-2325.47-411.22-2325.44-411.13-2325.4-411.003-2325.38-410.872-2325.37-410.74-2325.36-410.62-2325.36-410.5-2325.37-410.38L-2325.37-409.38C-2325.39-409.257-2325.39-409.133-2325.37-409.01L-2325.37-408.55C-2325.37-408.44-2325.37-408.28-2325.37-408.09-2325.38-407.929-2325.42-407.77-2325.48-407.62-2325.54-407.492-2325.6-407.368-2325.68-407.25-2325.75-407.117-2325.87-407.014-2326.01-406.96-2326.17-406.904-2326.35-406.877-2326.52-406.88L-2326.83-406.88C-2329.12-406.88-2330.77-407.55-2331.77-408.88-2332.97-407.501-2334.75-406.761-2336.57-406.88-2337.58-406.857-2338.58-407.038-2339.51-407.41-2340.33-407.745-2341.05-408.303-2341.57-409.02-2342.97-407.595-2344.91-406.825-2346.91-406.9-2347.43-406.896-2347.94-406.94-2348.45-407.03-2348.91-407.113-2349.35-407.244-2349.78-407.42-2349.97-405.916-2350.41-404.454-2351.07-403.09-2353.11-398.837-2357.23-396.713-2363.43-396.72-2369.12-396.72-2372.9-398.59-2374.78-402.33-2375.66-404.252-2376.09-406.348-2376.03-408.46-2375.96-411.582-2375.28-414.659-2374.03-417.52L-2373.73-418.24-2373.01-417.95-2369.9-416.68-2369.2-416.39-2369.47-415.67C-2370.44-413.401-2370.98-410.968-2371.06-408.5-2371.22-406.605-2370.53-404.737-2369.19-403.39-2367.95-402.29-2365.99-401.74-2363.32-401.74-2362.03-401.716-2360.75-401.878-2359.51-402.22-2358.53-402.495-2357.62-402.995-2356.87-403.68-2356.15-404.362-2355.62-405.211-2355.31-406.15-2354.95-407.296-2354.78-408.49-2354.79-409.69-2354.79-410.447-2354.85-411.203-2354.97-411.95-2355.1-412.723-2355.29-413.485-2355.53-414.23-2355.79-415.015-2356.1-415.781-2356.47-416.52L-2356.86-417.33-2356.04-417.62-2352.66-418.79-2351.9-419.04-2351.66-418.28Z" fill="#FFFFFF" transform="translate(2544.57 521.92)"/><path d="M-2325.45-406.87-2326.94-406.87C-2327.51-406.837-2328.06-407.112-2328.37-407.59-2328.7-408.122-2328.87-408.742-2328.85-409.37L-2328.85-409.74C-2328.87-410.321-2328.7-410.892-2328.35-411.36-2328.02-411.8-2327.49-412.048-2326.94-412.02L-2325.45-412.02C-2324.15-411.916-2322.84-412.096-2321.61-412.55-2320.76-413.04-2320.34-414.18-2320.34-415.95-2320.36-417.638-2320.59-419.317-2321.02-420.95L-2321.22-421.71-2320.45-421.89-2317.27-422.69-2316.57-422.88-2316.33-422.18C-2315.69-420.192-2315.35-418.119-2315.33-416.03-2315.33-412.58-2316.33-410.08-2318.33-408.55-2318.74-408.249-2319.18-407.995-2319.65-407.79-2320.17-407.57-2320.72-407.399-2321.27-407.28-2321.9-407.145-2322.54-407.044-2323.18-406.98-2323.92-406.9-2324.66-406.87-2325.45-406.87ZM-2323.59-428.76-2320.75-431.61-2320.46-431.9-2320.17-431.61-2317.3-428.74-2317.01-428.45-2317.3-428.16-2320.15-425.32-2320.44-425.02-2320.73-425.32-2323.59-428.18-2323.89-428.47Z" fill="#FFFFFF" transform="translate(2544.57 521.92)"/><path d="M-2302.32-409.39C-2302.29-408.828-2302.32-408.264-2302.42-407.71-2302.53-407.212-2302.98-406.862-2303.49-406.87L-2303.9-406.87C-2306.23-406.706-2308.51-407.577-2310.13-409.25-2311.55-410.85-2312.26-413.14-2312.26-416.12L-2312.26-434.95-2307.26-434.95-2307.26-416.16C-2307.36-415.037-2307.07-413.914-2306.44-412.98-2305.75-412.272-2304.78-411.905-2303.8-411.98L-2303.45-411.98C-2303.31-411.984-2303.16-411.957-2303.03-411.9-2302.92-411.854-2302.81-411.797-2302.71-411.73-2302.62-411.643-2302.55-411.537-2302.51-411.42-2302.46-411.314-2302.41-411.204-2302.38-411.09-2302.34-410.963-2302.32-410.832-2302.31-410.7-2302.3-410.58-2302.3-410.46-2302.31-410.34L-2302.31-409.34Z" fill="#FFFFFF" transform="translate(2544.57 521.92)"/><path d="M-2288-414.27C-2287.93-414.669-2287.9-415.074-2287.9-415.48-2287.9-415.67-2287.9-415.87-2287.9-416.06-2287.9-416.25-2287.9-416.44-2287.9-416.63-2287.9-416.82-2287.9-417.02-2287.9-417.22L-2288-418.41-2288.08-419.17-2287.32-419.25-2284.11-419.64-2283.29-419.72-2283.23-418.92-2282.92-414.39C-2282.91-414.161-2282.88-413.933-2282.83-413.71-2282.79-413.526-2282.74-413.346-2282.68-413.17-2282.63-413.013-2282.55-412.868-2282.44-412.74-2282.35-412.616-2282.24-412.505-2282.12-412.41-2282-412.319-2281.86-412.248-2281.72-412.2-2281.56-412.147-2281.39-412.107-2281.22-412.08-2281.03-412.064-2280.83-412.064-2280.64-412.08-2280.01-412.039-2279.4-412.322-2279.03-412.83-2278.61-413.647-2278.43-414.565-2278.51-415.48-2278.57-417.1-2278.84-418.704-2279.33-420.25L-2279.56-421.01-2278.78-421.22-2275.44-422.12-2274.72-422.32-2274.5-421.59C-2273.85-419.655-2273.51-417.63-2273.5-415.59L-2273.5-415.47C-2273.5-412.277-2274.38-409.913-2276.13-408.38-2277.37-407.356-2278.94-406.829-2280.55-406.9-2281.22-406.89-2281.9-406.967-2282.55-407.13-2283.13-407.276-2283.69-407.516-2284.2-407.84-2284.69-408.157-2285.13-408.564-2285.47-409.04-2286.89-407.586-2288.87-406.801-2290.9-406.88-2293.41-406.88-2295.22-407.59-2296.33-409.01-2297.66-407.59-2299.73-406.88-2302.56-406.88L-2303.65-406.88C-2304.22-406.848-2304.77-407.122-2305.09-407.6-2305.42-408.132-2305.59-408.752-2305.57-409.38L-2305.57-409.75C-2305.59-410.33-2305.41-410.9-2305.07-411.37-2304.74-411.813-2304.2-412.061-2303.65-412.03L-2302.52-412.03C-2301.58-411.969-2300.65-412.163-2299.81-412.59-2299.21-412.964-2298.79-413.579-2298.67-414.28-2298.6-414.68-2298.57-415.085-2298.58-415.49-2298.58-415.67-2298.58-415.86-2298.58-416.05-2298.58-416.24-2298.58-416.43-2298.58-416.62-2298.58-416.81-2298.58-417.02-2298.58-417.23L-2298.7-418.42-2298.76-419.18-2298.02-419.26-2294.79-419.65-2293.97-419.73-2293.92-418.93-2293.6-414.4C-2293.62-413.724-2293.36-413.069-2292.88-412.59-2292.27-412.166-2291.53-411.967-2290.79-412.03-2290.08-411.985-2289.38-412.171-2288.79-412.56-2288.33-413.018-2288.05-413.624-2288-414.27ZM-2292.34-426.71-2289.55-429.49-2289.26-429.78-2288.97-429.49-2286.17-426.69-2286.09-426.6-2285.98-426.71-2283.2-429.49-2282.91-429.78-2282.62-429.49-2279.82-426.69-2279.52-426.39-2279.82-426.1-2282.6-423.32-2282.89-423.03-2283.18-423.32-2285.98-426.12-2286.07-426.21-2286.17-426.1-2288.95-423.32-2289.24-423.03-2289.53-423.32-2292.34-426.12-2292.63-426.41ZM-2289.2-431.95-2286.42-434.73-2286.13-435.02-2285.84-434.73-2283.04-431.93-2282.74-431.64-2283.04-431.35-2285.81-428.57-2286.11-428.27-2286.4-428.57-2289.2-431.37-2289.49-431.66Z" fill="#FFFFFF" transform="translate(2544.57 521.92)"/><path d="M-2232.75-406.87C-2233.73-406.849-2234.71-407.033-2235.62-407.41-2235.82-405.907-2236.25-404.446-2236.91-403.08-2238.95-398.827-2243.07-396.703-2249.27-396.71-2253.37-396.71-2256.5-397.71-2258.65-399.71-2260.79-401.71-2261.87-404.61-2261.87-408.47-2261.8-411.592-2261.12-414.669-2259.87-417.53L-2259.57-418.25-2258.85-417.96-2255.75-416.69-2255.04-416.4-2255.32-415.68C-2256.29-413.409-2256.82-410.977-2256.9-408.51-2256.9-406.197-2256.28-404.493-2255.03-403.4-2253.78-402.307-2251.83-401.757-2249.16-401.75-2246.25-401.75-2244.1-402.393-2242.72-403.68-2241.34-404.967-2240.64-406.967-2240.63-409.68-2240.66-412.071-2241.24-414.422-2242.33-416.55L-2242.7-417.36-2241.88-417.65-2238.5-418.82-2237.74-419.07-2237.5-418.31-2236.33-414.7C-2236.17-414.169-2235.91-413.674-2235.57-413.24-2235.26-412.874-2234.86-412.589-2234.41-412.41-2233.88-412.218-2233.32-412.127-2232.76-412.14-2231.92-412.06-2231.08-412.303-2230.42-412.82-2229.9-413.458-2229.66-414.274-2229.75-415.09-2229.75-416.16-2229.75-416.88-2229.81-417.26L-2229.91-418.45-2229.91-419.21-2229.17-419.29-2225.95-419.66-2225.13-419.76-2225.13-418.94-2224.8-414.43C-2224.82-413.785-2224.6-413.156-2224.19-412.66-2223.71-412.27-2223.1-412.083-2222.49-412.14-2221.87-412.108-2221.27-412.39-2220.9-412.89-2220.49-413.688-2220.32-414.587-2220.4-415.48-2220.4-415.79-2220.4-416.12-2220.4-416.48-2220.4-416.84-2220.48-417.2-2220.55-417.6-2220.62-418-2220.7-418.42-2220.8-418.86-2220.9-419.3-2221.03-419.76-2221.17-420.25L-2221.39-421.01-2220.63-421.22-2217.29-422.12-2216.56-422.32-2216.33-421.59C-2215.69-419.623-2215.35-417.569-2215.33-415.5-2215.3-414.095-2215.53-412.697-2215.99-411.37-2216.38-410.213-2217.07-409.178-2217.99-408.37-2218.57-407.869-2219.26-407.491-2219.99-407.26-2220.78-407.006-2221.6-406.881-2222.43-406.89-2223.42-406.868-2224.4-407.048-2225.31-407.42-2226.11-407.763-2226.8-408.32-2227.31-409.03-2228.74-407.583-2230.71-406.8-2232.75-406.87ZM-2234.66-426.71-2231.88-429.49-2231.59-429.78-2231.29-429.49-2228.49-426.69-2228.41-426.6-2228.31-426.71-2225.53-429.49-2225.23-429.78-2224.94-429.49-2222.14-426.69-2221.85-426.39-2222.14-426.1-2224.92-423.32-2225.21-423.03-2225.51-423.32-2228.31-426.12-2228.39-426.21-2228.49-426.1-2231.27-423.32-2231.57-423.03-2231.86-423.32-2234.66-426.12-2234.95-426.41ZM-2231.52-431.95-2228.75-434.73-2228.45-435.02-2228.16-434.73-2225.36-431.93-2225.07-431.64-2225.36-431.35-2228.14-428.57-2228.43-428.27-2228.72-428.57-2231.52-431.37-2231.82-431.66Z" fill="#FFFFFF" transform="translate(2544.57 521.92)"/><path d="M-2198.25-412-2196.94-412C-2196.77-412.002-2196.61-411.975-2196.45-411.92-2196.31-411.864-2196.19-411.762-2196.11-411.63-2196.03-411.518-2195.96-411.401-2195.9-411.28-2195.84-411.131-2195.8-410.972-2195.79-410.81-2195.79-410.6-2195.79-410.45-2195.79-410.36L-2195.79-409.9C-2195.79-409.69-2195.79-409.57-2195.79-409.56L-2195.79-409.37C-2195.79-409.3-2195.79-409.21-2195.79-409.1-2195.79-408.99-2195.79-408.79-2195.79-408.5-2195.81-408.239-2195.86-407.981-2195.94-407.73-2196.01-407.504-2196.14-407.298-2196.31-407.13-2196.48-406.958-2196.71-406.863-2196.95-406.87L-2198.49-406.87C-2199.05-404.17-2200.65-401.795-2202.93-400.25-2205.73-398.49-2208.94-397.459-2212.24-397.25L-2212.9-397.19-2213.06-397.83-2213.9-401.19-2214.11-402.05-2213.24-402.15C-2208.05-402.71-2204.8-404.267-2203.49-406.82L-2205.19-406.82C-2207.28-406.686-2209.36-407.279-2211.06-408.5-2212.48-409.728-2213.24-411.548-2213.12-413.42-2213.12-415.089-2212.75-416.738-2212.02-418.24-2211.62-419.1-2211.09-419.89-2210.44-420.58-2209.85-421.199-2209.13-421.689-2208.34-422.02-2207.53-422.357-2206.65-422.527-2205.77-422.52-2203.7-422.576-2201.75-421.534-2200.65-419.78-2199.23-417.421-2198.4-414.75-2198.25-412ZM-2203.07-412C-2203.42-415.52-2204.4-417.28-2206-417.3-2206.41-417.306-2206.8-417.16-2207.11-416.89-2207.49-416.493-2207.78-416.01-2207.93-415.48-2208.13-414.922-2208.24-414.334-2208.25-413.74-2208.27-413.407-2208.18-413.076-2208.01-412.79-2207.79-412.507-2207.48-412.306-2207.13-412.22-2206.56-412.052-2205.97-411.978-2205.37-412Z" fill="#FFFFFF" transform="translate(2544.57 521.92)"/><path d="M-2197.21-406.87C-2197.78-406.835-2198.33-407.11-2198.64-407.59-2198.97-408.122-2199.14-408.742-2199.12-409.37L-2199.12-409.74C-2199.14-410.321-2198.97-410.892-2198.62-411.36-2198.29-411.8-2197.76-412.048-2197.21-412.02L-2196.04-412.02C-2191.9-412.02-2186.75-413.603-2180.59-416.77L-2183.17-417.77C-2184.73-418.508-2186.39-419.01-2188.09-419.26-2189.28-419.261-2190.39-418.692-2191.09-417.73L-2191.63-417.01-2192.02-416.52-2192.59-416.8-2195.59-418.28-2196.35-418.65-2195.9-419.39-2195.59-419.92C-2194.8-421.278-2193.68-422.416-2192.34-423.23-2191.03-423.988-2189.54-424.385-2188.03-424.38-2185.84-424.265-2183.69-423.664-2181.76-422.62-2177.76-420.693-2174.71-419.693-2172.62-419.62L-2171.88-419.62-2171.88-418.86-2171.88-415.48-2171.88-414.76-2172.58-414.7C-2173.98-414.58-2176.65-413.487-2180.58-411.42-2186.27-408.413-2191.47-406.91-2196.18-406.91ZM-2189.67-431.48-2186.82-434.32-2186.53-434.61-2186.24-434.32-2183.38-431.46-2183.08-431.17-2183.38-430.87-2186.22-428.03-2186.51-427.74-2186.8-428.03-2189.67-430.89-2189.96-431.19Z" fill="#FFFFFF" transform="translate(2544.57 521.92)"/><path d="M-2153.52-426.94C-2150.91-425.138-2148.57-422.966-2146.58-420.49-2145.16-418.774-2144.33-416.638-2144.24-414.41-2144.17-411.791-2145.55-409.347-2147.83-408.06-2149.2-407.273-2150.76-406.886-2152.34-406.94-2153.85-406.901-2155.35-407.216-2156.72-407.86-2157.9-408.413-2158.87-409.318-2159.51-410.45-2160.17-411.677-2160.5-413.057-2160.45-414.45-2160.45-417.15-2159.03-419.99-2156.19-422.94L-2156.43-423.16-2156.97-423.62-2156.54-424.21-2154.59-426.81-2154.14-427.43ZM-2152.6-419.21C-2153.45-418.444-2154.2-417.57-2154.83-416.61-2155.26-415.984-2155.5-415.255-2155.55-414.5-2155.56-414.127-2155.51-413.755-2155.39-413.4-2155.29-413.095-2155.1-412.827-2154.85-412.63-2154.56-412.402-2154.21-412.244-2153.85-412.17-2153.35-412.061-2152.85-412.011-2152.34-412.02-2151.46-411.937-2150.58-412.148-2149.83-412.62-2149.31-413.109-2149.05-413.811-2149.12-414.52-2149.2-415.257-2149.5-415.952-2149.98-416.52-2150.74-417.522-2151.62-418.426-2152.6-419.21Z" fill="#FFFFFF" transform="translate(2544.57 521.92)"/><path d="M-2136.07-406.89C-2137.99-406.899-2139.9-407.087-2141.79-407.45L-2142.43-407.57-2142.43-412.78-2141.5-412.59C-2139.68-412.217-2137.83-412.033-2135.97-412.04-2135.25-412.037-2134.53-412.074-2133.81-412.15-2133.29-412.2-2132.77-412.297-2132.27-412.44-2131.92-412.541-2131.58-412.696-2131.27-412.9-2131.05-413.047-2130.87-413.238-2130.73-413.46-2130.63-413.648-2130.58-413.857-2130.58-414.07-2130.65-414.693-2130.8-415.304-2131.03-415.89-2131.33-416.8-2131.75-417.89-2132.3-419.23L-2134.78-425.09-2135.07-425.79-2134.39-426.1-2131.16-427.59-2130.42-427.94-2130.11-427.16-2126.24-417.35C-2125.72-415.926-2125.01-414.58-2124.13-413.35-2123.44-412.49-2122.85-412.05-2122.35-412.05L-2121.96-412.05C-2121.82-412.054-2121.67-412.027-2121.54-411.97-2121.43-411.924-2121.33-411.867-2121.23-411.8-2121.14-411.718-2121.06-411.615-2121.02-411.5-2120.96-411.36-2120.92-411.25-2120.89-411.16-2120.85-411.033-2120.83-410.902-2120.82-410.77-2120.81-410.65-2120.81-410.53-2120.82-410.41L-2120.82-409.41C-2120.81-409.035-2120.84-408.66-2120.9-408.29-2120.92-408.021-2120.98-407.758-2121.09-407.51L-2121.09-407.51-2121.09-407.51C-2121.25-407.165-2121.59-406.941-2121.97-406.93L-2122.36-406.93C-2124.44-406.896-2126.39-407.897-2127.58-409.6-2129.49-407.787-2132.32-406.883-2136.07-406.89Z" fill="#FFFFFF" transform="translate(2544.57 521.92)"/><path d="M-2120.77-406.87-2122.26-406.87C-2122.83-406.839-2123.38-407.113-2123.69-407.59-2124.02-408.122-2124.19-408.742-2124.17-409.37L-2124.17-409.74C-2124.19-410.32-2124.01-410.89-2123.67-411.36-2123.34-411.8-2122.81-412.048-2122.26-412.02L-2120.77-412.02C-2119.46-411.919-2118.15-412.099-2116.92-412.55-2116.08-413.04-2115.65-414.18-2115.65-415.95-2115.68-417.639-2115.91-419.318-2116.34-420.95L-2116.53-421.71-2115.77-421.89-2112.59-422.69-2111.88-422.88-2111.65-422.18C-2111.01-420.192-2110.67-418.118-2110.65-416.03-2110.65-412.58-2111.65-410.08-2113.65-408.55-2114.06-408.249-2114.5-407.995-2114.97-407.79-2115.49-407.57-2116.04-407.399-2116.59-407.28-2117.22-407.145-2117.85-407.044-2118.49-406.98-2119.24-406.9-2120-406.87-2120.77-406.87ZM-2118.91-428.76-2116.07-431.61-2115.78-431.9-2115.48-431.61-2112.62-428.74-2112.33-428.45-2112.62-428.16-2115.46-425.32-2115.76-425.02-2116.05-425.32-2118.91-428.18-2119.2-428.47Z" fill="#FFFFFF" transform="translate(2544.57 521.92)"/><path d="M-2100-418.25-2098.91-414.48C-2098.73-413.759-2098.35-413.106-2097.81-412.6-2097.28-412.19-2096.61-411.985-2095.94-412.02L-2095.39-412.02C-2095.27-412.04-2095.14-412.04-2095.02-412.02-2094.91-411.998-2094.81-411.942-2094.73-411.86L-2094.52-411.64C-2094.45-411.559-2094.4-411.463-2094.37-411.36-2094.37-411.24-2094.31-411.14-2094.29-411.07-2094.28-410.954-2094.28-410.836-2094.29-410.72-2094.29-410.57-2094.29-410.46-2094.29-410.41-2094.28-410.313-2094.28-410.217-2094.29-410.12L-2094.29-409.42C-2094.29-409.42-2094.29-409.29-2094.29-409.06-2094.28-408.904-2094.28-408.746-2094.29-408.59-2094.29-408.49-2094.29-408.34-2094.29-408.13-2094.3-407.966-2094.33-407.804-2094.39-407.65-2094.45-407.526-2094.52-407.406-2094.6-407.29-2094.68-407.161-2094.8-407.059-2094.94-407-2095.1-406.946-2095.26-406.919-2095.43-406.92L-2095.76-406.92C-2096.78-406.879-2097.8-407.035-2098.76-407.38-2099.29-404.592-2100.89-402.122-2103.22-400.5-2106.07-398.662-2109.34-397.578-2112.72-397.35L-2113.41-397.27-2113.56-397.93-2114.4-401.25-2114.62-402.13-2113.72-402.23C-2110.17-402.577-2107.55-403.453-2105.87-404.86-2104.17-406.305-2103.25-408.463-2103.37-410.69-2103.42-412.736-2103.92-414.746-2104.83-416.58L-2105.21-417.37-2104.39-417.66-2101.06-418.81-2100.28-419.08Z" fill="#FFFFFF" transform="translate(2544.57 521.92)"/><path d="M-2094.26-406.87-2095.74-406.87C-2096.31-406.838-2096.86-407.112-2097.18-407.59-2097.51-408.122-2097.68-408.742-2097.66-409.37L-2097.66-409.74C-2097.68-410.32-2097.5-410.89-2097.16-411.36-2096.82-411.801-2096.29-412.048-2095.74-412.02L-2094.26-412.02C-2092.95-411.919-2091.64-412.099-2090.41-412.55-2089.56-413.04-2089.14-414.18-2089.14-415.95-2089.17-417.638-2089.4-419.316-2089.82-420.95L-2090.02-421.71-2089.26-421.89-2086.07-422.69-2085.37-422.88-2085.14-422.18C-2084.5-420.192-2084.16-418.118-2084.14-416.03-2084.14-412.58-2085.14-410.08-2087.19-408.55-2087.6-408.249-2088.04-407.995-2088.51-407.79-2089.03-407.567-2089.57-407.396-2090.13-407.28-2090.76-407.144-2091.39-407.044-2092.03-406.98-2092.73-406.9-2093.46-406.87-2094.26-406.87ZM-2093.51-400.97-2090.67-403.81-2090.38-404.11-2090.08-403.81-2087.22-400.95-2086.93-400.66-2087.22-400.37-2090.06-397.52-2090.36-397.23-2090.65-397.52-2093.51-400.39-2093.8-400.68Z" fill="#FFFFFF" transform="translate(2544.57 521.92)"/><path d="M-2061.39-409.39C-2061.36-408.828-2061.39-408.265-2061.48-407.71-2061.6-407.213-2062.05-406.865-2062.56-406.87L-2062.97-406.87C-2065.3-406.708-2067.57-407.578-2069.2-409.25-2070.62-410.85-2071.33-413.14-2071.33-416.12L-2071.33-434.95-2066.33-434.95-2066.33-416.16C-2066.42-415.038-2066.13-413.917-2065.51-412.98-2064.82-412.272-2063.85-411.905-2062.87-411.98L-2062.52-411.98C-2062.38-411.986-2062.23-411.959-2062.1-411.9-2061.99-411.856-2061.88-411.799-2061.78-411.73-2061.69-411.646-2061.62-411.539-2061.58-411.42-2061.52-411.314-2061.48-411.204-2061.44-411.09-2061.41-410.962-2061.39-410.832-2061.38-410.7-2061.37-410.58-2061.37-410.46-2061.38-410.34L-2061.38-409.34Z" fill="#FFFFFF" transform="translate(2544.57 521.92)"/><path d="M-2050.13-406.44C-2052.68-406.505-2055.11-407.538-2056.93-409.33-2057.67-408.554-2058.55-407.927-2059.53-407.48-2060.45-407.073-2061.44-406.865-2062.44-406.87L-2062.85-406.87C-2063.42-406.835-2063.97-407.115-2064.28-407.6-2064.6-408.134-2064.76-408.748-2064.74-409.37L-2064.74-409.74C-2064.76-410.318-2064.59-410.886-2064.26-411.36-2063.93-411.8-2063.4-412.048-2062.85-412.02L-2062.54-412.02C-2061.5-412.077-2060.56-412.652-2060.04-413.55-2059.48-414.335-2059.02-415.18-2058.65-416.07-2056.81-420.137-2054.34-422.18-2051.23-422.2-2049.05-422.285-2046.96-421.309-2045.62-419.58-2044.62-418.246-2043.94-416.704-2043.62-415.07-2043.52-414.569-2043.38-414.078-2043.2-413.6-2043.08-413.256-2042.89-412.937-2042.65-412.66-2042.48-412.456-2042.27-412.289-2042.03-412.17-2041.81-412.069-2041.56-412.017-2041.32-412.02L-2041.02-412.02C-2040.87-412.025-2040.73-411.998-2040.59-411.94-2040.48-411.896-2040.37-411.839-2040.27-411.77-2040.18-411.688-2040.11-411.585-2040.07-411.47-2040.01-411.33-2039.97-411.22-2039.94-411.13-2039.9-411.004-2039.87-410.873-2039.87-410.74-2039.87-410.573-2039.87-410.453-2039.87-410.38L-2039.87-410.02C-2039.87-409.84-2039.87-409.75-2039.87-409.74L-2039.87-409.37C-2039.85-408.866-2039.87-408.361-2039.93-407.86-2040-407.295-2040.47-406.866-2041.04-406.86L-2041.36-406.86C-2042.77-406.845-2044.12-407.461-2045.03-408.54-2046.34-407.121-2048.2-406.352-2050.13-406.44ZM-2050.35-411.5C-2049.94-411.482-2049.53-411.543-2049.14-411.68-2048.86-411.791-2048.64-412.007-2048.52-412.28-2048.38-412.64-2048.33-413.026-2048.36-413.41-2048.37-414.046-2048.5-414.675-2048.75-415.26-2048.96-415.765-2049.31-416.202-2049.75-416.52-2050.2-416.804-2050.72-416.944-2051.25-416.92-2052.54-416.92-2053.6-415.893-2054.43-413.84-2053.98-413.346-2053.49-412.895-2052.96-412.49-2052.55-412.178-2052.1-411.923-2051.62-411.73-2051.22-411.573-2050.78-411.495-2050.35-411.5Z" fill="#FFFFFF" transform="translate(2544.57 521.92)"/><path d="M-2025.58-414.27C-2025.51-414.67-2025.48-415.075-2025.49-415.48-2025.49-415.67-2025.49-415.87-2025.49-416.06-2025.48-416.25-2025.48-416.44-2025.49-416.63L-2025.49-417.22-2025.59-418.41-2025.67-419.17-2024.91-419.25-2021.71-419.64-2020.89-419.72-2020.83-418.92-2020.51-414.39C-2020.5-414.162-2020.47-413.934-2020.43-413.71-2020.39-413.527-2020.33-413.347-2020.27-413.17-2020.22-413.016-2020.14-412.871-2020.04-412.74-2019.95-412.616-2019.83-412.505-2019.71-412.41-2019.59-412.317-2019.45-412.246-2019.31-412.2-2019.15-412.146-2018.98-412.106-2018.81-412.08-2018.62-412.064-2018.42-412.064-2018.23-412.08-2017.6-412.037-2017-412.321-2016.63-412.83-2016.21-413.646-2016.02-414.564-2016.1-415.48-2016.16-417.1-2016.43-418.704-2016.92-420.25L-2017.15-421.01-2016.37-421.22-2013.03-422.12-2012.31-422.32-2012.1-421.59C-2011.45-419.655-2011.11-417.63-2011.1-415.59L-2011.1-415.47C-2011.1-412.277-2011.98-409.913-2013.74-408.38-2014.97-407.355-2016.55-406.828-2018.15-406.9-2018.82-406.889-2019.5-406.966-2020.15-407.13-2020.73-407.276-2021.29-407.516-2021.8-407.84-2022.29-408.157-2022.73-408.564-2023.07-409.04-2024.5-407.589-2026.47-406.805-2028.5-406.88-2031.02-406.88-2032.83-407.59-2033.93-409.01-2035.26-407.59-2037.34-406.88-2040.16-406.88L-2041.26-406.88C-2041.83-406.849-2042.37-407.123-2042.69-407.6-2043.03-408.132-2043.19-408.752-2043.17-409.38L-2043.17-409.75C-2043.19-410.33-2043.01-410.9-2042.67-411.37-2042.34-411.81-2041.81-412.058-2041.26-412.03L-2040.12-412.03C-2039.18-411.97-2038.25-412.164-2037.41-412.59-2036.81-412.962-2036.39-413.579-2036.28-414.28-2036.21-414.679-2036.17-415.084-2036.18-415.49-2036.18-415.67-2036.18-415.86-2036.18-416.05-2036.18-416.24-2036.18-416.43-2036.18-416.62-2036.18-416.81-2036.18-417.02-2036.18-417.23L-2036.29-418.42-2036.35-419.18-2035.61-419.26-2032.39-419.65-2031.57-419.73-2031.51-418.93-2031.2-414.4C-2031.21-413.723-2030.95-413.07-2030.47-412.59-2029.86-412.164-2029.12-411.966-2028.38-412.03-2027.67-411.986-2026.97-412.172-2026.38-412.56-2025.92-413.019-2025.64-413.624-2025.58-414.27ZM-2029.92-426.71-2027.14-429.49-2026.85-429.78-2026.55-429.49-2023.75-426.69-2023.67-426.6-2023.56-426.71-2020.79-429.49-2020.49-429.78-2020.2-429.49-2017.4-426.69-2017.11-426.39-2017.4-426.1-2020.18-423.32-2020.47-423.03-2020.76-423.32-2023.56-426.12-2023.65-426.21-2023.75-426.1-2026.53-423.32-2026.82-423.03-2027.12-423.32-2029.92-426.12-2030.21-426.41ZM-2026.78-431.95-2024-434.73-2023.71-435.02-2023.42-434.73-2020.62-431.93-2020.33-431.64-2020.62-431.35-2023.4-428.57-2023.69-428.27-2023.98-428.57-2026.78-431.37-2027.08-431.66Z" fill="#FFFFFF" transform="translate(2544.57 521.92)"/><path d="M-2451.23-337.22C-2453.57-340.707-2455.19-343.197-2456.09-344.69-2456.78-345.639-2457.24-346.729-2457.46-347.88-2457.26-349.031-2456.75-350.108-2456-351-2455.06-352.38-2453.43-354.52-2451.13-357.41L-2450.9-357.71-2445-357.71-2446-356.44C-2447.8-354.17-2449.22-352.26-2450.27-350.69-2450.94-349.817-2451.5-348.859-2451.92-347.84-2451.45-346.739-2450.89-345.681-2450.24-344.68-2449.2-342.92-2447.79-340.72-2446.02-338.08L-2445.2-336.87-2451-336.87ZM-2442.85-337.22C-2445.19-340.687-2446.82-343.173-2447.73-344.68-2448.42-345.628-2448.89-346.723-2449.1-347.88-2448.91-349.034-2448.42-350.118-2447.68-351.02-2446.74-352.4-2445.12-354.537-2442.81-357.43L-2442.58-357.73-2436.68-357.73-2437.68-356.46C-2438.88-354.933-2439.94-353.533-2440.86-352.26-2441.78-350.98-2442.45-350-2442.86-349.31-2443.16-348.889-2443.39-348.428-2443.56-347.94-2443.12-346.823-2442.56-345.754-2441.9-344.75-2440.86-342.97-2439.45-340.753-2437.66-338.1L-2436.86-336.89-2442.61-336.89Z" fill="#FFFFFF" transform="translate(2544.57 521.92)"/><path d="M-2406.14-351.07C-2404.41-349.311-2403.45-346.944-2403.45-344.48-2403.4-342.086-2404.7-339.865-2406.81-338.74-2409.01-337.487-2412.14-336.863-2416.2-336.87L-2419.73-336.87C-2424.84-336.87-2428.74-337.72-2431.41-339.42-2434.05-341.07-2435.59-344.029-2435.41-347.14-2435.42-348.978-2435.03-350.796-2434.27-352.47L-2433.96-353.17-2433.24-352.86-2430.17-351.53-2429.47-351.24-2429.74-350.54C-2430.13-349.618-2430.34-348.63-2430.35-347.63-2430.38-345.856-2429.38-344.226-2427.78-343.45-2426.08-342.497-2423.39-342.02-2419.7-342.02L-2416.19-342.02C-2414.98-342.009-2413.76-342.086-2412.56-342.25-2411.73-342.347-2410.93-342.559-2410.16-342.88-2409.67-343.088-2409.24-343.407-2408.89-343.81-2408.63-344.141-2408.49-344.549-2408.49-344.97-2408.61-346.251-2409.25-347.425-2410.27-348.21-2412.27-350.06-2414.01-351.59-2415.54-352.78-2416.28-353.329-2416.92-354.006-2417.43-354.78-2417.85-355.45-2418.08-356.227-2418.08-357.02-2418.1-357.961-2417.8-358.882-2417.23-359.63-2416.61-360.407-2415.78-360.993-2414.84-361.32L-2401.29-366.46-2400.23-366.87-2400.23-361.67-2400.74-361.47-2412.63-357.04C-2410.36-355.166-2408.2-353.173-2406.14-351.07Z" fill="#FFFFFF" transform="translate(2544.57 521.92)"/><path d="M-2391.38-348.35C-2390.3-345.994-2389.73-343.44-2389.69-340.85-2389.69-336.85-2390.9-333.73-2393.34-331.46-2395.78-329.19-2399.34-327.79-2404.04-327.3L-2404.72-327.22-2404.88-327.88-2405.72-331.2-2405.94-332.08-2405.04-332.18C-2401.48-332.53-2398.87-333.41-2397.19-334.81-2395.49-336.245-2394.56-338.398-2394.69-340.62-2394.73-342.671-2395.22-344.689-2396.13-346.53L-2396.5-347.32-2395.68-347.61-2392.36-348.76-2391.68-349.01Z" fill="#FFFFFF" transform="translate(2544.57 521.92)"/><path d="M-2376.71-339.39C-2376.68-338.828-2376.71-338.265-2376.8-337.71-2376.92-337.213-2377.37-336.865-2377.88-336.87L-2378.29-336.87C-2380.62-336.708-2382.89-337.578-2384.52-339.25-2385.94-340.85-2386.65-343.14-2386.65-346.12L-2386.65-364.95-2381.65-364.95-2381.65-346.16C-2381.74-345.038-2381.45-343.917-2380.83-342.98-2380.14-342.272-2379.17-341.905-2378.19-341.98L-2377.84-341.98C-2377.7-341.986-2377.55-341.959-2377.42-341.9-2377.31-341.856-2377.2-341.799-2377.1-341.73-2377.01-341.646-2376.94-341.539-2376.9-341.42-2376.85-341.312-2376.8-341.202-2376.76-341.09-2376.73-340.962-2376.71-340.832-2376.7-340.7-2376.69-340.58-2376.69-340.46-2376.7-340.34L-2376.7-339.34Z" fill="#FFFFFF" transform="translate(2544.57 521.92)"/><path d="M-2365.46-336.44C-2368.01-336.507-2370.44-337.54-2372.25-339.33-2372.99-338.557-2373.88-337.929-2374.85-337.48-2375.77-337.074-2376.76-336.867-2377.76-336.87L-2378.17-336.87C-2378.74-336.835-2379.29-337.115-2379.6-337.6-2379.92-338.133-2380.09-338.747-2380.07-339.37L-2380.07-339.74C-2380.09-340.319-2379.91-340.887-2379.58-341.36-2379.25-341.8-2378.72-342.048-2378.17-342.02L-2377.86-342.02C-2376.82-342.077-2375.88-342.652-2375.36-343.55-2374.81-344.337-2374.34-345.182-2373.97-346.07-2372.14-350.137-2369.67-352.18-2366.55-352.2-2364.37-352.285-2362.28-351.309-2360.94-349.58-2359.94-348.246-2359.26-346.704-2358.94-345.07-2358.85-344.567-2358.71-344.075-2358.52-343.6-2358.4-343.258-2358.21-342.94-2357.98-342.66-2357.8-342.456-2357.59-342.289-2357.35-342.17-2357.13-342.068-2356.89-342.016-2356.64-342.02L-2356.34-342.02C-2356.2-342.024-2356.05-341.997-2355.92-341.94-2355.8-341.896-2355.69-341.839-2355.59-341.77-2355.5-341.688-2355.43-341.585-2355.39-341.47-2355.34-341.33-2355.29-341.22-2355.26-341.13-2355.22-341.003-2355.2-340.872-2355.19-340.74-2355.19-340.573-2355.19-340.453-2355.19-340.38L-2355.19-340.02C-2355.19-339.84-2355.19-339.75-2355.19-339.74L-2355.19-339.37C-2355.17-338.866-2355.19-338.361-2355.25-337.86-2355.32-337.295-2355.79-336.866-2356.36-336.86L-2356.68-336.86C-2358.09-336.845-2359.44-337.461-2360.35-338.54-2361.66-337.12-2363.53-336.351-2365.46-336.44ZM-2365.67-341.5C-2365.26-341.483-2364.85-341.544-2364.46-341.68-2364.18-341.791-2363.96-342.007-2363.84-342.28-2363.71-342.641-2363.65-343.026-2363.68-343.41-2363.69-344.046-2363.82-344.675-2364.07-345.26-2364.28-345.767-2364.62-346.204-2365.07-346.52-2365.51-346.806-2366.03-346.946-2366.56-346.92-2367.85-346.92-2368.91-345.893-2369.74-343.84-2369.29-343.344-2368.8-342.892-2368.27-342.49-2367.86-342.178-2367.41-341.923-2366.93-341.73-2366.53-341.575-2366.1-341.497-2365.67-341.5Z" fill="#FFFFFF" transform="translate(2544.57 521.92)"/><path d="M-2335.91-344.39C-2335.9-343.912-2335.78-343.443-2335.58-343.01-2335.43-342.684-2335.17-342.421-2334.84-342.27-2334.44-342.104-2334.01-342.025-2333.58-342.04-2332.96-341.987-2332.35-342.246-2331.95-342.73-2331.54-343.467-2331.37-344.311-2331.45-345.15-2331.45-346.15-2331.45-346.98-2331.53-347.63L-2331.65-348.82-2331.71-349.56-2330.96-349.66-2327.74-350.03-2326.94-350.13-2326.86-349.33-2326.55-345.64C-2326.52-345.064-2326.42-344.493-2326.25-343.94-2326.13-343.528-2325.93-343.144-2325.66-342.81-2325.44-342.54-2325.15-342.333-2324.82-342.21-2324.47-342.077-2324.1-342.012-2323.72-342.02L-2323.37-342.02C-2323.22-342.027-2323.07-342-2322.93-341.94-2322.82-341.896-2322.71-341.839-2322.61-341.77-2322.52-341.686-2322.45-341.584-2322.4-341.47-2322.34-341.33-2322.3-341.22-2322.27-341.13-2322.24-341.002-2322.21-340.871-2322.2-340.74-2322.19-340.62-2322.19-340.5-2322.2-340.38-2322.2-340.32-2322.2-340.2-2322.2-340.02-2322.2-339.84-2322.2-339.75-2322.2-339.74L-2322.2-339.37C-2322.18-338.873-2322.2-338.375-2322.26-337.88-2322.33-337.311-2322.81-336.881-2323.38-336.88L-2323.69-336.88C-2325.99-336.88-2327.69-337.55-2328.63-338.88-2329.19-338.204-2329.9-337.675-2330.71-337.34-2331.59-337-2332.53-336.833-2333.47-336.85-2334.45-336.831-2335.43-337.019-2336.34-337.4-2337.16-337.759-2337.88-338.32-2338.42-339.03-2339.85-337.565-2341.83-336.773-2343.88-336.85-2346.4-336.85-2348.21-337.56-2349.31-338.98-2350.64-337.56-2352.72-336.85-2355.54-336.85L-2356.64-336.85C-2357.21-336.817-2357.76-337.092-2358.07-337.57-2358.4-338.102-2358.57-338.722-2358.55-339.35L-2358.55-339.72C-2358.57-340.301-2358.4-340.872-2358.05-341.34-2357.72-341.78-2357.19-342.028-2356.64-342L-2355.51-342C-2353.24-342-2351.95-342.75-2351.64-344.25-2351.58-344.65-2351.55-345.055-2351.56-345.46-2351.56-345.99-2351.56-346.57-2351.64-347.2L-2351.76-348.39-2351.81-349.15-2351.07-349.23-2347.85-349.62-2347.03-349.7-2346.97-348.9-2346.66-344.37C-2346.68-343.692-2346.41-343.038-2345.93-342.56-2345.32-342.132-2344.58-341.934-2343.84-342-2343.44-341.993-2343.05-342.036-2342.66-342.13-2342.35-342.203-2342.06-342.343-2341.81-342.54-2341.58-342.732-2341.38-342.966-2341.24-343.23-2341.07-343.543-2340.96-343.881-2340.9-344.23-2340.83-344.63-2340.81-345.035-2340.82-345.44-2340.82-346.021-2340.84-346.602-2340.9-347.18L-2340.99-348.37-2341.07-349.13-2340.31-349.21-2337.11-349.6-2336.29-349.68-2336.23-348.88Z" fill="#FFFFFF" transform="translate(2544.57 521.92)"/><path d="M-2308.19-339.37-2308.19-338.65C-2308.19-338.56-2308.19-338.42-2308.19-338.25-2308.2-338.108-2308.22-337.968-2308.25-337.83-2308.28-337.702-2308.32-337.578-2308.38-337.46-2308.43-337.34-2308.5-337.231-2308.59-337.14-2308.69-337.057-2308.79-336.99-2308.91-336.94-2309.05-336.891-2309.19-336.867-2309.34-336.87L-2309.54-336.87C-2311.59-336.719-2313.6-337.541-2314.95-339.09-2316.44-337.61-2318.67-336.87-2321.63-336.87L-2323.63-336.87C-2324.2-336.834-2324.75-337.115-2325.05-337.6-2325.38-338.131-2325.54-338.747-2325.52-339.37L-2325.52-339.74C-2325.53-340.122-2325.46-340.502-2325.33-340.86-2325.2-341.193-2324.98-341.481-2324.69-341.69-2324.38-341.915-2324.01-342.032-2323.63-342.02L-2321.7-342.02C-2319.12-342.02-2317.71-342.667-2317.48-343.96-2317.39-344.448-2317.35-344.944-2317.36-345.44-2317.36-346.107-2317.38-346.707-2317.42-347.24L-2317.52-348.84-2317.52-349.58-2316.78-349.66-2313.56-350.05-2312.76-350.13-2312.7-349.33-2312.39-344.8C-2312.39-344.016-2312.11-343.259-2311.59-342.67-2310.97-342.186-2310.2-341.954-2309.42-342.02L-2309.26-342.02C-2309.09-342.022-2308.93-341.991-2308.77-341.93-2308.63-341.878-2308.51-341.779-2308.44-341.65-2308.36-341.52-2308.3-341.4-2308.24-341.29-2308.17-341.142-2308.13-340.983-2308.12-340.82-2308.12-340.62-2308.12-340.47-2308.12-340.38L-2308.12-339.38ZM-2324.25-330.97-2321.4-333.81-2321.11-334.11-2320.82-333.81-2317.96-330.95-2317.96-330.95-2317.91-330.95-2315.07-333.79-2314.78-334.09-2314.49-333.79-2311.62-330.93-2311.33-330.64-2311.62-330.35-2314.47-327.5-2314.76-327.21-2315.05-327.5-2317.91-330.37-2317.91-330.37-2317.91-330.37-2320.75-327.52-2321.04-327.23-2321.33-327.52-2324.2-330.39-2324.49-330.68Z" fill="#FFFFFF" transform="translate(2544.57 521.92)"/><path d="M-2308.17-336.87-2309.66-336.87C-2310.23-336.839-2310.77-337.113-2311.09-337.59-2311.42-338.122-2311.59-338.742-2311.57-339.37L-2311.57-339.74C-2311.59-340.32-2311.41-340.89-2311.07-341.36-2310.74-341.8-2310.21-342.048-2309.66-342.02L-2308.17-342.02C-2306.86-341.919-2305.55-342.099-2304.32-342.55-2303.48-343.04-2303.05-344.18-2303.05-345.95-2303.08-347.639-2303.31-349.318-2303.74-350.95L-2303.93-351.71-2303.17-351.89-2299.99-352.69-2299.28-352.88-2299.05-352.18C-2298.41-350.192-2298.07-348.118-2298.05-346.03-2298.05-342.58-2299.05-340.08-2301.05-338.55-2301.46-338.249-2301.9-337.995-2302.37-337.79-2302.89-337.57-2303.44-337.399-2303.99-337.28-2304.62-337.145-2305.25-337.044-2305.89-336.98-2306.64-336.9-2307.38-336.87-2308.17-336.87ZM-2307.42-330.97-2304.58-333.81-2304.29-334.11-2304-333.81-2301.13-330.95-2300.84-330.66-2301.13-330.37-2303.98-327.52-2304.27-327.23-2304.56-327.52-2307.42-330.39-2307.72-330.68Z" fill="#FFFFFF" transform="translate(2544.57 521.92)"/><path d="M-2291.31-336.89-2296.64-336.89-2295.84-338.1C-2295.09-339.19-2294.4-340.24-2293.77-341.24-2293.14-342.24-2292.58-343.12-2292.14-343.86-2291.7-344.6-2291.3-345.26-2290.96-345.86-2290.62-346.46-2290.38-346.86-2290.22-347.25-2290.1-347.476-2290.01-347.714-2289.94-347.96-2290.37-348.972-2290.93-349.924-2291.61-350.79-2292.61-352.33-2294.07-354.22-2295.84-356.48L-2296.84-357.75-2290.94-357.75-2290.71-357.45C-2288.42-354.57-2286.8-352.437-2285.85-351.05-2285.11-350.143-2284.61-349.057-2284.42-347.9-2284.62-346.746-2285.09-345.654-2285.78-344.71-2286.68-343.217-2288.31-340.727-2290.67-337.24L-2290.91-336.91ZM-2282.95-336.89-2288.28-336.89-2287.46-338.1C-2285.7-340.767-2284.3-342.967-2283.25-344.7-2282.59-345.7-2282.03-346.757-2281.56-347.86-2281.66-348.187-2281.81-348.5-2281.99-348.79-2282.25-349.25-2282.62-349.79-2283.09-350.54-2283.56-351.29-2284.19-352.11-2284.95-353.15-2285.71-354.19-2286.55-355.28-2287.48-356.46L-2288.48-357.73-2282.59-357.73-2282.35-357.43C-2280.05-354.54-2278.42-352.43-2277.48-351.02-2276.74-350.118-2276.25-349.034-2276.06-347.88-2276.28-346.729-2276.74-345.639-2277.43-344.69-2278.33-343.197-2279.95-340.707-2282.29-337.22L-2282.53-336.89Z" fill="#FFFFFF" transform="translate(2544.57 521.92)"/><path d="M-2235-351.07C-2233.28-349.31-2232.31-346.945-2232.3-344.48-2232.25-342.085-2233.56-339.866-2235.67-338.74-2237.87-337.487-2241-336.863-2245.06-336.87L-2248.59-336.87C-2253.7-336.87-2257.6-337.72-2260.27-339.42-2262.91-341.07-2264.45-344.029-2264.27-347.14-2264.28-348.978-2263.89-350.796-2263.13-352.47L-2262.82-353.17-2262.1-352.86-2259.03-351.53-2258.33-351.24-2258.6-350.54C-2258.99-349.618-2259.2-348.63-2259.21-347.63-2259.24-345.856-2258.24-344.226-2256.64-343.45-2254.94-342.497-2252.25-342.02-2248.56-342.02L-2245.05-342.02C-2243.84-342.009-2242.62-342.086-2241.42-342.25-2240.59-342.347-2239.79-342.559-2239.02-342.88-2238.53-343.088-2238.1-343.407-2237.75-343.81-2237.49-344.141-2237.35-344.549-2237.35-344.97-2237.47-346.251-2238.11-347.425-2239.13-348.21-2241.13-350.06-2242.87-351.59-2244.4-352.78-2245.14-353.329-2245.78-354.006-2246.29-354.78-2246.71-355.452-2246.94-356.227-2246.94-357.02-2246.96-357.961-2246.66-358.882-2246.09-359.63-2245.47-360.407-2244.64-360.993-2243.7-361.32L-2230.15-366.46-2229.09-366.87-2229.09-361.67-2229.6-361.47-2241.49-357.04C-2239.22-355.166-2237.06-353.173-2235-351.07ZM-2229.55-368.58-2245.16-362.58-2245.72-362.35-2245.72-365.76-2245.45-365.86-2229.84-371.86-2229.28-372.09-2229.28-368.68Z" fill="#FFFFFF" transform="translate(2544.57 521.92)"/><path d="M-2220.25-348.35C-2219.17-345.995-2218.59-343.441-2218.55-340.85-2218.55-336.85-2219.77-333.73-2222.21-331.46-2224.65-329.19-2228.21-327.79-2232.91-327.3L-2233.59-327.22-2233.75-327.88-2234.59-331.2-2234.8-332.08-2233.91-332.18C-2230.35-332.527-2227.73-333.403-2226.05-334.81-2224.35-336.248-2223.43-338.399-2223.55-340.62-2223.6-342.672-2224.09-344.689-2225-346.53L-2225.37-347.32-2224.55-347.61-2221.23-348.76-2220.55-349.01Z" fill="#FFFFFF" transform="translate(2544.57 521.92)"/><path d="M-2204.48-348.25-2203.39-344.48C-2203.22-343.758-2202.84-343.103-2202.29-342.6-2201.76-342.189-2201.09-341.983-2200.42-342.02L-2199.87-342.02C-2199.75-342.04-2199.62-342.04-2199.5-342.02-2199.39-341.995-2199.29-341.94-2199.21-341.86L-2199-341.64C-2198.93-341.558-2198.89-341.462-2198.86-341.36L-2198.77-341.07C-2198.76-340.954-2198.76-340.836-2198.77-340.72-2198.77-340.57-2198.77-340.46-2198.77-340.41-2198.76-340.313-2198.76-340.217-2198.77-340.12L-2198.77-339.42C-2198.77-339.42-2198.77-339.29-2198.77-339.06-2198.76-338.904-2198.76-338.746-2198.77-338.59-2198.77-338.49-2198.77-338.34-2198.77-338.13-2198.78-337.965-2198.82-337.803-2198.88-337.65-2198.94-337.526-2199.01-337.406-2199.08-337.29-2199.16-337.163-2199.28-337.062-2199.42-337-2199.58-336.947-2199.74-336.92-2199.91-336.92L-2200.24-336.92C-2201.26-336.879-2202.28-337.035-2203.24-337.38-2203.77-334.589-2205.38-332.118-2207.71-330.5-2210.56-328.662-2213.83-327.578-2217.21-327.35L-2217.89-327.27-2218.05-327.93-2218.89-331.25-2219.1-332.13-2218.2-332.23C-2214.65-332.577-2212.03-333.453-2210.35-334.86-2208.65-336.305-2207.73-338.463-2207.85-340.69-2207.9-342.737-2208.41-344.748-2209.32-346.58L-2209.69-347.37-2208.87-347.66-2205.55-348.81-2204.77-349.08ZM-2211.21-355.84-2208.28-358.77-2207.97-359.08-2207.67-358.77-2204.67-355.82-2204.37-355.51-2204.67-355.21-2207.61-352.27-2207.91-351.97-2208.22-352.27-2211.17-355.27-2211.48-355.58Z" fill="#FFFFFF" transform="translate(2544.57 521.92)"/><path d="M-2198.72-336.87-2200.2-336.87C-2200.77-336.838-2201.32-337.112-2201.64-337.59-2201.97-338.122-2202.14-338.742-2202.12-339.37L-2202.12-339.74C-2202.14-340.32-2201.96-340.89-2201.62-341.36-2201.29-341.803-2200.75-342.051-2200.2-342.02L-2198.72-342.02C-2197.41-341.919-2196.1-342.099-2194.87-342.55-2194.02-343.04-2193.6-344.18-2193.6-345.95-2193.63-347.639-2193.86-349.318-2194.29-350.95L-2194.48-351.71-2193.72-351.89-2190.54-352.69-2189.83-352.88-2189.6-352.18C-2188.96-350.192-2188.62-348.118-2188.6-346.03-2188.6-342.58-2189.6-340.08-2191.65-338.55-2192.06-338.249-2192.5-337.995-2192.97-337.79-2193.49-337.567-2194.03-337.396-2194.59-337.28-2195.22-337.144-2195.85-337.044-2196.49-336.98-2197.19-336.9-2197.92-336.87-2198.72-336.87ZM-2197.97-330.97-2195.13-333.81-2194.84-334.11-2194.54-333.81-2191.68-330.95-2191.39-330.66-2191.68-330.37-2194.52-327.52-2194.82-327.23-2195.11-327.52-2197.97-330.39-2198.26-330.68Z" fill="#FFFFFF" transform="translate(2544.57 521.92)"/><path d="M-2170.61-356.94C-2168-355.138-2165.66-352.966-2163.67-350.49-2162.25-348.774-2161.42-346.638-2161.33-344.41-2161.26-341.791-2162.64-339.347-2164.92-338.06-2166.29-337.273-2167.86-336.885-2169.44-336.94-2170.95-336.902-2172.45-337.217-2173.81-337.86-2174.99-338.413-2175.96-339.318-2176.6-340.45-2177.26-341.677-2177.59-343.057-2177.54-344.45-2177.54-347.15-2176.12-349.99-2173.28-352.94L-2173.52-353.16-2174.06-353.62-2173.63-354.21-2171.63-356.81-2171.18-357.43ZM-2169.69-349.21C-2170.54-348.444-2171.29-347.57-2171.92-346.61-2172.35-345.984-2172.59-345.255-2172.64-344.5-2172.65-344.127-2172.6-343.755-2172.48-343.4-2172.38-343.098-2172.2-342.83-2171.95-342.63-2171.65-342.405-2171.31-342.248-2170.95-342.17-2170.46-342.061-2169.95-342.01-2169.45-342.02-2168.57-341.937-2167.69-342.148-2166.94-342.62-2166.41-343.105-2166.15-343.809-2166.22-344.52-2166.3-345.257-2166.6-345.952-2167.08-346.52-2167.84-347.519-2168.71-348.422-2169.69-349.21Z" fill="#FFFFFF" transform="translate(2544.57 521.92)"/><path d="M-2150.83-348.25-2149.74-344.48C-2149.57-343.758-2149.19-343.103-2148.64-342.6-2148.11-342.19-2147.44-341.985-2146.77-342.02L-2146.22-342.02C-2146.1-342.04-2145.97-342.04-2145.85-342.02-2145.74-341.995-2145.64-341.94-2145.56-341.86L-2145.35-341.64C-2145.28-341.558-2145.24-341.462-2145.21-341.36L-2145.12-341.07C-2145.11-340.954-2145.11-340.836-2145.12-340.72-2145.12-340.57-2145.12-340.46-2145.12-340.41-2145.11-340.313-2145.11-340.217-2145.12-340.12L-2145.12-339.42C-2145.12-339.42-2145.12-339.29-2145.12-339.06-2145.11-338.904-2145.11-338.746-2145.12-338.59-2145.12-338.49-2145.12-338.34-2145.12-338.13-2145.13-337.964-2145.16-337.802-2145.23-337.65-2145.29-337.526-2145.36-337.406-2145.43-337.29-2145.51-337.163-2145.63-337.062-2145.77-337-2145.93-336.947-2146.09-336.92-2146.26-336.92L-2146.59-336.92C-2147.61-336.879-2148.63-337.035-2149.59-337.38-2150.12-334.592-2151.72-332.122-2154.05-330.5-2156.9-328.664-2160.17-327.58-2163.56-327.35L-2164.24-327.27-2164.4-327.93-2165.24-331.25-2165.45-332.13-2164.55-332.23C-2161-332.577-2158.38-333.453-2156.7-334.86-2155-336.305-2154.08-338.463-2154.2-340.69-2154.25-342.737-2154.76-344.748-2155.67-346.58L-2156.04-347.37-2155.22-347.66-2151.9-348.81-2151.12-349.08ZM-2157.56-355.84-2154.63-358.77-2154.32-359.08-2154.02-358.77-2151.02-355.82-2150.72-355.51-2151.02-355.21-2153.96-352.27-2154.26-351.97-2154.57-352.27-2157.52-355.27-2157.83-355.58Z" fill="#FFFFFF" transform="translate(2544.57 521.92)"/><path d="M-2145.07-336.87-2146.55-336.87C-2147.12-336.838-2147.67-337.112-2147.99-337.59-2148.32-338.122-2148.49-338.742-2148.47-339.37L-2148.47-339.74C-2148.49-340.32-2148.31-340.89-2147.97-341.36-2147.64-341.803-2147.1-342.051-2146.55-342.02L-2145.07-342.02C-2143.76-341.919-2142.45-342.099-2141.22-342.55-2140.38-343.04-2139.95-344.18-2139.95-345.95-2139.98-347.639-2140.21-349.318-2140.64-350.95L-2140.83-351.71-2140.07-351.89-2136.89-352.69-2136.18-352.88-2135.95-352.18C-2135.31-350.192-2134.97-348.118-2134.95-346.03-2134.95-342.58-2135.95-340.08-2138-338.55-2138.41-338.249-2138.85-337.995-2139.32-337.79-2139.84-337.57-2140.39-337.399-2140.94-337.28-2141.57-337.145-2142.2-337.044-2142.84-336.98-2143.54-336.9-2144.28-336.87-2145.07-336.87ZM-2147.14-330.97-2144.3-333.81-2144.01-334.11-2143.71-333.81-2140.85-330.95-2140.85-330.95-2140.85-330.95-2138.01-333.79-2137.71-334.09-2137.42-333.79-2134.56-330.93-2134.27-330.64-2134.56-330.35-2137.4-327.5-2137.69-327.21-2137.99-327.5-2140.85-330.37-2140.85-330.37-2140.85-330.37-2143.69-327.52-2143.99-327.23-2144.28-327.52-2147.14-330.39-2147.43-330.68Z" fill="#FFFFFF" transform="translate(2544.57 521.92)"/><path d="M-2121.23-339.39C-2121.2-338.828-2121.23-338.264-2121.33-337.71-2121.44-337.212-2121.89-336.862-2122.4-336.87L-2122.81-336.87C-2125.14-336.706-2127.42-337.577-2129.04-339.25-2130.46-340.85-2131.17-343.14-2131.17-346.12L-2131.17-364.95-2126.17-364.95-2126.17-346.16C-2126.27-345.037-2125.98-343.914-2125.35-342.98-2124.66-342.272-2123.69-341.905-2122.71-341.98L-2122.36-341.98C-2122.22-341.984-2122.07-341.957-2121.94-341.9-2121.83-341.854-2121.72-341.797-2121.62-341.73-2121.53-341.645-2121.47-341.538-2121.43-341.42-2121.37-341.314-2121.33-341.204-2121.29-341.09-2121.25-340.963-2121.23-340.832-2121.22-340.7-2121.21-340.58-2121.21-340.46-2121.22-340.34L-2121.22-339.34Z" fill="#FFFFFF" transform="translate(2544.57 521.92)"/><path d="M-2122.68-336.87C-2123.25-336.839-2123.79-337.113-2124.11-337.59-2124.44-338.122-2124.61-338.742-2124.59-339.37L-2124.59-339.74C-2124.61-340.32-2124.43-340.89-2124.09-341.36-2123.76-341.8-2123.23-342.048-2122.68-342.02L-2121.5-342.02C-2117.36-342.02-2112.21-343.603-2106.05-346.77-2106.72-347.03-2107.58-347.37-2108.63-347.77-2110.19-348.508-2111.85-349.01-2113.55-349.26-2114.74-349.266-2115.86-348.696-2116.55-347.73L-2117.1-347.01-2117.49-346.52-2118.06-346.8-2121.06-348.28-2121.83-348.65-2121.38-349.39-2121.06-349.92C-2120.28-351.28-2119.16-352.419-2117.82-353.23-2116.51-353.988-2115.02-354.385-2113.51-354.38-2111.31-354.267-2109.17-353.666-2107.24-352.62-2103.24-350.69-2100.24-349.68-2098.09-349.62L-2097.35-349.62-2097.35-348.86-2097.35-345.48-2097.35-344.76-2098.05-344.7C-2099.46-344.58-2102.13-343.487-2106.05-341.42-2111.74-338.413-2116.94-336.91-2121.66-336.91ZM-2111.87-330.97-2109.03-333.81-2108.74-334.11-2108.44-333.81-2105.58-330.95-2105.29-330.66-2105.58-330.37-2108.42-327.52-2108.71-327.23-2109.01-327.52-2111.87-330.39-2112.16-330.68Z" fill="#FFFFFF" transform="translate(2544.57 521.92)"/><path d="M-2326-266.89C-2327.92-266.899-2329.84-267.086-2331.73-267.45L-2332.37-267.57-2332.37-272.78-2331.43-272.59C-2329.61-272.217-2327.76-272.033-2325.91-272.04-2325.19-272.037-2324.47-272.074-2323.75-272.15-2323.23-272.2-2322.71-272.297-2322.21-272.44-2321.85-272.541-2321.52-272.696-2321.21-272.9-2320.99-273.047-2320.81-273.238-2320.67-273.46-2320.57-273.648-2320.52-273.857-2320.52-274.07-2320.59-274.693-2320.74-275.304-2320.97-275.89-2321.27-276.8-2321.69-277.89-2322.23-279.23L-2324.72-285.09-2325.01-285.79-2324.32-286.1-2321.1-287.59-2320.36-287.94-2320.05-287.16-2316.18-277.35C-2315.66-275.926-2314.95-274.58-2314.07-273.35-2313.38-272.49-2312.79-272.05-2312.29-272.05L-2311.9-272.05C-2311.76-272.054-2311.61-272.027-2311.48-271.97-2311.37-271.924-2311.27-271.867-2311.17-271.8-2311.08-271.718-2311-271.615-2310.96-271.5-2310.91-271.39-2310.86-271.277-2310.83-271.16-2310.79-271.033-2310.77-270.902-2310.76-270.77-2310.75-270.65-2310.75-270.53-2310.76-270.41L-2310.76-269.41C-2310.75-269.035-2310.78-268.66-2310.84-268.29-2310.86-268.021-2310.92-267.758-2311.03-267.51L-2311.03-267.51-2311.03-267.51C-2311.19-267.165-2311.53-266.941-2311.91-266.93L-2312.3-266.93C-2314.38-266.896-2316.33-267.897-2317.52-269.6-2319.4-267.77-2322.23-266.89-2326-266.89Z" fill="#FFFFFF" transform="translate(2544.57 521.92)"/><path d="M-2296.69-269.37-2296.69-268.65C-2296.68-268.517-2296.68-268.383-2296.69-268.25-2296.7-268.108-2296.72-267.968-2296.75-267.83-2296.78-267.703-2296.82-267.578-2296.87-267.46-2296.92-267.34-2297-267.231-2297.09-267.14-2297.18-267.055-2297.29-266.988-2297.41-266.94-2297.55-266.89-2297.69-266.866-2297.84-266.87L-2298.03-266.87C-2300.08-266.718-2302.09-267.54-2303.44-269.09-2304.94-267.61-2307.17-266.87-2310.12-266.87L-2312.12-266.87C-2312.69-266.837-2313.24-267.116-2313.54-267.6-2313.86-268.133-2314.03-268.747-2314.01-269.37L-2314.01-269.74C-2314.01-270.122-2313.95-270.5-2313.82-270.86-2313.69-271.191-2313.47-271.478-2313.18-271.69-2312.87-271.914-2312.5-272.03-2312.12-272.02L-2310.18-272.02C-2307.6-272.02-2306.18-272.67-2305.96-273.96-2305.88-274.449-2305.85-274.944-2305.85-275.44-2305.85-276.08-2305.85-276.68-2305.9-277.24L-2306-278.84-2306.06-279.58-2305.32-279.66-2302.1-280.05-2301.3-280.13-2301.24-279.33-2300.92-274.8C-2300.93-274.015-2300.64-273.254-2300.12-272.67-2299.51-272.186-2298.74-271.954-2297.96-272.02L-2297.8-272.02C-2297.63-272.023-2297.47-271.992-2297.31-271.93-2297.17-271.878-2297.05-271.779-2296.98-271.65L-2296.77-271.29C-2296.71-271.14-2296.67-270.981-2296.66-270.82-2296.66-270.62-2296.66-270.47-2296.66-270.38L-2296.66-269.38ZM-2312.69-260.97-2309.85-263.81-2309.56-264.11-2309.27-263.81-2306.4-260.95-2306.4-260.95-2306.4-260.95-2303.56-263.79-2303.27-264.09-2302.97-263.79-2300.11-260.93-2299.82-260.64-2300.11-260.35-2302.95-257.5-2303.25-257.21-2303.54-257.5-2306.4-260.37-2306.4-260.37-2306.4-260.37-2309.25-257.52-2309.54-257.23-2309.83-257.52-2312.69-260.39-2312.99-260.68Z" fill="#FFFFFF" transform="translate(2544.57 521.92)"/><path d="M-2282.68-269.37-2282.68-268.65C-2282.68-268.56-2282.68-268.42-2282.68-268.25-2282.68-268.08-2282.68-267.94-2282.74-267.83-2282.77-267.704-2282.82-267.58-2282.87-267.46-2282.92-267.342-2282.99-267.234-2283.08-267.14-2283.18-267.058-2283.29-266.99-2283.41-266.94-2283.55-266.89-2283.69-266.866-2283.84-266.87L-2284.03-266.87C-2286.08-266.719-2288.09-267.541-2289.44-269.09-2290.94-267.61-2293.16-266.87-2296.12-266.87L-2298.12-266.87C-2298.69-266.833-2299.24-267.113-2299.55-267.6-2299.87-268.133-2300.04-268.747-2300.02-269.37L-2300.02-269.74C-2300.02-270.123-2299.96-270.502-2299.82-270.86-2299.69-271.19-2299.47-271.477-2299.19-271.69-2298.88-271.914-2298.5-272.03-2298.12-272.02L-2296.19-272.02C-2293.61-272.02-2292.2-272.667-2291.97-273.96-2291.88-274.448-2291.84-274.944-2291.85-275.44-2291.85-276.107-2291.87-276.707-2291.91-277.24L-2292.01-278.84-2292.07-279.58-2291.33-279.66-2288.1-280.05-2287.3-280.13-2287.24-279.33-2286.93-274.8C-2286.94-274.016-2286.65-273.257-2286.13-272.67-2285.51-272.186-2284.74-271.954-2283.96-272.02L-2283.81-272.02C-2283.64-272.024-2283.48-271.993-2283.32-271.93-2283.18-271.884-2283.06-271.783-2282.99-271.65L-2282.78-271.29C-2282.71-271.142-2282.67-270.983-2282.66-270.82-2282.66-270.62-2282.66-270.47-2282.66-270.38L-2282.66-269.38ZM-2298.49-287.12-2295.64-289.97-2295.35-290.26-2295.06-289.97-2292.2-287.1-2292.2-287.1-2292.2-287.1-2289.36-289.95-2289.07-290.24-2288.78-289.95-2285.91-287.08-2285.62-286.79-2285.91-286.5-2288.75-283.66-2289.05-283.36-2289.34-283.66-2292.2-286.52-2292.2-286.52-2292.2-286.52-2295.04-283.68-2295.33-283.38-2295.62-283.68-2298.49-286.54-2298.78-286.83Z" fill="#FFFFFF" transform="translate(2544.57 521.92)"/><path d="M-2263.43-274.39C-2263.42-273.912-2263.3-273.443-2263.1-273.01-2262.95-272.684-2262.69-272.421-2262.36-272.27-2261.96-272.104-2261.53-272.025-2261.1-272.04-2260.48-271.989-2259.87-272.247-2259.47-272.73-2259.06-273.467-2258.89-274.311-2258.97-275.15-2258.97-276.15-2258.97-276.98-2259.05-277.63L-2259.17-278.82-2259.23-279.56-2258.48-279.66-2255.26-280.03-2254.46-280.13-2254.38-279.33-2254.07-275.64C-2254.04-275.064-2253.94-274.493-2253.77-273.94-2253.65-273.528-2253.45-273.144-2253.18-272.81-2252.96-272.54-2252.67-272.333-2252.34-272.21-2251.99-272.076-2251.62-272.011-2251.24-272.02L-2250.89-272.02C-2250.74-272.027-2250.59-272-2250.45-271.94-2250.34-271.896-2250.23-271.839-2250.13-271.77-2250.04-271.686-2249.97-271.584-2249.92-271.47-2249.86-271.33-2249.82-271.22-2249.79-271.13-2249.76-271.002-2249.73-270.871-2249.72-270.74-2249.72-270.57-2249.72-270.45-2249.72-270.38-2249.72-270.31-2249.72-270.2-2249.72-270.02L-2249.72-269.37C-2249.7-268.873-2249.72-268.375-2249.78-267.88-2249.85-267.311-2250.33-266.881-2250.9-266.88L-2251.21-266.88C-2253.51-266.88-2255.21-267.55-2256.15-268.88-2256.71-268.204-2257.42-267.675-2258.23-267.34-2259.11-267-2260.05-266.833-2260.99-266.85-2261.97-266.831-2262.95-267.019-2263.86-267.4-2264.68-267.759-2265.4-268.32-2265.94-269.03-2267.37-267.567-2269.35-266.776-2271.4-266.85-2273.92-266.85-2275.73-267.56-2276.83-268.98-2278.16-267.56-2280.24-266.85-2283.06-266.85L-2284.16-266.85C-2284.73-266.817-2285.28-267.092-2285.59-267.57-2285.92-268.102-2286.09-268.722-2286.07-269.35L-2286.07-269.72C-2286.09-270.301-2285.92-270.872-2285.57-271.34-2285.24-271.78-2284.71-272.028-2284.16-272L-2283.03-272C-2280.76-272-2279.47-272.75-2279.16-274.25-2279.1-274.65-2279.07-275.055-2279.08-275.46-2279.08-275.99-2279.08-276.57-2279.16-277.2L-2279.28-278.39-2279.33-279.15-2278.59-279.23-2275.37-279.62-2274.55-279.7-2274.49-278.9-2274.18-274.37C-2274.2-273.694-2273.94-273.039-2273.46-272.56-2272.85-272.136-2272.11-271.937-2271.37-272-2270.97-271.992-2270.57-272.036-2270.18-272.13-2269.87-272.203-2269.58-272.343-2269.33-272.54-2269.1-272.732-2268.9-272.966-2268.76-273.23-2268.59-273.543-2268.48-273.881-2268.42-274.23-2268.35-274.63-2268.33-275.035-2268.34-275.44-2268.34-276.021-2268.36-276.602-2268.42-277.18L-2268.51-278.37-2268.59-279.13-2267.83-279.21-2264.63-279.6-2263.81-279.68-2263.75-278.88Z" fill="#FFFFFF" transform="translate(2544.57 521.92)"/><path d="M-2240.32-283.27-2240.98-283.6-2241.75-283.96-2239.46-288.14-2238.8-287.8C-2229.58-283.32-2224.98-278.933-2224.99-274.64-2224.99-273.615-2225.18-272.599-2225.54-271.64-2225.87-270.76-2226.37-269.952-2227-269.26-2228.43-267.66-2230.56-266.86-2233.39-266.86-2235.97-266.936-2238.53-267.395-2240.98-268.22-2243.65-267.39-2246.42-266.932-2249.21-266.86L-2251.21-266.86C-2251.78-266.824-2252.32-267.1-2252.63-267.58-2252.97-268.109-2253.14-268.73-2253.12-269.36L-2253.12-269.73C-2253.14-270.31-2252.97-270.88-2252.63-271.35-2252.29-271.791-2251.76-272.038-2251.21-272.01L-2247.09-272.01C-2248.13-273.232-2248.69-274.787-2248.67-276.39-2248.65-278.125-2247.98-279.789-2246.8-281.06-2245.39-282.633-2243.32-283.461-2241.21-283.3-2240.91-283.306-2240.62-283.296-2240.32-283.27ZM-2241.02-273.57C-2240.4-273.934-2239.82-274.37-2239.3-274.87-2238.7-275.423-2238.36-276.204-2238.37-277.02-2238.36-277.816-2238.88-278.522-2239.64-278.76-2240.04-278.915-2240.46-278.99-2240.89-278.98-2241.84-279.004-2242.71-278.498-2243.17-277.67-2243.41-277.282-2243.54-276.836-2243.54-276.38-2243.5-275.2-2242.73-274.169-2241.61-273.8-2241.41-273.704-2241.21-273.627-2241-273.57ZM-2234.6-280.03C-2234.02-279.171-2233.71-278.158-2233.7-277.12-2233.64-275.291-2234.34-273.519-2235.63-272.22-2234.84-272.112-2234.05-272.051-2233.25-272.04-2232.76-272.02-2232.27-272.081-2231.8-272.22-2231.28-272.39-2230.82-272.71-2230.48-273.14-2230.23-273.516-2230.09-273.958-2230.09-274.41-2230.07-276.19-2231.58-278.06-2234.6-280Z" fill="#FFFFFF" transform="translate(2544.57 521.92)"/></svg>