<svg viewBox="0 0 569.84 180.55" xmlns="http://www.w3.org/2000/svg" xmlns:xlink="http://www.w3.org/1999/xlink" id="Layer_1" overflow="hidden"><defs></defs><rect x="82.03" y="123.08" width="396.71" height="57.47" fill="#F7DEB0"/><path d="M-2543.31-59.6-2543.25-84.17-2543.25-84.95-2538.33-84.95-2538.33-84.17-2538.33-63.49C-2538.33-61.6-2538.38-59.82-2538.5-58.16-2538.79-54.4067-2539.99-51.56-2542.1-49.62-2544.21-47.68-2547.16-46.71-2550.94-46.71-2554.89-46.71-2557.89-47.71-2559.94-49.71-2561.99-51.71-2563.02-54.62-2563-58.46-2563-59.8305-2562.87-61.1976-2562.59-62.54-2562.29-63.9556-2561.87-65.3413-2561.32-66.68L-2561.03-67.4-2560.29-67.09-2557.2-65.82-2556.5-65.53-2556.77-64.83C-2557.59-62.7847-2558.01-60.603-2558.02-58.4-2558.02-56.1067-2557.45-54.44-2556.3-53.4-2555.15-52.36-2553.36-51.82-2550.91-51.78-2548.31-51.78-2546.39-52.4167-2545.15-53.69-2543.94-54.91-2543.32-56.89-2543.31-59.6Z" fill="#FFFFFF" transform="translate(2563.03 86.91)"/><path d="M-2524.23-59.39C-2524.2-58.828-2524.23-58.2641-2524.33-57.71-2524.45-57.2129-2524.9-56.8648-2525.41-56.87L-2525.82-56.87C-2528.15-56.7077-2530.42-57.5784-2532.05-59.25-2533.47-60.85-2534.18-63.14-2534.18-66.12L-2534.18-84.95-2529.18-84.95-2529.18-66.16C-2529.28-65.0373-2528.99-63.9145-2528.36-62.98-2527.68-62.2721-2526.71-61.9056-2525.73-61.98L-2525.38-61.98C-2525.24-61.9863-2525.09-61.9589-2524.96-61.9-2524.84-61.8556-2524.73-61.7986-2524.63-61.73-2524.54-61.6422-2524.48-61.5362-2524.44-61.42-2524.38-61.3144-2524.34-61.204-2524.3-61.09-2524.27-60.9618-2524.24-60.8315-2524.23-60.7-2524.22-60.5801-2524.22-60.4599-2524.23-60.34L-2524.23-59.34Z" fill="#FFFFFF" transform="translate(2563.03 86.91)"/><path d="M-2510-64.27C-2509.93-64.6688-2509.89-65.0743-2509.9-65.48-2509.9-65.67-2509.9-65.87-2509.9-66.06-2509.9-66.25-2509.9-66.44-2509.9-66.63-2509.9-66.82-2509.9-67.02-2509.9-67.22L-2510-68.41-2510.07-69.17-2509.31-69.25-2506.11-69.64-2505.29-69.72-2505.23-68.92-2504.92-64.39C-2504.91-64.1613-2504.88-63.9339-2504.83-63.71-2504.79-63.5271-2504.73-63.3469-2504.67-63.17-2504.62-63.014-2504.54-62.8683-2504.44-62.74-2504.35-62.6181-2504.24-62.5073-2504.12-62.41-2504-62.3187-2503.86-62.2477-2503.72-62.2-2503.56-62.1472-2503.39-62.1071-2503.22-62.08-2503.02-62.0641-2502.83-62.0641-2502.63-62.08-2502-62.0389-2501.4-62.322-2501.03-62.83-2500.61-63.6456-2500.42-64.5644-2500.5-65.48-2500.56-67.0992-2500.84-68.703-2501.32-70.25L-2501.56-71.01-2500.78-71.22-2497.44-72.12-2496.71-72.32-2496.5-71.59C-2495.85-69.6553-2495.51-67.6302-2495.5-65.59L-2495.5-65.47C-2495.5-62.28-2496.39-59.92-2498.14-58.38-2499.37-57.3553-2500.95-56.8276-2502.55-56.9-2503.22-56.8902-2503.9-56.9675-2504.55-57.13-2505.13-57.2795-2505.69-57.5191-2506.2-57.84-2506.69-58.1624-2507.12-58.5686-2507.47-59.04-2508.89-57.5859-2510.87-56.8013-2512.9-56.88-2515.41-56.88-2517.22-57.59-2518.33-59.01-2519.66-57.59-2521.74-56.88-2524.56-56.88L-2525.65-56.88C-2526.22-56.8476-2526.77-57.1216-2527.09-57.6-2527.42-58.1347-2527.58-58.7535-2527.56-59.38L-2527.56-59.75C-2527.58-60.3293-2527.41-60.8991-2527.07-61.37-2526.73-61.8092-2526.2-62.0558-2525.65-62.03L-2524.52-62.03C-2523.58-61.9706-2522.64-62.164-2521.8-62.59-2521.2-62.965-2520.79-63.5806-2520.67-64.28-2520.6-64.6788-2520.56-65.0843-2520.57-65.49-2520.57-65.67-2520.57-65.86-2520.57-66.05L-2520.57-66.62C-2520.57-66.82-2520.57-67.02-2520.57-67.23L-2520.69-68.42-2520.75-69.18-2520-69.26-2516.78-69.65-2515.96-69.73-2515.9-68.93-2515.59-64.4C-2515.61-63.7235-2515.35-63.0692-2514.87-62.59-2514.26-62.1656-2513.52-61.9675-2512.78-62.03-2512.07-61.9833-2511.37-62.1695-2510.78-62.56-2510.32-63.0172-2510.05-63.6245-2510-64.27Z" fill="#FFFFFF" transform="translate(2563.03 86.91)"/><path d="M-2484.87-68.35C-2483.79-65.9945-2483.21-63.4407-2483.17-60.85-2483.17-56.85-2484.39-53.73-2486.82-51.46-2489.25-49.19-2492.82-47.79-2497.53-47.3L-2498.21-47.22-2498.37-47.88-2499.21-51.2-2499.42-52.08-2498.52-52.18C-2494.97-52.5267-2492.35-53.4033-2490.67-54.81-2488.97-56.248-2488.05-58.3986-2488.17-60.62-2488.21-62.6728-2488.71-64.6909-2489.62-66.53L-2489.99-67.32-2489.17-67.61-2485.85-68.76-2485.16-69.01Z" fill="#FFFFFF" transform="translate(2563.03 86.91)"/><path d="M-2479.33-84.95-2475.17-84.95-2475.17-56.89-2480.11-56.89-2480.11-84.95Z" fill="#FFFFFF" transform="translate(2563.03 86.91)"/><path d="M-2450.94-59.39C-2450.91-58.828-2450.94-58.2641-2451.04-57.71-2451.15-57.2123-2451.6-56.862-2452.11-56.87L-2452.52-56.87C-2454.85-56.7063-2457.13-57.5772-2458.75-59.25-2460.17-60.85-2460.88-63.14-2460.88-66.12L-2460.88-84.95-2455.88-84.95-2455.88-66.16C-2455.98-65.0373-2455.69-63.9145-2455.06-62.98-2454.37-62.2717-2453.4-61.9054-2452.42-61.98L-2452.07-61.98C-2451.93-61.9839-2451.78-61.9566-2451.65-61.9-2451.54-61.8536-2451.43-61.7967-2451.33-61.73-2451.24-61.6449-2451.18-61.5381-2451.14-61.42-2451.08-61.3144-2451.04-61.204-2451-61.09-2450.96-60.9629-2450.94-60.8321-2450.93-60.7-2450.92-60.5801-2450.92-60.4599-2450.93-60.34L-2450.93-59.34Z" fill="#FFFFFF" transform="translate(2563.03 86.91)"/><path d="M-2446.51-59.31C-2447.92-57.7692-2449.91-56.8853-2452-56.87L-2452.41-56.87C-2452.98-56.8365-2453.52-57.1162-2453.83-57.6-2454.15-58.1325-2454.32-58.7471-2454.3-59.37L-2454.3-59.74C-2454.32-60.3193-2454.15-60.8891-2453.81-61.36-2453.48-61.8017-2452.96-62.0497-2452.41-62.02L-2452.09-62.02C-2451.06-62.149-2450.14-62.7184-2449.57-63.58-2449.01-64.3416-2448.56-65.1717-2448.21-66.05-2446.36-70.13-2443.88-72.19-2440.79-72.2-2439.68-72.2165-2438.58-71.9913-2437.57-71.54-2436.59-71.0785-2435.74-70.3933-2435.08-69.54-2433.75-67.867-2433.04-65.7798-2433.08-63.64-2432.96-61.8255-2433.49-60.0273-2434.56-58.56L-2435.13-58C-2435.33-57.8171-2435.54-57.6499-2435.76-57.5-2435.98-57.3534-2436.21-57.2199-2436.44-57.1-2436.68-56.9805-2436.92-56.8769-2437.17-56.79-2437.43-56.6996-2437.69-56.6228-2437.95-56.56-2438.22-56.4997-2438.5-56.4596-2438.78-56.44-2439.07-56.4248-2439.37-56.4248-2439.66-56.44-2442.23-56.4683-2444.69-57.498-2446.51-59.31ZM-2439.93-61.5C-2439.39-61.4388-2438.84-61.5891-2438.4-61.92-2438.07-62.3335-2437.91-62.8624-2437.97-63.39-2437.97-63.55-2437.97-63.69-2437.97-63.83-2437.97-63.97-2437.97-64.1-2437.97-64.23-2437.97-64.36-2437.97-64.49-2438.04-64.61-2438.07-64.7254-2438.1-64.8389-2438.14-64.95-2438.14-65.06-2438.22-65.16-2438.25-65.26-2438.37-65.531-2438.51-65.7891-2438.68-66.03-2438.83-66.2248-2439.01-66.3966-2439.21-66.54-2439.41-66.6817-2439.63-66.7835-2439.87-66.84-2440.13-66.8989-2440.39-66.9257-2440.66-66.92-2441.99-66.92-2443.06-65.92-2443.88-63.84-2442.5-62.28-2441.16-61.5-2439.93-61.5Z" fill="#FFFFFF" transform="translate(2563.03 86.91)"/><path d="M-2415.81-58.45C-2415.86-57.2166-2415.55-55.995-2414.93-54.93-2414.28-53.9433-2413.31-53.2039-2412.19-52.83-2410.63-52.3093-2409-52.0623-2407.36-52.1-2405.34-52.0652-2403.33-52.4713-2401.48-53.29-2400.64-53.6869-2399.87-54.2284-2399.21-54.89-2398.68-55.4221-2398.37-56.1378-2398.35-56.89-2398.34-56.9462-2398.34-57.0038-2398.35-57.06-2398.35-57.17-2398.64-57.22-2399.09-57.22L-2401.3-57.22C-2402.77-57.1362-2404.23-57.5558-2405.44-58.41-2406.46-59.2666-2407.02-60.5567-2406.95-61.89-2407.01-64.3933-2406.09-66.8209-2404.39-68.66-2402.23-71.0333-2399.2-72.22-2395.31-72.22L-2394.11-72.22-2394.11-66.89-2395.32-66.89C-2396.99-66.9656-2398.65-66.5144-2400.05-65.6-2401.1-64.9485-2401.77-63.8316-2401.85-62.6-2401.85-62.47-2401.85-62.4-2401.85-62.38-2401.68-62.2985-2401.49-62.2673-2401.3-62.29L-2398.98-62.29C-2397.99-62.3261-2397.01-62.1523-2396.09-61.78-2395.32-61.4617-2394.66-60.9092-2394.22-60.2-2393.77-59.4166-2393.54-58.5235-2393.57-57.62-2393.53-55.7309-2394.06-53.8742-2395.11-52.3-2396.26-50.6953-2397.82-49.439-2399.64-48.67-2400.82-48.1319-2402.06-47.7326-2403.33-47.48-2404.69-47.2158-2406.08-47.0852-2407.47-47.09-2411.81-47.09-2415.12-48.04-2417.4-49.94-2419.68-51.84-2420.82-54.6467-2420.81-58.36-2420.81-61.26-2419.88-64.8133-2418.02-69.02L-2417.71-69.71-2417.01-69.41-2413.92-68.14-2413.18-67.83-2413.49-67.11C-2414.83-64.4057-2415.62-61.4619-2415.81-58.45Z" fill="#FFFFFF" transform="translate(2563.03 86.91)"/><path d="M-2389.51-84.95-2385.35-84.95-2385.35-56.89-2390.29-56.89-2390.29-84.95Z" fill="#FFFFFF" transform="translate(2563.03 86.91)"/><path d="M-2373-68.25-2371.91-64.48C-2371.74-63.7579-2371.36-63.1033-2370.81-62.6-2370.28-62.1903-2369.61-61.9847-2368.94-62.02L-2368.39-62.02C-2368.26-62.0238-2368.14-62.0069-2368.02-61.97-2367.91-61.9454-2367.81-61.8899-2367.73-61.81L-2367.52-61.59C-2367.45-61.5104-2367.4-61.4139-2367.38-61.31L-2367.29-61.02C-2367.28-60.9035-2367.28-60.7865-2367.29-60.67-2367.29-60.52-2367.29-60.41-2367.29-60.36-2367.28-60.2635-2367.28-60.1665-2367.29-60.07L-2367.29-59.37C-2367.29-59.37-2367.29-59.24-2367.29-59.01-2367.28-58.8535-2367.28-58.6965-2367.29-58.54-2367.29-58.44-2367.29-58.29-2367.29-58.08-2367.3-57.9145-2367.33-57.7516-2367.4-57.6-2367.46-57.4761-2367.53-57.3559-2367.6-57.24-2367.68-57.1126-2367.8-57.0119-2367.94-56.95-2368.1-56.8968-2368.26-56.8698-2368.43-56.87L-2368.76-56.87C-2369.78-56.8285-2370.8-56.9847-2371.76-57.33-2372.29-54.542-2373.89-52.0725-2376.22-50.45-2379.07-48.6102-2382.34-47.5262-2385.73-47.3L-2386.41-47.22-2386.57-47.88-2387.41-51.2-2387.62-52.08-2386.72-52.18C-2383.17-52.5267-2380.55-53.4033-2378.87-54.81-2377.17-56.2552-2376.25-58.4126-2376.37-60.64-2376.42-62.6872-2376.93-64.6978-2377.84-66.53L-2378.21-67.32-2377.39-67.61-2374.07-68.76-2373.28-69.03Z" fill="#FFFFFF" transform="translate(2563.03 86.91)"/><path d="M-2367.2-56.87-2368.68-56.87C-2369.25-56.8376-2369.8-57.1116-2370.12-57.59-2370.45-58.1217-2370.62-58.7419-2370.6-59.37L-2370.6-59.74C-2370.62-60.3204-2370.44-60.89-2370.1-61.36-2369.77-61.8035-2369.23-62.0511-2368.68-62.02L-2367.2-62.02C-2365.89-61.9186-2364.58-62.0994-2363.35-62.55-2362.5-63.04-2362.08-64.18-2362.08-65.95-2362.11-67.6385-2362.34-69.3176-2362.77-70.95L-2362.96-71.71-2362.2-71.89-2359.02-72.69-2358.31-72.88-2358.08-72.18C-2357.44-70.1917-2357.1-68.1185-2357.08-66.03-2357.08-62.58-2358.08-60.03-2360.13-58.55-2360.54-58.2494-2360.98-57.9946-2361.45-57.79-2361.97-57.5696-2362.52-57.3988-2363.07-57.28-2363.7-57.1446-2364.33-57.0445-2364.97-56.98-2365.67-56.9-2366.41-56.87-2367.2-56.87ZM-2366.45-50.97-2363.61-53.81-2363.32-54.11-2363.03-53.81-2360.16-50.95-2359.87-50.66-2360.16-50.37-2363-47.52-2363.3-47.23-2363.59-47.52-2366.45-50.39-2366.75-50.68Z" fill="#FFFFFF" transform="translate(2563.03 86.91)"/><path d="M-2343.07-84.95-2338.91-84.95-2338.91-56.89-2343.85-56.89-2343.85-84.95Z" fill="#FFFFFF" transform="translate(2563.03 86.91)"/><path d="M-2326.55-68.35C-2325.47-65.9945-2324.89-63.4407-2324.85-60.85-2324.85-56.85-2326.07-53.73-2328.51-51.46-2330.95-49.19-2334.51-47.79-2339.21-47.3L-2339.89-47.22-2340.05-47.88-2340.89-51.2-2341.1-52.08-2340.21-52.18C-2336.65-52.5267-2334.03-53.4033-2332.35-54.81-2330.65-56.248-2329.73-58.3986-2329.85-60.62-2329.89-62.6728-2330.39-64.6909-2331.3-66.53L-2331.67-67.32-2330.85-67.61-2327.53-68.76-2326.85-69.01Z" fill="#FFFFFF" transform="translate(2563.03 86.91)"/><path d="M-2300.64-68.25-2299.55-64.48C-2299.38-63.7604-2299-63.1068-2298.46-62.6-2297.92-62.1896-2297.26-61.984-2296.58-62.02L-2296.03-62.02C-2295.9-62.0238-2295.78-62.0069-2295.66-61.97-2295.55-61.943-2295.45-61.8879-2295.37-61.81-2295.3-61.742-2295.23-61.6684-2295.17-61.59-2295.1-61.5088-2295.05-61.4132-2295.02-61.31L-2294.93-61.02C-2294.92-60.9035-2294.92-60.7865-2294.93-60.67-2294.93-60.52-2294.93-60.41-2294.93-60.36-2294.93-60.31-2294.93-60.21-2294.93-60.07L-2294.93-59.37C-2294.93-59.37-2294.93-59.24-2294.93-59.01L-2294.93-58.54C-2294.93-58.44-2294.93-58.29-2294.93-58.08-2294.94-57.9152-2294.98-57.7531-2295.04-57.6-2295.1-57.4761-2295.17-57.3559-2295.24-57.24-2295.32-57.1099-2295.45-57.0087-2295.59-56.95-2295.74-56.8959-2295.91-56.8689-2296.07-56.87L-2296.41-56.87C-2297.43-56.827-2298.45-56.9832-2299.41-57.33-2299.94-54.5408-2301.55-52.0714-2303.88-50.45-2306.73-48.6118-2310-47.5279-2313.38-47.3L-2314.06-47.22-2314.22-47.88-2315.06-51.2-2315.27-52.08-2314.38-52.18C-2310.82-52.5267-2308.2-53.4033-2306.52-54.81-2304.82-56.2552-2303.9-58.4126-2304.02-60.64-2304.07-62.6872-2304.58-64.6978-2305.49-66.53L-2305.86-67.32-2305.04-67.61-2301.72-68.76-2300.94-69.03ZM-2307.38-75.84-2304.44-78.77-2304.14-79.08-2303.83-78.77-2300.88-75.77-2300.57-75.46-2300.88-75.16-2303.81-72.22-2304.12-71.92-2304.42-72.22-2307.42-75.22-2307.72-75.53Z" fill="#FFFFFF" transform="translate(2563.03 86.91)"/><path d="M-2290.49-59.31C-2291.9-57.7692-2293.89-56.8853-2295.98-56.87L-2296.39-56.87C-2296.96-56.8365-2297.5-57.1162-2297.81-57.6-2298.13-58.1325-2298.3-58.7471-2298.28-59.37L-2298.28-59.74C-2298.3-60.3193-2298.13-60.8891-2297.79-61.36-2297.46-61.8017-2296.94-62.0497-2296.39-62.02L-2296.07-62.02C-2295.04-62.149-2294.12-62.7184-2293.55-63.58-2292.99-64.3416-2292.54-65.1717-2292.19-66.05-2290.34-70.13-2287.86-72.19-2284.76-72.2-2283.65-72.2157-2282.56-71.9905-2281.55-71.54-2280.57-71.0838-2279.72-70.3976-2279.06-69.54-2277.73-67.867-2277.02-65.7798-2277.06-63.64-2276.94-61.8249-2277.46-60.025-2278.54-58.56L-2279.11-58C-2279.31-57.8171-2279.52-57.6499-2279.74-57.5-2279.96-57.3513-2280.18-57.2177-2280.42-57.1-2280.66-56.9805-2280.9-56.8769-2281.15-56.79-2281.41-56.6996-2281.67-56.6228-2281.93-56.56-2282.2-56.4997-2282.48-56.4596-2282.76-56.44-2283.05-56.4248-2283.35-56.4248-2283.64-56.44-2286.21-56.4683-2288.67-57.498-2290.49-59.31ZM-2283.91-61.5C-2283.36-61.4388-2282.82-61.5891-2282.38-61.92-2282.05-62.3335-2281.89-62.8624-2281.95-63.39-2281.95-63.55-2281.95-63.69-2281.95-63.83-2281.95-63.97-2281.95-64.1-2281.95-64.23-2281.95-64.36-2281.95-64.49-2282.02-64.61-2282.05-64.7254-2282.08-64.8389-2282.12-64.95-2282.12-65.06-2282.2-65.16-2282.23-65.26-2282.35-65.531-2282.49-65.7891-2282.66-66.03-2282.81-66.2248-2282.99-66.3966-2283.19-66.54-2283.39-66.6817-2283.61-66.7835-2283.85-66.84-2284.11-66.8989-2284.37-66.9257-2284.64-66.92-2285.96-66.92-2287.04-65.92-2287.86-63.84-2286.48-62.28-2285.14-61.5-2283.91-61.5Z" fill="#FFFFFF" transform="translate(2563.03 86.91)"/><path d="M-2266.28-68.35C-2265.2-65.9945-2264.62-63.4407-2264.58-60.85-2264.58-56.85-2265.8-53.73-2268.23-51.46-2270.66-49.19-2274.23-47.79-2278.93-47.3L-2279.62-47.22-2279.77-47.88-2280.61-51.2-2280.83-52.08-2279.93-52.18C-2276.38-52.5267-2273.77-53.4033-2272.08-54.81-2270.38-56.248-2269.46-58.3986-2269.58-60.62-2269.62-62.6715-2270.11-64.6887-2271.02-66.53L-2271.4-67.32-2270.58-67.61-2267.25-68.76-2266.57-69.01Z" fill="#FFFFFF" transform="translate(2563.03 86.91)"/><path d="M-2246.17-56.89C-2248.09-56.8986-2250-57.086-2251.89-57.45L-2252.54-57.57-2252.54-62.78-2251.6-62.59C-2249.78-62.2165-2247.93-62.0322-2246.07-62.04-2245.35-62.0373-2244.63-62.074-2243.91-62.15-2243.39-62.2009-2242.87-62.298-2242.37-62.44-2242.02-62.543-2241.68-62.6981-2241.37-62.9-2241.15-63.0442-2240.97-63.2356-2240.84-63.46-2240.73-63.6451-2240.68-63.8559-2240.68-64.07-2240.75-64.693-2240.91-65.3044-2241.13-65.89-2241.43-66.8-2241.85-67.89-2242.4-69.23L-2244.88-75.09-2245.17-75.79-2244.49-76.1-2241.27-77.59-2240.52-77.94-2240.21-77.16-2236.35-67.35C-2235.83-65.9257-2235.12-64.5796-2234.24-63.35-2233.55-62.49-2232.95-62.05-2232.46-62.05L-2232.07-62.05C-2231.93-62.0563-2231.78-62.0289-2231.65-61.97-2231.54-61.9281-2231.44-61.8708-2231.34-61.8-2231.24-61.7192-2231.17-61.6163-2231.12-61.5-2231.06-61.36-2231.02-61.25-2230.99-61.16-2230.96-61.0323-2230.94-60.9017-2230.93-60.77-2230.92-60.6501-2230.92-60.5299-2230.93-60.41L-2230.93-59.41C-2230.92-59.0353-2230.94-58.6606-2231-58.29-2231.02-58.0207-2231.09-57.7571-2231.2-57.51L-2231.2-57.51-2231.2-57.51C-2231.36-57.1652-2231.7-56.9405-2232.08-56.93L-2232.47-56.93C-2234.54-56.8996-2236.49-57.9-2237.68-59.6-2239.61-57.77-2242.43-56.89-2246.17-56.89Z" fill="#FFFFFF" transform="translate(2563.03 86.91)"/><path d="M-2219.92-71.07C-2219.05-70.1604-2218.36-69.0996-2217.87-67.94-2217.42-66.8442-2217.19-65.6659-2217.22-64.48-2217.15-62.1114-2218.41-59.9021-2220.48-58.75-2222.6-57.49-2225.63-56.87-2229.57-56.87L-2232.36-56.87C-2232.93-56.8376-2233.48-57.1116-2233.8-57.59-2234.13-58.1228-2234.3-58.743-2234.27-59.37L-2234.27-59.74C-2234.29-60.3193-2234.12-60.8891-2233.78-61.36-2233.44-61.7992-2232.91-62.0458-2232.36-62.02L-2229.59-62.02C-2224.74-62.02-2222.31-63.02-2222.28-64.97-2222.4-66.2507-2223.04-67.4248-2224.06-68.21-2225.06-69.14-2225.99-69.98-2226.87-70.74-2227.75-71.5-2228.58-72.19-2229.35-72.74-2231.03-74.06-2231.87-75.48-2231.87-77.02-2231.9-77.965-2231.6-78.89-2231.02-79.64-2230.4-80.4136-2229.57-80.9959-2228.63-81.32L-2215.09-86.46-2214.04-86.87-2214.04-81.67-2214.55-81.47-2226.42-77.04C-2224.15-75.1665-2221.98-73.1737-2219.92-71.07Z" fill="#FFFFFF" transform="translate(2563.03 86.91)"/><path d="M-2176.49-57.35C-2176.58-56.6212-2176.73-55.9017-2176.95-55.2-2177.17-54.4718-2177.45-53.7627-2177.78-53.08-2179.86-48.8267-2183.98-46.7033-2190.14-46.71-2194.24-46.71-2197.37-47.71-2199.52-49.71-2201.67-51.71-2202.75-54.63-2202.74-58.47-2202.67-61.5916-2201.99-64.6695-2200.74-67.53L-2200.45-68.25-2199.72-67.96-2196.62-66.69-2195.91-66.4-2196.19-65.68C-2197.16-63.4086-2197.69-60.9773-2197.77-58.51-2197.77-56.1967-2197.15-54.4933-2195.91-53.4-2194.67-52.3067-2192.71-51.7567-2190.04-51.75-2187.12-51.75-2184.97-52.3933-2183.59-53.68-2182.21-54.9667-2181.51-56.9667-2181.5-59.68-2181.53-62.0705-2182.11-64.422-2183.2-66.55L-2183.57-67.36-2182.75-67.65-2179.37-68.82-2178.61-69.07-2178.38-68.31-2176.95-63.86C-2176.79-63.3037-2176.43-62.8224-2175.95-62.5-2175.34-62.174-2174.64-62.0219-2173.95-62.06L-2173.58-62.06C-2173.45-62.0644-2173.32-62.0475-2173.19-62.01-2173.08-61.9855-2172.98-61.9299-2172.9-61.85L-2172.69-61.63C-2172.62-61.5494-2172.58-61.4529-2172.56-61.35-2172.56-61.23-2172.49-61.12-2172.47-61.05-2172.46-60.9371-2172.46-60.8229-2172.47-60.71-2172.47-60.56-2172.47-60.45-2172.47-60.4-2172.46-60.3036-2172.46-60.2064-2172.47-60.11-2172.47-59.97-2172.47-59.89-2172.47-59.87L-2172.47-59.15C-2172.47-57.65-2172.82-56.91-2173.64-56.91L-2173.93-56.91C-2174.8-56.8888-2175.67-57.0382-2176.49-57.35ZM-2193.13-69.17-2190.28-72.02-2189.99-72.31-2189.7-72.02-2186.84-69.15-2186.54-68.86-2186.84-68.57-2189.68-65.73-2189.97-65.43-2190.26-65.73-2193.13-68.59-2193.42-68.88Z" fill="#FFFFFF" transform="translate(2563.03 86.91)"/><path d="M-2172.33-56.87-2173.81-56.87C-2174.38-56.8376-2174.93-57.1116-2175.25-57.59-2175.58-58.1217-2175.75-58.7419-2175.73-59.37L-2175.73-59.74C-2175.75-60.3204-2175.57-60.89-2175.23-61.36-2174.9-61.8035-2174.36-62.0511-2173.81-62.02L-2172.33-62.02C-2171.02-61.9186-2169.71-62.0994-2168.48-62.55-2167.64-63.04-2167.21-64.18-2167.21-65.95-2167.24-67.6385-2167.47-69.3176-2167.9-70.95L-2168.09-71.71-2167.33-71.89-2164.15-72.69-2163.44-72.88-2163.21-72.18C-2162.57-70.1917-2162.23-68.1185-2162.21-66.03-2162.21-62.58-2163.21-60.03-2165.26-58.55-2165.67-58.2494-2166.11-57.9946-2166.58-57.79-2167.1-57.5696-2167.65-57.3988-2168.2-57.28-2168.83-57.1446-2169.46-57.0445-2170.1-56.98-2170.8-56.9-2171.54-56.87-2172.33-56.87ZM-2174.4-50.97-2171.56-53.81-2171.27-54.11-2170.97-53.81-2168.11-50.95-2168.11-50.95-2168.11-50.95-2165.27-53.79-2164.98-54.09-2164.68-53.79-2161.82-50.93-2161.53-50.64-2161.82-50.35-2164.66-47.5-2164.95-47.21-2165.25-47.5-2168.11-50.37-2168.11-50.37-2168.11-50.37-2170.95-47.52-2171.25-47.23-2171.54-47.52-2174.4-50.39-2174.69-50.68Z" fill="#FFFFFF" transform="translate(2563.03 86.91)"/><path d="M-2157.63-84.95-2153.47-84.95-2153.47-56.89-2158.41-56.89-2158.41-84.95Z" fill="#FFFFFF" transform="translate(2563.03 86.91)"/><path d="M-2132.19-56.83C-2134.28-56.6965-2136.35-57.2941-2138.04-58.52-2139.47-59.7544-2140.23-61.5879-2140.1-63.47-2140.11-65.1385-2139.73-66.7868-2139.01-68.29-2138.44-69.5637-2137.55-70.6644-2136.42-71.48-2135.34-72.2091-2134.06-72.5895-2132.76-72.57-2131.81-72.5902-2130.87-72.3953-2130-72-2129.17-71.6029-2128.43-71.0256-2127.85-70.31-2127.19-69.5035-2126.67-68.5906-2126.31-67.61-2125.45-65.3048-2125.04-62.8591-2125.08-60.4-2125.08-56.5533-2126.3-53.5267-2128.73-51.32-2131.16-49.1133-2134.66-47.78-2139.22-47.32L-2139.89-47.26-2140.04-47.9-2140.88-51.22-2141.1-52.1-2140.2-52.2C-2135.1-52.72-2131.86-54.3133-2130.47-56.98L-2131.54-56.88ZM-2130.04-62.16C-2130.11-62.9831-2130.25-63.7991-2130.45-64.6-2130.59-65.1646-2130.82-65.7043-2131.12-66.2-2131.35-66.5325-2131.65-66.8067-2132-67-2132.3-67.1763-2132.65-67.2694-2133-67.27-2133.26-67.2723-2133.52-67.2177-2133.76-67.11-2134.02-66.9785-2134.24-66.7821-2134.4-66.54-2134.63-66.2044-2134.81-65.8373-2134.94-65.45-2135.13-64.8892-2135.24-64.3024-2135.25-63.71-2135.29-63.1509-2135.04-62.6092-2134.59-62.28-2133.84-61.9064-2133.01-61.7471-2132.18-61.82-2131.44-61.8508-2130.71-61.9649-2130-62.16Z" fill="#FFFFFF" transform="translate(2563.03 86.91)"/><path d="M-2091.11-63.68C-2091.04-61.8778-2091.56-60.1026-2092.59-58.62-2093.78-57.0942-2095.66-56.268-2097.59-56.42-2099.46-56.5507-2101.25-57.1829-2102.79-58.25-2103.4-58.6167-2104.05-58.9767-2104.74-59.33-2105.08-59.5037-2105.47-59.583-2105.85-59.56-2106.09-59.5514-2106.31-59.4509-2106.47-59.28-2106.73-59.0069-2106.93-58.6881-2107.07-58.34-2107.31-57.812-2107.48-57.2583-2107.59-56.69-2107.76-55.8491-2107.88-54.9969-2107.93-54.14-2108.02-53.14-2108.06-51.94-2108.06-50.66-2108.06-48.1333-2107.97-45.8333-2107.79-43.76L-2107.73-42.9-2112.81-42.9-2112.87-43.64C-2113.02-46.1267-2113.09-48.49-2113.08-50.73-2113.04-55.59-2112.5-59.0467-2111.46-61.1-2110.66-62.9439-2109.06-64.3192-2107.12-64.83-2105.12-69.73-2102.35-72.1867-2098.82-72.2-2097.73-72.2243-2096.65-72.0092-2095.66-71.57-2094.69-71.1301-2093.84-70.4689-2093.18-69.64-2091.8-67.9646-2091.07-65.8502-2091.11-63.68ZM-2097.77-61.51C-2097.43-61.4998-2097.09-61.5611-2096.77-61.69-2096.52-61.8103-2096.33-62.0215-2096.23-62.28-2096.09-62.6473-2096.03-63.0385-2096.05-63.43-2096.05-63.766-2096.08-64.1014-2096.15-64.43-2096.21-64.7354-2096.3-65.0338-2096.42-65.32-2096.54-65.6629-2096.73-65.9788-2096.97-66.25-2097.18-66.4863-2097.45-66.668-2097.75-66.78-2098.09-66.8966-2098.44-66.9574-2098.8-66.96-2100.09-66.96-2101.14-65.96-2101.97-63.96-2101.52-63.5699-2101.05-63.2028-2100.57-62.86-2100.12-62.55-2099.72-62.3-2099.38-62.11-2099.09-61.944-2098.78-61.8035-2098.47-61.69-2098.25-61.5902-2098.01-61.5293-2097.77-61.51Z" fill="#FFFFFF" transform="translate(2563.03 86.91)"/><path d="M-2078.07-59.39C-2078.04-58.828-2078.07-58.2641-2078.17-57.71-2078.28-57.2123-2078.73-56.862-2079.24-56.87L-2079.65-56.87C-2081.98-56.7063-2084.26-57.5772-2085.88-59.25-2087.3-60.85-2088.01-63.14-2088.01-66.12L-2088.01-84.95-2083.01-84.95-2083.01-66.16C-2083.11-65.0373-2082.82-63.9145-2082.19-62.98-2081.5-62.2717-2080.53-61.9054-2079.55-61.98L-2079.2-61.98C-2079.06-61.9839-2078.91-61.9566-2078.78-61.9-2078.67-61.8536-2078.56-61.7967-2078.46-61.73-2078.37-61.643-2078.3-61.537-2078.26-61.42-2078.21-61.3144-2078.16-61.2039-2078.13-61.09-2078.09-60.9629-2078.07-60.8321-2078.06-60.7-2078.05-60.5801-2078.05-60.4599-2078.06-60.34L-2078.06-59.34Z" fill="#FFFFFF" transform="translate(2563.03 86.91)"/><path d="M-2078-56.87-2079.48-56.87C-2080.05-56.8376-2080.6-57.1116-2080.92-57.59-2081.25-58.1217-2081.42-58.7419-2081.4-59.37L-2081.4-59.74C-2081.42-60.3204-2081.24-60.89-2080.9-61.36-2080.57-61.8035-2080.03-62.0511-2079.48-62.02L-2078-62.02C-2076.69-61.9186-2075.38-62.0994-2074.15-62.55-2073.31-63.04-2072.88-64.18-2072.88-65.95-2072.91-67.6385-2073.14-69.3176-2073.57-70.95L-2073.76-71.71-2073-71.89-2069.82-72.69-2069.11-72.88-2068.88-72.18C-2068.24-70.1917-2067.9-68.1185-2067.88-66.03-2067.88-62.58-2068.88-60.03-2070.93-58.55-2071.34-58.2494-2071.78-57.9946-2072.25-57.79-2072.77-57.5696-2073.32-57.3988-2073.87-57.28-2074.5-57.1446-2075.13-57.0445-2075.77-56.98-2076.5-56.9-2077.24-56.87-2078-56.87ZM-2076.14-78.76-2073.3-81.61-2073.01-81.9-2072.71-81.61-2069.85-78.74-2069.56-78.45-2069.85-78.16-2072.69-75.32-2072.98-75.02-2073.28-75.32-2076.14-78.18-2076.43-78.47Z" fill="#FFFFFF" transform="translate(2563.03 86.91)"/><path d="M-2039.66-56.87C-2044.93-56.87-2048.95-57.72-2051.73-59.42-2054.44-61.0193-2056.05-63.9932-2055.89-67.14-2055.9-68.9767-2055.51-70.7937-2054.76-72.47L-2054.45-73.17-2053.72-72.86-2050.66-71.53-2049.95-71.22-2050.23-70.52C-2050.43-70.0477-2050.58-69.5592-2050.69-69.06-2050.78-68.6021-2050.83-68.1367-2050.83-67.67-2050.83-67.1862-2050.77-66.7045-2050.63-66.24-2050.49-65.796-2050.27-65.3775-2050-65-2049.72-64.6135-2049.39-64.2756-2049-64-2048.52-63.665-2048-63.3896-2047.46-63.18-2046.81-62.9161-2046.14-62.712-2045.46-62.57-2044.62-62.3932-2043.77-62.2697-2042.91-62.2-2041.96-62.11-2040.91-62.07-2039.81-62.07-2037.13-62.0179-2034.45-62.2255-2031.81-62.69-2029.81-63.1-2028.43-63.69-2027.81-64.36-2027.65-64.5568-2027.54-64.7854-2027.48-65.03-2027.39-65.4169-2027.35-65.8132-2027.36-66.21L-2027.36-66.62C-2027.36-66.75-2027.36-66.87-2027.36-66.97-2027.36-67.07-2027.36-67.18-2027.36-67.27L-2027.47-68.87-2027.47-69.61-2026.75-69.69-2023.53-70.08-2022.71-70.16-2022.65-69.36-2022.34-65.16C-2022.31-64.3197-2022.03-63.5078-2021.53-62.83-2021.32-62.5721-2021.04-62.3782-2020.72-62.27-2020.3-62.1255-2019.85-62.0577-2019.41-62.07L-2019.15-62.07C-2019-62.0754-2018.86-62.0481-2018.72-61.99-2018.61-61.9481-2018.5-61.8908-2018.41-61.82-2018.32-61.7358-2018.25-61.6336-2018.2-61.52-2018.2-61.38-2018.1-61.27-2018.07-61.18-2018.03-61.0541-2018-60.9227-2018-60.79-2018-60.62-2018-60.5-2018-60.43L-2018-59.43C-2018-59.43-2018-59.28-2018-59.06-2017.99-58.9068-2017.99-58.7532-2018-58.6-2018-58.5-2018-58.35-2018-58.15-2018.01-57.9846-2018.04-57.822-2018.11-57.67-2018.17-57.5417-2018.23-57.418-2018.31-57.3-2018.39-57.1754-2018.51-57.0753-2018.64-57.01-2018.8-56.9552-2018.97-56.9281-2019.14-56.93L-2019.4-56.93C-2020.61-56.9069-2021.82-57.1671-2022.91-57.69-2023.94-58.1963-2024.82-58.9698-2025.45-59.93-2028-57.93-2032.7-56.93-2039.55-56.93ZM-2044.94-75.56-2042.09-78.4-2041.8-78.7-2041.51-78.4-2038.65-75.54-2038.65-75.54-2038.65-75.54-2035.81-78.38-2035.52-78.68-2035.23-78.38-2032.36-75.52-2032.07-75.23-2032.36-74.94-2035.2-72.09-2035.5-71.8-2035.79-72.09-2038.65-74.96-2038.65-74.96-2038.7-74.96-2041.54-72.11-2041.83-71.82-2042.12-72.11-2044.99-74.98-2045.28-75.27Z" fill="#FFFFFF" transform="translate(2563.03 86.91)"/><path d="M-2004-59.37-2004-58.65C-2003.99-58.5168-2003.99-58.3832-2004-58.25-2003.99-58.1101-2003.99-57.9699-2004-57.83-2004.03-57.7038-2004.08-57.5801-2004.13-57.46-2004.18-57.34-2004.26-57.2313-2004.35-57.14-2004.44-57.0554-2004.55-56.9877-2004.67-56.94-2004.81-56.8902-2004.95-56.8664-2005.1-56.87L-2005.29-56.87C-2007.34-56.7177-2009.35-57.5401-2010.7-59.09-2012.2-57.61-2014.43-56.87-2017.38-56.87L-2019.38-56.87C-2019.95-56.8328-2020.5-57.1129-2020.81-57.6-2021.13-58.1325-2021.3-58.7471-2021.28-59.37L-2021.28-59.74C-2021.28-60.1226-2021.22-60.5025-2021.08-60.86-2020.95-61.19-2020.73-61.4775-2020.45-61.69-2020.14-61.9156-2019.76-62.0317-2019.38-62.02L-2017.45-62.02C-2014.87-62.02-2013.45-62.67-2013.23-63.96-2013.15-64.4489-2013.11-64.9443-2013.12-65.44-2013.12-66.08-2013.12-66.68-2013.12-67.24L-2013.22-68.84-2013.28-69.58-2012.54-69.66-2009.32-70.05-2008.51-70.13-2008.46-69.33-2008.14-64.8C-2008.15-64.0148-2007.86-63.2545-2007.34-62.67-2006.73-62.1855-2005.95-61.9531-2005.17-62.02L-2005.02-62.02C-2004.85-62.0229-2004.69-61.9923-2004.53-61.93-2004.39-61.8778-2004.27-61.7788-2004.2-61.65L-2003.99-61.29C-2003.92-61.1416-2003.89-60.9822-2003.88-60.82-2003.88-60.62-2003.88-60.47-2003.88-60.38L-2003.88-59.38ZM-2016.47-50.97-2013.63-53.81-2013.34-54.11-2013.05-53.81-2010.18-50.95-2009.89-50.66-2010.18-50.37-2013.02-47.52-2013.32-47.23-2013.61-47.52-2016.47-50.39-2016.77-50.68Z" fill="#FFFFFF" transform="translate(2563.03 86.91)"/><path d="M-2004-56.87-2005.48-56.87C-2006.05-56.8376-2006.6-57.1116-2006.92-57.59-2007.26-58.1217-2007.42-58.7419-2007.4-59.37L-2007.4-59.74C-2007.42-60.3204-2007.24-60.89-2006.9-61.36-2006.56-61.8006-2006.03-62.0475-2005.48-62.02L-2004-62.02C-2002.69-61.9174-2001.38-62.0982-2000.15-62.55-1999.3-63.04-1998.88-64.18-1998.88-65.95-1998.91-67.6378-1999.14-69.3163-1999.56-70.95L-1999.76-71.71-1999-71.89-1995.81-72.69-1995.11-72.88-1994.88-72.18C-1994.24-70.1928-1993.9-68.1189-1993.88-66.03-1993.88-62.58-1994.88-60.03-1996.93-58.55-1997.34-58.2516-1997.78-57.9969-1998.24-57.79-1998.77-57.5682-1999.31-57.3974-1999.87-57.28-2000.5-57.1438-2001.13-57.0437-2001.77-56.98-2002.43-56.9-2003.16-56.87-2004-56.87ZM-2006-78.46-2003.22-81.24-2002.92-81.54-2002.63-81.24-1999.83-78.44-1999.75-78.36-1999.64-78.46-1996.86-81.24-1996.57-81.54-1996.28-81.24-1993.48-78.44-1993.19-78.15-1993.48-77.86-1996.26-75.08-1996.55-74.79-1996.84-75.08-1999.64-77.88-1999.73-77.96-1999.83-77.86-2002.61-75.08-2002.9-74.79-2003.2-75.08-2006-77.88-2006.29-78.17ZM-2002.86-83.71-2000.08-86.49-1999.79-86.78-1999.5-86.49-1996.7-83.69-1996.4-83.4-1996.7-83.1-1999.48-80.32-1999.77-80.03-2000.06-80.32-2002.86-83.12-2003.15-83.42Z" fill="#FFFFFF" transform="translate(2563.03 86.91)"/><path d="M-2304.94 13.11C-2306.86 13.1009-2308.77 12.9134-2310.66 12.55L-2311.3 12.43-2311.3 7.22-2310.37 7.41C-2308.55 7.78249-2306.7 7.96679-2304.84 7.96-2304.12 7.96299-2303.4 7.92627-2302.68 7.85-2302.16 7.80002-2301.64 7.70295-2301.14 7.56-2300.79 7.45913-2300.45 7.30397-2300.14 7.1-2299.92 6.95302-2299.74 6.76227-2299.6 6.54-2299.5 6.35228-2299.45 6.14264-2299.45 5.93-2299.52 5.30699-2299.68 4.69561-2299.9 4.11-2300.2 3.2-2300.62 2.11-2301.17 0.77L-2303.65-5.09-2303.94-5.79-2303.26-6.1-2300.03-7.59-2299.29-7.94-2298.98-7.16-2295.11 2.65C-2294.6 4.07613-2293.89 5.42279-2293 6.65-2292.31 7.51-2291.72 7.95-2291.22 7.95L-2290.83 7.95C-2290.69 7.94608-2290.54 7.97337-2290.41 8.03-2290.3 8.07636-2290.2 8.1333-2290.1 8.2-2290.01 8.28166-2289.94 8.38457-2289.89 8.5-2289.83 8.64-2289.79 8.75-2289.76 8.84-2289.72 8.9671-2289.7 9.09786-2289.69 9.23-2289.68 9.34992-2289.68 9.47008-2289.69 9.59L-2289.69 10.59C-2289.68 10.965-2289.71 11.3398-2289.77 11.71-2289.79 11.9801-2289.86 12.2446-2289.97 12.49L-2289.97 12.49C-2290.13 12.8348-2290.47 13.0595-2290.85 13.07L-2291.24 13.07C-2293.32 13.1038-2295.27 12.103-2296.46 10.4-2298.37 12.2133-2301.19 13.1167-2304.94 13.11Z" fill="#FFFFFF" transform="translate(2563.03 86.91)"/><path d="M-2275.66 10.63-2275.66 11.35C-2275.66 11.44-2275.66 11.58-2275.66 11.75-2275.67 11.8917-2275.69 12.0324-2275.72 12.17-2275.75 12.2974-2275.79 12.4215-2275.84 12.54-2275.89 12.66-2275.97 12.7687-2276.06 12.86-2276.15 12.9446-2276.26 13.0123-2276.38 13.06-2276.52 13.1098-2276.66 13.1336-2276.81 13.13L-2277.01 13.13C-2279.06 13.2792-2281.06 12.4573-2282.42 10.91-2283.91 12.39-2286.13 13.13-2289.1 13.13L-2291.1 13.13C-2291.67 13.1635-2292.22 12.8838-2292.52 12.4-2292.84 11.8675-2293.01 11.2529-2292.99 10.63L-2292.99 10.26C-2293 9.87808-2292.93 9.4982-2292.8 9.14-2292.67 8.80933-2292.45 8.52196-2292.16 8.31-2291.85 8.08586-2291.48 7.96981-2291.1 7.98L-2289.16 7.98C-2286.58 7.98-2285.16 7.33-2284.94 6.04-2284.86 5.55054-2284.83 5.05552-2284.83 4.56-2284.83 3.89333-2284.85 3.29333-2284.89 2.76L-2284.98 1.16-2285.04 0.42-2284.3 0.34-2281.08-0.05-2280.28-0.13-2280.22 0.67-2279.91 5.2C-2279.91 5.98568-2279.62 6.74444-2279.1 7.33-2278.51 7.81173-2277.76 8.05124-2277 8L-2276.84 8C-2276.67 7.99813-2276.51 8.02869-2276.35 8.09-2276.21 8.14218-2276.09 8.24118-2276.02 8.37L-2275.81 8.73C-2275.75 8.87996-2275.71 9.03855-2275.7 9.2-2275.7 9.4-2275.7 9.55-2275.7 9.64L-2275.7 10.64ZM-2291.71 19.03-2288.87 16.19-2288.58 15.89-2288.29 16.19-2285.42 19.05-2285.42 19.05-2285.42 19.05-2282.58 16.21-2282.29 15.91-2281.99 16.21-2279.13 19.07-2278.84 19.36-2279.13 19.65-2281.97 22.5-2282.27 22.79-2282.56 22.5-2285.42 19.63-2285.42 19.63-2285.42 19.63-2288.27 22.48-2288.56 22.77-2288.85 22.48-2291.71 19.61-2292.01 19.32Z" fill="#FFFFFF" transform="translate(2563.03 86.91)"/><path d="M-2261.65 10.63-2261.65 11.35C-2261.65 11.44-2261.65 11.58-2261.65 11.75-2261.65 11.92-2261.65 12.06-2261.71 12.17-2261.74 12.2962-2261.79 12.4199-2261.84 12.54-2261.89 12.658-2261.96 12.7663-2262.05 12.86-2262.15 12.9425-2262.26 13.0099-2262.38 13.06-2262.52 13.1098-2262.66 13.1336-2262.81 13.13L-2263 13.13C-2265.05 13.2807-2267.06 12.4586-2268.41 10.91-2269.91 12.39-2272.14 13.13-2275.09 13.13L-2277.09 13.13C-2277.66 13.1672-2278.21 12.8871-2278.52 12.4-2278.84 11.8675-2279.01 11.2529-2278.99 10.63L-2278.99 10.26C-2278.99 9.87745-2278.93 9.49755-2278.79 9.14-2278.66 8.81003-2278.44 8.52255-2278.16 8.31-2277.85 8.08578-2277.47 7.96985-2277.09 7.98L-2275.16 7.98C-2272.58 7.98-2271.17 7.33333-2270.94 6.04-2270.85 5.55153-2270.81 5.05601-2270.82 4.56-2270.82 3.89333-2270.84 3.29333-2270.88 2.76L-2270.98 1.16-2271.04 0.42-2270.3 0.34-2267.07-0.05-2266.27-0.13-2266.21 0.67-2265.9 5.2C-2265.91 5.98437-2265.62 6.74296-2265.1 7.33-2264.51 7.80391-2263.76 8.04243-2263 8L-2262.85 8C-2262.68 7.99598-2262.52 8.02662-2262.36 8.09-2262.22 8.13632-2262.1 8.23691-2262.03 8.37L-2261.82 8.73C-2261.75 8.87759-2261.71 9.03712-2261.7 9.2-2261.7 9.4-2261.7 9.55-2261.7 9.64L-2261.7 10.64ZM-2272.9-7.08-2270.06-9.93-2269.77-10.22-2269.47-9.93-2266.61-7.06-2266.32-6.77-2266.61-6.48-2269.45-3.64-2269.74-3.34-2270.04-3.64-2272.9-6.5-2273.19-6.79Z" fill="#FFFFFF" transform="translate(2563.03 86.91)"/><path d="M-2250.68-1.07C-2249.83-0.156352-2249.15 0.904189-2248.68 2.06-2248.23 3.15576-2248 4.33406-2248.03 5.52-2247.96 7.88595-2249.21 10.0936-2251.28 11.25-2253.41 12.51-2256.44 13.13-2260.38 13.13L-2263.17 13.13C-2263.74 13.165-2264.29 12.89-2264.6 12.41-2264.93 11.8783-2265.1 11.2581-2265.08 10.63L-2265.08 10.26C-2265.1 9.68066-2264.93 9.11092-2264.59 8.64-2264.25 8.20076-2263.72 7.95421-2263.17 7.98L-2260.4 7.98C-2255.55 7.98-2253.12 6.98-2253.09 5.03-2253.2 3.74788-2253.85 2.57194-2254.87 1.79-2255.87 0.86-2256.8 0.02-2257.68-0.74-2258.56-1.5-2259.39-2.19-2260.16-2.74-2261.84-4.06-2262.68-5.48-2262.68-7.02-2262.71-7.96499-2262.41-8.89005-2261.83-9.64-2261.21-10.4117-2260.38-10.9935-2259.44-11.32L-2245.9-16.46-2244.9-16.87-2244.9-11.67-2245.41-11.47-2257.28-7.04C-2254.98-5.16926-2252.77-3.1764-2250.68-1.07Z" fill="#FFFFFF" transform="translate(2563.03 86.91)"/><path d="M-2425.34 83.13-2425.34 49-2413.34 49C-2411.55 48.9801-2409.77 49.168-2408.02 49.56-2406.59 49.8734-2405.23 50.4572-2404.02 51.28-2402.96 52.0305-2402.11 53.0345-2401.54 54.2-2400.94 55.4998-2400.65 56.9192-2400.68 58.35-2400.68 59.1101-2400.78 59.8671-2400.98 60.6-2401.17 61.3084-2401.47 61.983-2401.87 62.6-2402.28 63.2421-2402.79 63.8157-2403.38 64.3-2404.04 64.8299-2404.77 65.2519-2405.56 65.55-2404.64 65.7639-2403.77 66.1508-2402.99 66.69-2402.3 67.1678-2401.7 67.7676-2401.23 68.46-2400.77 69.1268-2400.43 69.8677-2400.23 70.65-2400.01 71.4382-2399.91 72.2525-2399.91 73.07-2399.91 76.4033-2400.98 78.9033-2403.11 80.57-2405.24 82.26-2408.28 83.1-2412.21 83.1ZM-2418.34 63.31-2413.13 63.31C-2411.71 63.3875-2410.3 62.9862-2409.13 62.17-2408.23 61.3967-2407.74 60.246-2407.81 59.06-2407.69 57.7938-2408.2 56.5494-2409.16 55.72-2410.44 54.9465-2411.93 54.5965-2413.42 54.72L-2418.34 54.72ZM-2418.34 68.31-2418.34 77.53-2412.34 77.53C-2411.55 77.5426-2410.76 77.4279-2410 77.19-2409.4 76.9915-2408.84 76.6716-2408.36 76.25-2407.92 75.8661-2407.58 75.3827-2407.36 74.84-2407.12 74.256-2407 73.6309-2407 73-2406.99 72.3228-2407.08 71.6478-2407.28 71-2407.46 70.44-2407.76 69.9272-2408.16 69.5-2408.59 69.0468-2409.13 68.7039-2409.72 68.5-2410.46 68.2648-2411.24 68.1533-2412.02 68.17Z" fill="#ED2124" transform="translate(2563.03 86.91)"/><path d="M-2387.71 83.13-2394.71 83.13-2394.71 49-2387.71 49Z" fill="#ED2124" transform="translate(2563.03 86.91)"/><path d="M-2364 74.18C-2363.99 73.6353-2364.08 73.0931-2364.26 72.58-2364.47 72.0541-2364.81 71.5943-2365.26 71.25-2365.87 70.7671-2366.54 70.367-2367.26 70.06-2368.36 69.5833-2369.48 69.166-2370.62 68.81-2372.12 68.3345-2373.6 67.7736-2375.04 67.13-2376.34 66.5512-2377.57 65.805-2378.68 64.91-2379.68 64.0958-2380.51 63.0979-2381.14 61.97-2381.76 60.7692-2382.07 59.4316-2382.04 58.08-2382.05 56.7234-2381.74 55.3839-2381.11 54.18-2380.49 52.9909-2379.6 51.9635-2378.51 51.18-2377.3 50.3037-2375.95 49.647-2374.51 49.24-2372.86 48.7644-2371.15 48.532-2369.43 48.55-2367.68 48.526-2365.94 48.7929-2364.28 49.34-2362.82 49.7996-2361.46 50.5438-2360.28 51.53-2359.2 52.4433-2358.33 53.5837-2357.74 54.87-2357.14 56.1988-2356.84 57.6421-2356.85 59.1L-2363.85 59.1C-2363.84 58.4192-2363.95 57.7425-2364.18 57.1-2364.41 56.5034-2364.76 55.9664-2365.23 55.53-2365.74 55.0802-2366.34 54.7398-2366.99 54.53-2367.79 54.275-2368.63 54.1534-2369.47 54.17-2370.28 54.1538-2371.09 54.2582-2371.87 54.48-2372.48 54.6471-2373.06 54.9325-2373.56 55.32-2373.99 55.6598-2374.33 56.0946-2374.56 56.59-2374.78 57.0727-2374.9 57.5981-2374.9 58.13-2374.87 59.3139-2374.21 60.3914-2373.17 60.96-2371.59 61.8982-2369.89 62.6118-2368.12 63.08-2366.44 63.592-2364.79 64.2339-2363.21 65-2361.92 65.6201-2360.73 66.4252-2359.67 67.39-2358.76 68.2336-2358.03 69.2545-2357.53 70.39-2357.03 71.5832-2356.78 72.8665-2356.8 74.16-2356.78 75.5435-2357.08 76.913-2357.68 78.16-2358.27 79.3427-2359.12 80.3706-2360.18 81.16-2361.36 82.0073-2362.68 82.6341-2364.08 83.01-2365.74 83.4567-2367.46 83.672-2369.18 83.65-2370.31 83.6478-2371.44 83.5508-2372.55 83.36-2373.65 83.1665-2374.74 82.865-2375.78 82.46-2376.78 82.0605-2377.74 81.5471-2378.62 80.93-2379.49 80.3333-2380.26 79.6084-2380.91 78.78-2381.57 77.9297-2382.09 76.9727-2382.43 75.95-2382.81 74.8229-2383 73.6394-2382.98 72.45L-2375.98 72.45C-2376 73.3481-2375.84 74.2409-2375.49 75.07-2375.19 75.7583-2374.72 76.3598-2374.12 76.82-2373.49 77.2994-2372.76 77.6401-2371.99 77.82-2371.09 78.0373-2370.16 78.1415-2369.23 78.13-2368.43 78.1444-2367.63 78.0433-2366.86 77.83-2366.26 77.6719-2365.7 77.4003-2365.2 77.03-2364.77 76.7051-2364.43 76.2835-2364.2 75.8-2364.02 75.281-2363.95 74.7281-2364 74.18Z" fill="#ED2124" transform="translate(2563.03 86.91)"/><path d="M-2343.46 49-2334.69 73.75-2326 49-2316.77 49-2316.77 83.13-2323.82 83.13-2323.82 73.81-2323.12 57.7-2332.33 83.13-2337.16 83.13-2346.35 57.73-2345.65 73.81-2345.65 83.13-2352.65 83.13-2352.65 49Z" fill="#ED2124" transform="translate(2563.03 86.91)"/><path d="M-2291.81 76.1-2304.14 76.1-2306.49 83.1-2314 83.1-2301.3 48.98-2294.78 48.98-2282 83.13-2289.48 83.13ZM-2302.24 70.41-2293.71 70.41-2298 57.63Z" fill="#ED2124" transform="translate(2563.03 86.91)"/><path d="M-2266.63 70.64-2272.23 70.64-2272.23 83.13-2279.23 83.13-2279.23 49-2266.55 49C-2264.76 48.9746-2262.98 49.2002-2261.26 49.67-2259.8 50.0508-2258.44 50.7321-2257.26 51.67-2256.18 52.5283-2255.33 53.6327-2254.77 54.89-2254.16 56.294-2253.87 57.8115-2253.9 59.34-2253.88 60.4747-2254.03 61.606-2254.33 62.7-2254.58 63.6444-2254.99 64.5399-2255.54 65.35-2256.08 66.1119-2256.73 66.7864-2257.47 67.35-2258.25 67.9492-2259.1 68.4527-2260 68.85L-2252.61 82.85-2252.61 83.17-2260.16 83.17ZM-2272.23 64.95-2266.56 64.95C-2265.73 64.9665-2264.91 64.8413-2264.13 64.58-2263.49 64.3781-2262.9 64.0366-2262.4 63.58-2261.95 63.1325-2261.61 62.5888-2261.4 61.99-2261.15 61.3251-2261.03 60.6197-2261.04 59.91-2260.96 58.5111-2261.46 57.1413-2262.42 56.12-2263.57 55.1081-2265.09 54.6067-2266.62 54.73L-2272.27 54.73Z" fill="#ED2124" transform="translate(2563.03 86.91)"/><path d="M-2238.42 69.45-2242.08 73.38-2242.08 83.13-2249.08 83.13-2249.08 49-2242.08 49-2242.08 64.48-2238.98 60.24-2230.29 49.01-2221.64 49.01-2233.76 64.17-2221.29 83.17-2229.66 83.17Z" fill="#ED2124" transform="translate(2563.03 86.91)"/><path d="M-2214.06 50.49C-2210.81 57.63-2209.18 66.41-2209.18 76.83L-2209.18 82.83-2215.25 82.83-2215.25 76.76C-2215.25 66.5667-2216.7 58.5367-2219.61 52.67L-2220.08 51.67-2219.08 51.32-2215.24 49.96-2214.42 49.68Z" fill="#ED2124" transform="translate(2563.03 86.91)"/><path d="M-2202.61 74.91C-2202.73 71.69-2200.3 68.5967-2195.32 65.63-2198.9 63.89-2200.68 61.6-2200.66 58.76-2200.69 57.2361-2200.24 55.7412-2199.37 54.49-2196.95 50.95-2192.36 49.5833-2185.59 50.39L-2184.7 50.49-2185.15 56.63-2186.15 56.51C-2187.59 56.313-2189.04 56.313-2190.48 56.51-2191.26 56.6002-2192.03 56.8305-2192.73 57.19-2193.53 57.67-2193.93 58.19-2193.93 58.73-2193.93 60.36-2191.45 61.37-2186.43 61.73L-2185.59 61.8-2185.52 67.61-2186.1 67.85C-2192.9 70.6033-2196.26 72.6033-2196.18 73.85-2196.05 75.71-2193.33 76.63-2188 76.6L-2182.54 76.6-2182.47 83.11-2188.16 83.11C-2194.29 83.11-2198.5 81.9167-2200.77 79.53-2201.95 78.2825-2202.61 76.6288-2202.61 74.91Z" fill="#ED2124" transform="translate(2563.03 86.91)"/><path d="M-2174 62.37-2173.58 61.99-2173.16 61.63C-2173.02 61.5121-2172.87 61.4052-2172.71 61.31-2172.26 61.0011-2171.78 60.7428-2171.28 60.54-2170.27 60.1138-2169.19 59.8994-2168.09 59.91-2167.36 59.9053-2166.64 59.9995-2165.94 60.19-2165.71 60.2481-2165.48 60.3182-2165.25 60.4-2165.02 60.4787-2164.8 60.5722-2164.58 60.68L-2163.94 61.02C-2163.74 61.14-2163.54 61.27-2163.35 61.41-2163.16 61.55-2162.96 61.7-2162.76 61.86-2162.56 62.02-2162.38 62.2-2162.21 62.37-2161.81 62.762-2161.45 63.1943-2161.14 63.66-2160.85 64.1035-2160.59 64.5719-2160.38 65.06-2160.24 65.3843-2160.12 65.7185-2160.03 66.06-2159.94 66.4124-2159.87 66.7697-2159.82 67.13-2159.77 67.5013-2159.75 67.8755-2159.75 68.25-2159.72 70.4696-2160.61 72.603-2162.21 74.14-2162.61 74.5146-2163.04 74.8495-2163.5 75.14-2163.58 75.2081-2163.67 75.2715-2163.76 75.33L-2164.04 75.51-2164.32 75.66-2164.61 75.8C-2164.71 75.8-2164.81 75.88-2164.91 75.92-2165.08 75.9921-2165.25 76.0555-2165.42 76.11L-2165.94 76.27-2166.45 76.38C-2166.99 76.4774-2167.54 76.5243-2168.09 76.52-2169.18 76.5296-2170.27 76.3257-2171.28 75.92-2171.62 75.778-2171.96 75.6143-2172.28 75.43-2172.6 75.2534-2172.9 75.0563-2173.19 74.84L-2173.41 74.65-2173.62 74.46C-2173.69 74.4019-2173.76 74.3384-2173.82 74.27L-2174.03 74.09-2174.31 73.77-2174.59 73.47C-2174.68 73.3683-2174.77 73.2615-2174.85 73.15-2174.93 73.0407-2175.01 72.9272-2175.08 72.81-2175.16 72.69-2175.24 72.58-2175.31 72.46-2175.38 72.34-2175.44 72.22-2175.51 72.11L-2175.69 71.76C-2175.76 71.6415-2175.81 71.5178-2175.86 71.39-2176.27 70.3768-2176.48 69.293-2176.47 68.2-2176.48 67.1072-2176.27 66.0237-2175.86 65.01-2175.42 64.0157-2174.79 63.1183-2174 62.37ZM-2170.88 68.3C-2170.89 68.4598-2170.89 68.6202-2170.88 68.78-2170.88 68.93-2170.82 69.07-2170.78 69.21-2170.74 69.3494-2170.69 69.4837-2170.62 69.61-2170.55 69.7374-2170.47 69.858-2170.38 69.97-2170.29 70.0926-2170.2 70.2064-2170.09 70.31-2169.83 70.5803-2169.51 70.7976-2169.17 70.95-2168.8 71.096-2168.41 71.1674-2168.01 71.16-2167.26 71.153-2166.54 70.8473-2166.01 70.31-2165.88 70.1764-2165.75 70.0327-2165.64 69.88-2165.54 69.7269-2165.45 69.5665-2165.37 69.4-2165.25 69.0466-2165.19 68.6744-2165.19 68.3-2165.19 67.9159-2165.25 67.5339-2165.37 67.17-2165.52 66.8282-2165.74 66.5192-2166.01 66.26L-2166.25 66.04C-2166.33 65.9702-2166.42 65.9067-2166.51 65.85-2166.6 65.7924-2166.69 65.7423-2166.78 65.7-2166.87 65.6498-2166.97 65.6096-2167.07 65.58L-2167.39 65.5C-2167.5 65.4704-2167.61 65.4503-2167.72 65.44-2167.84 65.4295-2167.95 65.4295-2168.07 65.44-2168.18 65.4294-2168.29 65.4294-2168.4 65.44L-2168.68 65.44-2168.95 65.49C-2169.03 65.5139-2169.11 65.544-2169.19 65.58-2169.54 65.7233-2169.86 65.9378-2170.13 66.21-2170.4 66.4671-2170.61 66.777-2170.75 67.12-2170.87 67.5014-2170.91 67.9033-2170.86 68.3Z" fill="#ED2124" transform="translate(2563.03 86.91)"/><path d="M-2145.37 57.17C-2145.04 58.2245-2144.35 59.1323-2143.43 59.74-2142.34 60.3588-2141.09 60.6537-2139.84 60.59-2139.33 60.5964-2138.83 60.5325-2138.34 60.4-2137.95 60.2834-2137.58 60.0934-2137.26 59.84-2136.97 59.5705-2136.72 59.2525-2136.54 58.9-2135.76 57.3667-2135.37 54.78-2135.37 51.14L-2135.37 50.2-2134.43 50.2-2130.21 50.2-2129.27 50.2-2129.27 51.14C-2129.27 52.32-2129.33 53.44-2129.39 54.49-2129.5 56.3139-2129.81 58.1208-2130.3 59.88-2130.66 61.2358-2131.28 62.509-2132.13 63.63-2132.97 64.6966-2134.08 65.5268-2135.34 66.04-2136.74 66.5903-2138.24 66.8522-2139.75 66.81-2140.42 66.8156-2141.09 66.7789-2141.75 66.7-2142.34 66.627-2142.92 66.4998-2143.49 66.32-2143.1 69.7997-2142.9 73.2984-2142.9 76.8L-2142.9 82.8-2149 82.8-2149 76.76C-2149 66.5667-2150.45 58.5367-2153.36 52.67L-2153.83 51.67-2152.83 51.32-2149 50-2148.11 49.7-2147.8 50.57Z" fill="#ED2124" transform="translate(2563.03 86.91)"/></svg>