<svg viewBox="0 0 36.97 13.87" xmlns="http://www.w3.org/2000/svg" xmlns:xlink="http://www.w3.org/1999/xlink" id="Layer_1" overflow="hidden"><defs></defs><path d="M-179.82 73.87C-179.64 73.76-179.46 73.66-179.3 73.55L-178.84 73.25C-178.716 73.1696-178.595 73.0828-178.48 72.99L-178.25 72.79C-177.836 72.4272-177.59 71.9099-177.57 71.36-177.562 70.8009-177.782 70.2627-178.18 69.87-178.633 69.4703-179.227 69.2686-179.83 69.31-180.282 69.2963-180.73 69.3888-181.14 69.58-181.482 69.7528-181.764 70.0246-181.95 70.36L-181.95 70.36C-182.199 71.0177-182.322 71.7167-182.31 72.42L-184.31 72.42C-184.308 71.7792-184.248 71.1399-184.13 70.51-184.047 70.0403-183.896 69.5854-183.68 69.16-183.327 68.5134-182.791 67.9848-182.14 67.64-181.427 67.271-180.632 67.0886-179.83 67.11-179.166 67.0987-178.506 67.2071-177.88 67.43-177.338 67.6369-176.859 67.9815-176.49 68.43-175.821 69.2344-175.466 70.2539-175.49 71.3-175.454 72.3727-175.859 73.4132-176.61 74.18-176.72 74.29-176.86 74.41-177.02 74.54-177.18 74.67-177.36 74.8-177.57 74.94-177.78 75.08-177.98 75.22-178.21 75.36-178.44 75.5-178.66 75.64-178.89 75.77L-179.19 75.94-179.5 76.11-179.91 76.33-180.02 76.39C-180.053 76.4191-180.09 76.4427-180.13 76.46L-180.13 76.46C-180.6 76.7026-181.042 76.9942-181.45 77.33-181.645 77.4946-181.825 77.6753-181.99 77.87-182.129 78.0329-182.25 78.2107-182.35 78.4L-175.56 78.4-175.56 80.65-184.71 80.65C-184.678 80.0055-184.601 79.3639-184.48 78.73-184.376 78.219-184.211 77.7222-183.99 77.25-183.44 76.245-182.61 75.4216-181.6 74.88Z" fill="#FFFFFF" transform="translate(184.64 -67.1)"/><path d="M-171.88 76.65C-171.828 77.0744-171.695 77.485-171.49 77.86-171.299 78.1738-171.016 78.4216-170.68 78.57-170.503 78.6459-170.319 78.7029-170.13 78.74-169.899 78.782-169.665 78.8021-169.43 78.8-168.68 78.8858-167.934 78.6025-167.43 78.04-167.025 77.5298-166.797 76.9014-166.78 76.25-166.781 75.9047-166.856 75.5637-167 75.25-167.135 74.95-167.321 74.6759-167.55 74.44-167.791 74.232-168.069 74.0724-168.37 73.97-168.693 73.8643-169.03 73.8102-169.37 73.81-169.85 73.7997-170.324 73.9097-170.75 74.13-171.144 74.355-171.485 74.6619-171.75 75.03L-173.43 74.92-172.35 67.35-165.41 67.35-165.41 69.63-170.87 69.63C-170.87 69.75-170.87 69.86-170.92 69.96-170.97 70.06-170.92 70.18-170.92 70.29L-170.98 70.68-171.04 71.07-171.1 71.42C-171.1 71.54-171.1 71.65-171.15 71.75L-171.15 71.75C-171.15 71.82-171.15 71.87-171.15 71.9-171.15 71.93-171.15 71.9-171.15 71.97-171.15 72.04-171.15 71.97-171.15 72.05-171.153 72.1066-171.153 72.1634-171.15 72.22L-170.87 72.07-170.67 71.96C-170.407 71.8486-170.132 71.7681-169.85 71.72-169.553 71.6677-169.252 71.641-168.95 71.64-167.848 71.6686-166.796 72.1072-166 72.87-165.577 73.2581-165.237 73.7275-165 74.25-164.78 74.8138-164.671 75.4149-164.68 76.02-164.674 76.6468-164.779 77.2698-164.99 77.86-165.187 78.4258-165.474 78.9561-165.84 79.43-166.255 79.9255-166.783 80.3132-167.38 80.56-168.072 80.8407-168.814 80.9768-169.56 80.96-170.073 80.9633-170.583 80.8822-171.07 80.72-171.556 80.5517-172.014 80.3125-172.43 80.01-173.365 79.1449-173.888 77.9235-173.87 76.65Z" fill="#FFFFFF" transform="translate(184.64 -67.1)"/><path d="M-156.39 71C-156.373 71.9223-156.734 72.8114-157.39 73.46-157.995 74.1009-158.839 74.4629-159.72 74.46-160.598 74.4613-161.438 74.0994-162.04 73.46-162.685 72.8073-163.033 71.9173-163 71-163.018 70.0835-162.656 69.2004-162 68.56-161.402 67.9155-160.559 67.5526-159.68 67.56-158.798 67.5547-157.954 67.917-157.35 68.56-156.711 69.2085-156.364 70.0898-156.39 71ZM-158 71C-158.024 70.6147-158.2 70.2548-158.49 70-158.8 69.7019-159.22 69.5461-159.65 69.57-160.076 69.5501-160.492 69.7055-160.8 70-161.092 70.2534-161.268 70.6142-161.29 71-161.264 71.3847-161.088 71.7438-160.8 72-160.491 72.2919-160.075 72.4437-159.65 72.42-159.426 72.4192-159.204 72.3855-158.99 72.32-158.801 72.2533-158.63 72.1438-158.49 72-158.202 71.7438-158.026 71.3847-158 71ZM-152.25 67.21-150.75 67.21-158.33 81-159.83 81ZM-147.63 77.21C-147.622 77.6745-147.703 78.1363-147.87 78.57-148.034 78.9784-148.278 79.3493-148.59 79.66-149.192 80.2994-150.032 80.6613-150.91 80.66-151.791 80.6605-152.633 80.2989-153.24 79.66-153.552 79.3493-153.797 78.9784-153.96 78.57-154.13 78.1369-154.215 77.6752-154.21 77.21-154.227 76.2907-153.865 75.4048-153.21 74.76-152.603 74.122-151.761 73.7607-150.88 73.76-150.002 73.7599-149.163 74.1216-148.56 74.76-147.954 75.4089-147.634 76.2732-147.67 77.16ZM-149.26 77.21C-149.279 76.8214-149.461 76.4587-149.76 76.21-149.898 76.0623-150.07 75.9492-150.26 75.88-150.469 75.8097-150.689 75.7759-150.91 75.78-151.134 75.7761-151.357 75.8099-151.57 75.88-151.762 75.9513-151.936 76.064-152.08 76.21-152.368 76.4652-152.541 76.8257-152.56 77.21-152.535 77.5927-152.363 77.9509-152.08 78.21-151.936 78.3532-151.762 78.4625-151.57 78.53-151.358 78.6035-151.135 78.6407-150.91 78.64-150.689 78.6409-150.469 78.6037-150.26 78.53-150.07 78.4647-149.899 78.355-149.76 78.21-149.469 77.938-149.303 77.5583-149.3 77.16Z" fill="#FFFFFF" transform="translate(184.64 -67.1)"/></svg>