<svg viewBox="0 0 819.23 231.27" xmlns="http://www.w3.org/2000/svg" xmlns:xlink="http://www.w3.org/1999/xlink" overflow="hidden"><defs><linearGradient x1="956.89" y1="2774.96" x2="913.81" y2="2988.38" gradientUnits="userSpaceOnUse" id="linear-gradient"><stop offset="0" stop-color="#FFFFFF"/><stop offset="0.26" stop-color="#FCFCFC"/><stop offset="0.47" stop-color="#F2F2F2"/><stop offset="0.67" stop-color="#E0E0E1"/><stop offset="0.85" stop-color="#C9C9C9"/><stop offset="1" stop-color="#B0B0B1"/></linearGradient><linearGradient x1="937.36" y1="2711.12" x2="937.36" y2="2895.23" gradientUnits="userSpaceOnUse" id="linear-gradient-2"><stop offset="0" stop-color="#FFFFFF"/><stop offset="0.8" stop-color="#E8E8E9"/><stop offset="1" stop-color="#E1E1E3"/></linearGradient></defs><g><g id="Layer_1"><path d="M1338.12 2891.88C1338.12 2945.63 1297.45 2989.2 1247.28 2989.2L614.43 2989.2C564.26 2989.2 523.59 2945.63 523.59 2891.88L523.59 2891.88C523.59 2838.13 565.29 2794.55 615.45 2794.55L1247.28 2794.55C1297.45 2794.55 1338.12 2838.13 1338.12 2891.88Z" opacity="0.57" transform="translate(-523.59 -2757.93)"/><path d="M1342.82 2880.53C1342.82 2934.28 1302.15 2977.86 1251.98 2977.86L619.13 2977.86C568.96 2977.86 528.3 2934.28 528.3 2880.53L528.3 2880.53C528.3 2826.78 569.99 2783.21 620.15 2783.21L1252 2783.21C1302.17 2783.21 1342.84 2826.78 1342.84 2880.53Z" fill="url(#linear-gradient)" transform="translate(-523.59 -2757.93)"/><path d="M1339.34 2880.53C1339.34 2931.37 1299.34 2972.59 1250 2972.59L624.72 2972.59C575.38 2972.59 535.37 2931.37 535.37 2880.53L535.37 2880.53C535.37 2829.69 575.37 2788.48 624.72 2788.48L1250 2788.48C1299.34 2788.48 1339.34 2829.69 1339.34 2880.53Z" fill="url(#linear-gradient-2)" transform="translate(-523.59 -2757.93)"/><path d="M936.27 2899C936.347 2900.31 936.27 2901.63 936.04 2902.92 935.788 2904.1 934.743 2904.93 933.54 2904.92L932.54 2904.92C926.16 2904.92 921.317 2903.07 918.01 2899.36 914.703 2895.65 913.037 2890.32 913.01 2883.36L913.01 2839.45 924.57 2839.45 924.57 2883.27C924.57 2886.7 925.21 2889.18 926.49 2890.69 927.77 2892.2 929.82 2892.95 932.64 2892.92L933.46 2892.92C933.802 2892.91 934.143 2892.97 934.46 2893.1 934.725 2893.21 934.979 2893.35 935.22 2893.51 935.428 2893.71 935.583 2893.96 935.67 2894.24 935.793 2894.48 935.9 2894.73 935.99 2894.99 936.067 2895.29 936.12 2895.6 936.15 2895.91 936.188 2896.19 936.212 2896.47 936.22 2896.75L936.22 2899Z" fill="#3A3A3A" transform="translate(-523.59 -2757.93)"/><path d="M971.66 2881.78C970.87 2881.48 969.97 2881.12 968.97 2880.71L965.65 2879.37C959.91 2877.06 956.083 2875.9 954.17 2875.91 951.379 2875.87 948.746 2877.2 947.11 2879.46L945.83 2881.15 944.92 2882.29 943.6 2881.65 936.6 2878.19 934.82 2877.32 935.87 2875.59 936.6 2874.36C938.432 2871.19 941.032 2868.54 944.16 2866.64 947.216 2864.87 950.689 2863.95 954.22 2863.98 958.347 2863.98 963.22 2865.35 968.84 2868.08 978.107 2872.57 985.213 2874.92 990.16 2875.13L991.89 2875.23 991.89 2877 991.8 2884.88 991.8 2886.57 990.11 2886.7C987.472 2887.05 984.914 2887.85 982.55 2889.07 982.89 2890.19 983.9 2891.07 985.6 2891.8 988.054 2892.6 990.633 2892.94 993.21 2892.8L995.21 2892.8C995.504 2892.8 995.797 2892.84 996.08 2892.92 996.337 2892.98 996.572 2893.11 996.76 2893.3L997.24 2893.8C997.397 2893.99 997.512 2894.22 997.58 2894.46 997.67 2894.75 997.74 2894.99 997.79 2895.17 997.84 2895.43 997.87 2895.7 997.88 2895.97 997.88 2896.32 997.88 2896.55 997.88 2896.67 997.896 2896.9 997.896 2897.13 997.88 2897.36L997.88 2901C997.88 2901.21 997.88 2901.57 997.81 2902.07 997.789 2902.45 997.704 2902.83 997.56 2903.19 997.44 2903.43 997.28 2903.71 997.08 2904.03 996.894 2904.34 996.613 2904.58 996.28 2904.71 995.905 2904.86 995.503 2904.93 995.1 2904.92L992.41 2904.92C989.301 2904.97 986.201 2904.56 983.21 2903.71 980.745 2903.01 978.487 2901.72 976.63 2899.95 974.856 2898.2 973.602 2896 973.01 2893.58L972.46 2893.85 971.94 2894.12 971.42 2894.4C958.153 2901.41 946.02 2904.91 935.02 2904.92L932.9 2904.92C931.562 2904.99 930.286 2904.35 929.55 2903.23 928.773 2901.99 928.383 2900.55 928.43 2899.09L928.43 2898.22C928.388 2896.86 928.799 2895.53 929.6 2894.44 930.374 2893.41 931.611 2892.83 932.9 2892.89L935.63 2892.89C945.29 2892.86 957.3 2889.16 971.66 2881.78ZM958.14 2918.62 964.77 2912 965.45 2911.31 966.13 2912 972.81 2918.67 973.49 2919.35 972.81 2920.04 966.18 2926.66 965.5 2927.35 964.82 2926.66 958.14 2919.99 957.46 2919.31Z" fill="#3A3A3A" transform="translate(-523.59 -2757.93)"/><path d="M1030.5 2899.05 1030.5 2900.71C1030.5 2900.94 1030.5 2901.25 1030.5 2901.64 1030.48 2901.98 1030.43 2902.31 1030.36 2902.64 1030.29 2902.94 1030.19 2903.23 1030.06 2903.51 1029.95 2903.79 1029.78 2904.05 1029.56 2904.26 1029.34 2904.46 1029.09 2904.61 1028.81 2904.71 1028.49 2904.84 1028.15 2904.9 1027.81 2904.9L1027.35 2904.9C1021.74 2904.9 1017.54 2903.17 1014.74 2899.7 1011.25 2903.17 1006.05 2904.91 999.16 2904.9L994.42 2904.9C993.085 2904.98 991.814 2904.32 991.1 2903.19 990.344 2901.95 989.966 2900.52 990.01 2899.07L990.01 2898.2C989.997 2897.31 990.15 2896.42 990.46 2895.58 990.765 2894.81 991.277 2894.14 991.94 2893.65 992.657 2893.12 993.53 2892.85 994.42 2892.87L998.93 2892.87C1004.93 2892.87 1008.21 2891.37 1008.77 2888.36 1008.97 2887.22 1009.06 2886.06 1009.05 2884.9 1009.05 2883.41 1009.05 2882.02 1008.91 2880.71L1008.68 2876.98 1008.54 2875.25 1010.28 2875.06 1017.79 2874.15 1019.66 2873.97 1019.79 2875.84 1020.52 2886.4C1020.71 2888.71 1021.33 2890.38 1022.39 2891.4 1023.45 2892.42 1025.14 2892.92 1027.45 2892.9L1027.81 2892.9C1028.2 2892.89 1028.59 2892.96 1028.95 2893.11 1029.28 2893.23 1029.55 2893.47 1029.72 2893.77 1029.91 2894.07 1030.06 2894.35 1030.2 2894.61 1030.36 2894.95 1030.45 2895.32 1030.47 2895.7 1030.47 2896.17 1030.54 2896.52 1030.54 2896.7L1030.54 2899.07ZM1004.28 2857.73 1010.91 2851.1 1011.59 2850.42 1012.27 2851.1 1018.95 2857.78 1019.63 2858.46 1018.95 2859.14 1012.32 2865.77 1011.64 2866.45 1010.95 2865.77 1004.28 2859.09 1003.6 2858.41Z" fill="#3A3A3A" transform="translate(-523.59 -2757.93)"/><path d="M1030.55 2904.88 1027.09 2904.88C1025.75 2904.95 1024.48 2904.31 1023.74 2903.19 1022.96 2901.95 1022.57 2900.51 1022.62 2899.05L1022.62 2898.18C1022.58 2896.83 1022.99 2895.5 1023.78 2894.4 1024.56 2893.37 1025.8 2892.79 1027.09 2892.85L1030.55 2892.85C1035.07 2892.85 1038.07 2892.44 1039.55 2891.62 1041.55 2890.47 1042.55 2887.83 1042.55 2883.7 1042.49 2879.78 1041.96 2875.88 1040.96 2872.08L1040.5 2870.31 1042.28 2869.9 1049.7 2868.03 1051.34 2867.57 1051.89 2869.21C1053.37 2873.85 1054.13 2878.69 1054.17 2883.56 1054.17 2891.61 1051.8 2897.43 1047.06 2901.01 1046.1 2901.7 1045.07 2902.29 1043.99 2902.76 1042.77 2903.28 1041.51 2903.69 1040.21 2903.97 1038.74 2904.28 1037.26 2904.51 1035.77 2904.65 1034.12 2904.8 1032.4 2904.88 1030.55 2904.88ZM1025.72 2918.62 1032.35 2912 1033.03 2911.31 1033.71 2912 1040.38 2918.67 1040.38 2918.67 1040.48 2918.57 1047.11 2911.95 1047.79 2911.26 1048.47 2911.95 1055.15 2918.62 1055.83 2919.3 1055.15 2919.99 1048.52 2926.61 1047.84 2927.3 1047.16 2926.61 1040.48 2919.94 1040.48 2919.94 1040.38 2920.04 1033.76 2926.66 1033.08 2927.35 1032.39 2926.66 1025.72 2919.99 1025.04 2919.31Z" fill="#3A3A3A" transform="translate(-523.59 -2757.93)"/><path d="M1064.82 2839.38 1074.52 2839.38 1074.52 2904.83 1063 2904.83 1063 2839.38Z" fill="#3A3A3A" transform="translate(-523.59 -2757.93)"/><path d="M1131.62 2878.1C1134.15 2883.59 1135.51 2889.55 1135.62 2895.59 1135.62 2904.88 1132.78 2912.18 1127.11 2917.49 1121.44 2922.8 1113.1 2926.04 1102.11 2927.19L1100.51 2927.38 1100.15 2925.83 1098.15 2918.08 1097.65 2916.08 1099.74 2915.85C1108.03 2915.03 1114.13 2912.99 1118.05 2909.72 1121.97 2906.45 1123.91 2901.94 1123.88 2896.17 1123.78 2891.38 1122.63 2886.67 1120.51 2882.37L1119.65 2880.55 1121.56 2879.87 1129.3 2877.18 1130.9 2876.59ZM1116 2860.64 1122.85 2853.79 1123.55 2853.08 1124.26 2853.79 1131.16 2860.69 1131.86 2861.39 1131.16 2862.1 1124.31 2868.94 1123.61 2869.65 1122.9 2868.94 1116 2862.04 1115.3 2861.34Z" fill="#3A3A3A" transform="translate(-523.59 -2757.93)"/><path d="M1144.53 2839.38 1154.23 2839.38 1154.23 2904.83 1142.71 2904.83 1142.71 2839.38Z" fill="#3A3A3A" transform="translate(-523.59 -2757.93)"/><path d="M672.94 2840.61 672.94 2953.25 587.23 2942.78C586.97 2905.88 585.84 2870.23 580.64 2840.43L580.21 2833.76Z" fill="#F04E44" transform="translate(-523.59 -2757.93)"/><path d="M754.33 2833.76C751.33 2867.45 751.61 2903.32 754.33 2940.76L672.94 2953.23 672.94 2840.61Z" fill="#C62026" transform="translate(-523.59 -2757.93)"/><path d="M230.73 75.83 230.73 83.97 149.34 92.36 57.04 82.5 56.62 75.83 149.34 82.68 230.73 75.83Z" fill="#F5887E"/><path d="M48.03 46.17 146.95 36.37 238.18 46.17 145.99 61.3 48.03 46.17Z" fill="#F04E44"/><path d="M759.85 2836.15 672.94 2844.61 574.51 2836.15C574.91 2825.39 573.938 2814.62 571.62 2804.1L671.84 2813.45 761.77 2804.1C759.463 2814.62 758.815 2825.43 759.85 2836.15Z" fill="#F04E44" transform="translate(-523.59 -2757.93)"/><path d="M759.85 2836.15 672.94 2844.61 671.84 2813.45 761.77 2804.1C759.463 2814.62 758.815 2825.43 759.85 2836.15Z" fill="#C62026" transform="translate(-523.59 -2757.93)"/><path d="M94.62 50.51 109.77 51.93 112.27 190.79 100.35 189.33 94.62 50.51Z" fill="#FCB021"/><path d="M94.62 50.51 182.71 40.21 196.38 41.68 109.77 51.93 94.62 50.51Z" fill="#FCB021"/><path d="M184.93 51.7 184.93 189.87 197.62 187.92 200.46 50.09 184.93 51.7Z" fill="#FCB021"/><path d="M200.46 50.09 109.56 40.21 94.62 41.55 184.93 51.7 200.46 50.09Z" fill="#FCB021"/><path d="M669.48 2802.79 669.37 2802.79C667.6 2803.13 663.28 2801.09 661.58 2800.61 650.5 2797.44 639.46 2794.09 628.73 2789.99 624.06 2788.22 619.07 2785.92 616.82 2781.84 616.633 2781.5 616.466 2781.14 616.32 2780.78 614.48 2776.17 616.9 2770.68 621.24 2767.89 625.58 2765.1 631.38 2764.71 636.46 2766.08 641.438 2767.59 646.011 2770.21 649.84 2773.73 653.971 2777.35 657.69 2781.42 660.93 2785.86 663.93 2789.86 666.58 2794.06 669.14 2798.29 669.89 2799.56 672 2802.15 669.48 2802.79Z" fill="#F04E44" transform="translate(-523.59 -2757.93)"/><path d="M669.37 2802.8C667.6 2803.14 663.28 2801.1 661.58 2800.62 650.5 2797.45 639.46 2794.1 628.73 2790 624.06 2788.23 619.07 2785.93 616.82 2781.85 616.884 2780.94 617.188 2780.07 617.7 2779.32 618.93 2777.55 621.33 2776.77 623.59 2776.84 625.825 2777.04 628.006 2777.63 630.03 2778.6 644.4 2784.66 657 2793.7 669.37 2802.8Z" fill="#C62026" transform="translate(-523.59 -2757.93)"/><path d="M671.71 2802.78C671.753 2802.79 671.797 2802.79 671.84 2802.78 673.96 2803.18 679.13 2800.78 681.16 2800.16 694.44 2796.36 707.65 2792.35 720.49 2787.46 726.07 2785.33 732.05 2782.57 734.74 2777.69 734.972 2777.28 735.173 2776.86 735.34 2776.42 737.54 2770.91 734.65 2764.34 729.46 2761 724.27 2757.66 717.31 2757.2 711.24 2758.83 705.17 2760.46 699.85 2763.98 695.24 2767.98 690.312 2772.33 685.872 2777.21 682 2782.52 678.43 2787.32 675.23 2792.34 672.17 2797.41 671.22 2798.91 668.7 2802 671.71 2802.78Z" fill="#F04E44" transform="translate(-523.59 -2757.93)"/><path d="M671.84 2802.8C673.96 2803.2 679.13 2800.8 681.16 2800.18 694.44 2796.38 707.65 2792.37 720.49 2787.48 726.07 2785.35 732.05 2782.59 734.74 2777.71 734.678 2776.64 734.333 2775.6 733.74 2774.71 732.27 2772.6 729.4 2771.71 726.69 2771.71 724.014 2771.94 721.402 2772.66 718.98 2773.82 701.73 2781.08 686.65 2791.9 671.84 2802.8Z" fill="#C62026" transform="translate(-523.59 -2757.93)"/></g></g></svg>