<svg viewBox="0 0 35.4 511.23" xmlns="http://www.w3.org/2000/svg" xmlns:xlink="http://www.w3.org/1999/xlink" overflow="hidden"><defs><linearGradient x1="437.53" y1="-964.26" x2="437.53" y2="-927.16" gradientUnits="userSpaceOnUse" id="linear-gradient" gradientTransform="matrix(6.12323e-17 -1 1 6.12323e-17 47.83 483.45)"><stop offset="0" stop-color="#FFFFFF"/><stop offset="0.17" stop-color="#F9FBFC"/><stop offset="0.41" stop-color="#E7EFF2"/><stop offset="0.69" stop-color="#CBDBE1"/><stop offset="0.99" stop-color="#A3C0CB"/><stop offset="1" stop-color="#A1BFCA"/></linearGradient><linearGradient x1="326.15" y1="-958.73" x2="326.15" y2="-931.18" gradientUnits="userSpaceOnUse" id="linear-gradient-2" gradientTransform="matrix(6.12323e-17 -1 1 6.12323e-17 47.83 483.45)"><stop offset="0" stop-color="#FFE7A3"/><stop offset="0.5" stop-color="#FFCA05"/><stop offset="1" stop-color="#FAAC18"/></linearGradient></defs><g><g id="OBJECTS"><path d="M-916.12-205.45-916.12 301.55-880.72 301.55-880.72-205.45C-880.72-207.8-884.38-209.7-888.89-209.7L-907.95-209.7C-912.46-209.7-916.12-207.8-916.12-205.45Z" fill="url(#linear-gradient)" transform="translate(916.12 209.7)"/><path d="M-910.67-209.44-910.67 301.56-916.12 301.56-916.12-205.44C-916.12-207.3-913.83-208.88-910.67-209.44Z" fill="#5A8997" opacity="0.5" transform="translate(916.12 209.7)"/><path d="M-910.67 14.07-910.67 301.53-884.38 301.53-884.38 14.07C-884.38 13.51-885.69 13.07-887.3 13.07L-907.75 13.07C-909.36 13.05-910.67 13.51-910.67 14.07Z" fill="url(#linear-gradient-2)" transform="translate(916.12 209.7)"/></g></g></svg>