<svg viewBox="0 0 35.4 511.23" xmlns="http://www.w3.org/2000/svg" xmlns:xlink="http://www.w3.org/1999/xlink" overflow="hidden"><defs><linearGradient x1="437.4" y1="-913.93" x2="437.4" y2="-876.83" gradientUnits="userSpaceOnUse" id="linear-gradient" gradientTransform="matrix(6.12323e-17 -1 1 6.12323e-17 47.83 483.45)"><stop offset="0" stop-color="#FFFFFF"/><stop offset="0.17" stop-color="#F9FBFC"/><stop offset="0.41" stop-color="#E7EFF2"/><stop offset="0.69" stop-color="#CBDBE1"/><stop offset="0.99" stop-color="#A3C0CB"/><stop offset="1" stop-color="#A1BFCA"/></linearGradient><linearGradient x1="381.71" y1="-908.4" x2="381.71" y2="-880.92" gradientUnits="userSpaceOnUse" id="linear-gradient-2" gradientTransform="matrix(6.12323e-17 -1 1 6.12323e-17 47.83 483.45)"><stop offset="0" stop-color="#F69453"/><stop offset="0.5" stop-color="#F37521"/><stop offset="1" stop-color="#D4622A"/></linearGradient></defs><g><g id="OBJECTS"><path d="M-865.79-205.32-865.79 301.68-830.39 301.68-830.39-205.32C-830.39-207.67-834.05-209.57-838.56-209.57L-857.62-209.57C-862.13-209.57-865.79-207.67-865.79-205.32Z" fill="url(#linear-gradient)" transform="translate(865.79 209.57)"/><path d="M-860.35-209.32-860.35 301.68-865.79 301.68-865.79-205.32C-865.79-207.18-863.5-208.75-860.35-209.32Z" fill="#5A8997" opacity="0.5" transform="translate(865.79 209.57)"/><path d="M-860.35-96.06-860.35 301.66-834.12 301.66-834.12-96.06C-834.12-97.24-835.43-98.2-837.03-98.2L-857.43-98.2C-859-98.2-860.35-97.24-860.35-96.06Z" fill="url(#linear-gradient-2)" transform="translate(865.79 209.57)"/></g></g></svg>