<svg viewBox="0 0 35.4 511.23" xmlns="http://www.w3.org/2000/svg" xmlns:xlink="http://www.w3.org/1999/xlink" overflow="hidden"><defs><linearGradient x1="437.66" y1="-865.6" x2="437.66" y2="-828.5" gradientUnits="userSpaceOnUse" id="linear-gradient" gradientTransform="matrix(6.12323e-17 -1 1 6.12323e-17 47.83 483.45)"><stop offset="0" stop-color="#FFFFFF"/><stop offset="0.17" stop-color="#F9FBFC"/><stop offset="0.41" stop-color="#E7EFF2"/><stop offset="0.69" stop-color="#CBDBE1"/><stop offset="0.99" stop-color="#A3C0CB"/><stop offset="1" stop-color="#A1BFCA"/></linearGradient><linearGradient x1="437.53" y1="-860.06" x2="437.53" y2="-834.38" gradientUnits="userSpaceOnUse" id="linear-gradient-2" gradientTransform="matrix(6.12323e-17 -1 1 6.12323e-17 47.83 483.45)"><stop offset="0" stop-color="#64C08A"/><stop offset="0.5" stop-color="#00A550"/><stop offset="1" stop-color="#00914C"/></linearGradient></defs><g><g id="OBJECTS"><path d="M-817.47-205.57-817.47 301.43-782.07 301.43-782.07-205.57C-782.07-207.92-785.73-209.83-790.24-209.83L-809.3-209.83C-813.81-209.83-817.47-207.92-817.47-205.57Z" fill="url(#linear-gradient)" transform="translate(817.47 209.83)"/><path d="M-812-209.57-812 301.43-817.45 301.43-817.45-205.57C-817.47-207.43-815.18-209-812-209.57Z" fill="#5A8997" opacity="0.5" transform="translate(817.47 209.83)"/><path d="M-812-207.5-812 301.4-787.49 301.4-787.49-207.5C-787.49-208.64-788.72-209.57-790.22-209.57L-809.3-209.57C-810.8-209.57-812-208.64-812-207.5Z" fill="url(#linear-gradient-2)" transform="translate(817.47 209.83)"/></g></g></svg>