<svg viewBox="0 0 133.1 28.69" xmlns="http://www.w3.org/2000/svg" xmlns:xlink="http://www.w3.org/1999/xlink" id="OBJECTS" overflow="hidden"><defs><linearGradient x1="-465.94" y1="-112.79" x2="-465.94" y2="-82.72" gradientUnits="userSpaceOnUse" id="linear-gradient"><stop offset="0" stop-color="#64C08A"/><stop offset="0.5" stop-color="#00A550"/><stop offset="1" stop-color="#00914C"/></linearGradient><linearGradient x1="-503.69" y1="-112.79" x2="-503.69" y2="-82.72" gradientUnits="userSpaceOnUse" id="linear-gradient-2"><stop offset="0" stop-color="#FFFFFF"/><stop offset="0.17" stop-color="#F9FBFC"/><stop offset="0.41" stop-color="#E7EFF2"/><stop offset="0.69" stop-color="#CBDBE1"/><stop offset="0.99" stop-color="#A3C0CB"/><stop offset="1" stop-color="#A1BFCA"/></linearGradient></defs><path d="M-399.39-84.48C-399.618-84.0889-400.037-83.8489-400.49-83.85L-523.68-83.85C-524.13-83.8504-524.545-84.0905-524.77-84.48L-532.32-97.57C-532.55-97.955-532.55-98.435-532.32-98.82L-524.77-111.92C-524.54-112.303-524.127-112.538-523.68-112.54L-400.49-112.54C-400.04-112.541-399.622-112.306-399.39-111.92Z" fill="url(#linear-gradient)" transform="translate(532.49 112.54)"/><path d="M-523.68-112.54-474.89-112.54-474.89-83.85-523.68-83.85C-524.13-83.8504-524.545-84.0905-524.77-84.48L-532.32-97.57C-532.55-97.955-532.55-98.435-532.32-98.82L-524.77-111.92C-524.54-112.303-524.127-112.538-523.68-112.54Z" fill="url(#linear-gradient-2)" transform="translate(532.49 112.54)"/><path d="M-462-93.29C-463.7-93.29-464.54-94.2-464.54-96.03-464.54-97.86-463.72-98.86-462.08-98.86L-461.54-98.86C-460.693-98.8934-459.858-98.6513-459.16-98.17-458.981-97.9482-458.715-97.8136-458.43-97.8L-458.36-97.8-458.36-96.39-459-96.39C-459.404-96.381-459.802-96.4849-460.15-96.69L-460.66-97.02C-460.974-97.247-461.352-97.3694-461.74-97.37L-462.21-97.37C-462.77-97.37-463.06-96.92-463.06-96.03-463.06-95.14-462.76-94.71-462.16-94.7L-457-94.7C-456.922-94.7065-456.844-94.6771-456.79-94.62-456.725-94.5696-456.688-94.4918-456.69-94.41L-456.69-93.59C-456.691-93.4933-456.739-93.4033-456.82-93.35-456.873-93.3123-456.935-93.2913-457-93.29ZM-458.91-96.39-458.4-97.8-456.81-97.8C-456.524-97.7566-456.233-97.8286-456-98-455.83-98.2492-455.753-98.5497-455.78-98.85L-455.78-100.74C-455.783-100.823-455.75-100.903-455.69-100.96-455.635-101.017-455.559-101.05-455.48-101.05L-454.65-101.05C-454.55-101.051-454.457-101.002-454.4-100.92-454.37-100.868-454.353-100.81-454.35-100.75L-454.35-98.85C-454.29-98.1312-454.542-97.4213-455.04-96.9-455.422-96.5768-455.9-96.3871-456.4-96.36ZM-457.5-102.99-457.5-103.78C-457.501-103.867-457.464-103.951-457.4-104.01-457.342-104.076-457.258-104.113-457.17-104.11L-456.34-104.11C-456.237-104.113-456.141-104.059-456.09-103.97-456.052-103.917-456.031-103.855-456.03-103.79L-456.03-102.96C-456.032-102.853-456.089-102.755-456.18-102.7-456.245-102.677-456.315-102.677-456.38-102.7L-457.15-102.7C-457.3-102.689-457.438-102.785-457.48-102.93-457.502-102.951-457.523-102.975-457.54-103Z" fill="#FFFFFF" transform="translate(532.49 112.54)"/><path d="M-451.82-105-451.82-105-451.82-99.15C-451.82-98.51-451.72-98.15-451.51-97.97-451.203-97.8095-450.854-97.7467-450.51-97.79L-450.51-96.38C-451.121-96.3519-451.729-96.4756-452.28-96.74-452.909-97.1058-453.265-97.8063-453.19-98.53L-453.19-105-453.19-105-453.19-105.1C-453.198-105.182-453.169-105.263-453.11-105.32-453.056-105.385-452.975-105.422-452.89-105.42L-452.1-105.42C-452.001-105.419-451.91-105.366-451.86-105.28-451.821-105.232-451.8-105.172-451.8-105.11Z" fill="#FFFFFF" transform="translate(532.49 112.54)"/><path d="M-450.52-96.39C-450.586-96.3731-450.654-96.3731-450.72-96.39-450.805-96.4455-450.857-96.5388-450.86-96.64L-450.86-97.45C-450.859-97.5116-450.838-97.5711-450.8-97.62-450.75-97.7059-450.659-97.7591-450.56-97.76L-448.95-97.76C-448.659-97.7279-448.367-97.8144-448.14-98-447.963-98.2422-447.881-98.5412-447.91-98.84L-447.91-100.74C-447.912-100.801-447.895-100.86-447.86-100.91-447.809-100.994-447.718-101.043-447.62-101.04L-446.82-101.04C-446.737-101.043-446.657-101.01-446.6-100.95-446.54-100.893-446.507-100.813-446.51-100.73L-446.51-100.53-446.51-100.53-446.51-98.64C-446.499-98.0616-446.694-97.498-447.06-97.05-447.41-96.5957-447.956-96.3357-448.53-96.35ZM-450.15-93.63-450.15-94.42C-450.152-94.5056-450.12-94.5885-450.06-94.65-450.002-94.7165-449.918-94.7533-449.83-94.75L-446.65-94.75C-446.548-94.7487-446.454-94.696-446.4-94.61-446.362-94.5574-446.341-94.4947-446.34-94.43L-446.34-93.61C-446.34-93.5002-446.397-93.3983-446.49-93.34-446.555-93.3216-446.625-93.3216-446.69-93.34L-449.81-93.34C-449.959-93.333-450.095-93.4274-450.14-93.57-450.145-93.5897-450.148-93.6098-450.15-93.63Z" fill="#FFFFFF" transform="translate(532.49 112.54)"/><path d="M-443.52-105-443.52-105-443.52-99.15C-443.52-98.51-443.42-98.15-443.21-97.97-442.903-97.8095-442.554-97.7467-442.21-97.79L-442.21-96.38C-442.821-96.3519-443.429-96.4756-443.98-96.74-444.609-97.1058-444.965-97.8063-444.89-98.53L-444.89-105-444.89-105-444.89-105.1C-444.894-105.183-444.861-105.264-444.8-105.32-444.746-105.385-444.665-105.422-444.58-105.42L-443.79-105.42C-443.691-105.419-443.6-105.366-443.55-105.28-443.511-105.232-443.49-105.172-443.49-105.11Z" fill="#FFFFFF" transform="translate(532.49 112.54)"/><path d="M-442.14-96.39C-442.205-96.3716-442.275-96.3716-442.34-96.39-442.425-96.4455-442.477-96.5388-442.48-96.64L-442.48-97.45C-442.477-97.5099-442.46-97.5682-442.43-97.62-442.375-97.7047-442.281-97.757-442.18-97.76L-440.57-97.76C-440.279-97.7279-439.987-97.8144-439.76-98-439.587-98.2439-439.509-98.5426-439.54-98.84L-439.54-100.74C-439.539-100.802-439.518-100.861-439.48-100.91-439.429-100.994-439.338-101.043-439.24-101.04L-438.44-101.04C-438.358-101.04-438.278-101.008-438.22-100.95-438.164-100.891-438.135-100.811-438.14-100.73L-438.14-100.53-438.14-100.53-438.14-98.64C-438.125-98.0627-438.317-97.499-438.68-97.05-439.035-96.5954-439.584-96.3357-440.16-96.35ZM-441.94-93.61-441.94-94.41C-441.94-94.4924-441.908-94.5715-441.85-94.63-441.792-94.6953-441.708-94.7319-441.62-94.73L-438.44-94.73C-438.335-94.7322-438.236-94.679-438.18-94.59-438.15-94.5347-438.133-94.4731-438.13-94.41L-438.13-93.59C-438.134-93.4812-438.19-93.3808-438.28-93.32-438.345-93.3005-438.415-93.3005-438.48-93.32L-441.6-93.32C-441.748-93.3081-441.884-93.3991-441.93-93.54-441.935-93.563-441.939-93.5864-441.94-93.61ZM-440.75-92.32C-440.709-92.4666-440.572-92.5657-440.42-92.56L-439.65-92.56C-439.578-92.5629-439.508-92.5418-439.45-92.5-439.356-92.448-439.298-92.3478-439.3-92.24L-439.3-91.41C-439.301-91.3453-439.322-91.2826-439.36-91.23-439.417-91.1424-439.515-91.0897-439.62-91.09L-440.45-91.09C-440.534-91.0933-440.613-91.1292-440.67-91.19-440.736-91.2475-440.773-91.3321-440.77-91.42L-440.77-92.22C-440.768-92.2541-440.761-92.2878-440.75-92.32Z" fill="#FFFFFF" transform="translate(532.49 112.54)"/><path d="M-426.6-96.39C-426.948-96.385-427.292-96.4676-427.6-96.63-428.114-97.0314-428.605-97.4621-429.07-97.92-429.485-96.8667-430.519-96.1894-431.65-96.23-432.368-96.205-433.064-96.4804-433.57-96.99-434.08-97.4963-434.355-98.1921-434.33-98.91-434.261-99.8824-433.816-100.79-433.09-101.44L-432.92-101.62C-432.92-101.62-432.92-101.62-432.92-101.62L-432.41-102.18C-432.376-102.219-432.33-102.247-432.28-102.26L-432.09-102.26C-432.046-102.25-432.004-102.23-431.97-102.2L-431.39-101.66-431.39-101.66-428.01-98.66C-427.79-98.4104-427.549-98.1796-427.29-97.97-427.088-97.8615-426.868-97.7904-426.64-97.76ZM-432.45-100.39C-432.865-100.399-433.265-100.232-433.55-99.93-433.855-99.6352-434.019-99.2237-434-98.8-434.005-98.3905-433.843-97.9967-433.55-97.71-433.262-97.4123-432.864-97.246-432.45-97.25-432.039-97.2498-431.646-97.4158-431.36-97.71-431.068-97.9967-430.905-98.3905-430.91-98.8-430.903-99.21-431.065-99.6047-431.36-99.89-431.644-100.188-432.039-100.355-432.45-100.35Z" fill="#FFFFFF" transform="translate(532.49 112.54)"/><path d="M-423.92-105.07-423.92-105.07-423.92-98.88C-423.92-98.36-423.77-98.05-423.47-97.88-423.217-97.8026-422.954-97.7621-422.69-97.76L-422.69-96.35-423.12-96.35C-423.664-96.3512-424.191-96.5422-424.61-96.89-424.871-96.6507-425.187-96.4791-425.53-96.39-425.963-96.3648-426.397-96.3648-426.83-96.39L-426.83-97.8-426.37-97.8C-426.031-97.7364-425.685-97.8723-425.48-98.15-425.353-98.4673-425.302-98.8096-425.33-99.15L-425.33-105.06-425.33-105.06-425.33-105.06C-425.333-105.141-425.304-105.22-425.25-105.28-425.194-105.343-425.114-105.379-425.03-105.38L-424.24-105.38C-424.139-105.377-424.045-105.325-423.99-105.24-423.959-105.189-423.941-105.13-423.94-105.07Z" fill="#FFFFFF" transform="translate(532.49 112.54)"/><path d="M-415.17-99.11-418.39-97.27C-419.124-96.8563-419.933-96.5912-420.77-96.49-421.13-96.49-421.97-96.41-423.3-96.39L-423.3-97.8-422.17-97.8C-421.182-97.7877-420.203-97.9889-419.3-98.39-419.15-98.46-418.3-98.94-416.7-99.82-416.895-100.209-417.269-100.478-417.7-100.54-417.82-100.54-419.04-100.61-421.36-100.64L-421.56-102.01-418-102.01C-416.13-102-415.18-101-415.17-99.11Z" fill="#FFFFFF" transform="translate(532.49 112.54)"/><path d="M-411.77-98C-411.451-97.8791-411.112-97.8181-410.77-97.82L-410.77-96.41C-411.136-96.417-411.488-96.5474-411.77-96.78L-411.77-96.29-411.77-96.29C-411.872-95.5308-412.224-94.8272-412.77-94.29-413.434-93.6443-414.324-93.2852-415.25-93.29L-415.51-93.29C-415.654-93.2828-415.785-93.3729-415.83-93.51-415.834-93.5432-415.834-93.5768-415.83-93.61L-415.83-94.37C-415.833-94.451-415.804-94.5299-415.75-94.59-415.697-94.6468-415.627-94.6853-415.55-94.7L-415.47-94.7C-414.864-94.6813-414.272-94.8879-413.81-95.28-413.501-95.536-413.286-95.888-413.2-96.28L-413.2-96.28-413.2-100.72C-413.203-100.803-413.17-100.883-413.11-100.94-413.052-100.998-412.972-101.03-412.89-101.03L-412.08-101.03C-411.98-101.031-411.887-100.982-411.83-100.9-411.8-100.848-411.783-100.79-411.78-100.73Z" fill="#FFFFFF" transform="translate(532.49 112.54)"/><path d="M-405.65-97C-406.142-96.5358-406.805-96.2968-407.48-96.34-408.028-96.3289-408.572-96.4417-409.07-96.67-409.63-96.4485-410.228-96.3364-410.83-96.34L-410.83-97.8C-410.568-97.7793-410.306-97.8499-410.09-98-410.095-98.0666-410.095-98.1334-410.09-98.2L-410.09-99.61C-410.097-99.9185-410.028-100.224-409.89-100.5-409.821-100.632-409.737-100.756-409.64-100.87L-409.39-101.1C-409.078-101.342-408.695-101.476-408.3-101.48L-406.82-101.48C-406.437-101.479-406.065-101.352-405.76-101.12-405.656-101.041-405.559-100.954-405.47-100.86-405.186-100.528-405.03-100.106-405.03-99.67L-405.03-98.22C-405.073-97.749-405.295-97.3125-405.65-97ZM-407.55-100.16C-407.995-100.167-408.424-99.994-408.74-99.68-409.057-99.3654-409.233-98.9364-409.23-98.49-409.234-98.0434-409.058-97.614-408.74-97.3-408.425-96.9833-407.996-96.8067-407.55-96.81-407.104-96.8067-406.675-96.9833-406.36-97.3-406.042-97.614-405.866-98.0434-405.87-98.49-405.867-98.9364-406.043-99.3654-406.36-99.68-406.667-100.012-407.097-100.204-407.55-100.21Z" fill="#FFFFFF" transform="translate(532.49 112.54)"/><path d="M-514.46-104.25-514.46-93.43-517.81-93.43-517.81-101.5-519.52-101.5-519.52-104.25Z" fill="#5A8997" transform="translate(532.49 112.54)"/><path d="M-511.07-93.86C-511.779-94.3365-512.332-95.0112-512.66-95.8-513.065-96.7473-513.263-97.7701-513.24-98.8-513.263-99.8299-513.065-100.853-512.66-101.8-512.33-102.59-511.777-103.267-511.07-103.75-510.375-104.203-509.56-104.436-508.73-104.42-507.903-104.438-507.091-104.204-506.4-103.75-505.692-103.265-505.138-102.589-504.8-101.8-504.403-100.851-504.209-99.8288-504.23-98.8-504.209-97.7712-504.404-96.7495-504.8-95.8-505.135-95.0124-505.691-94.3385-506.4-93.86-507.09-93.4028-507.902-93.1657-508.73-93.18-509.561-93.1674-510.376-93.4043-511.07-93.86ZM-507.6-98.86C-507.6-100.68-507.98-101.59-508.73-101.59-509.48-101.59-509.87-100.68-509.87-98.86-509.87-97.04-509.49-96.12-508.73-96.12-507.97-96.12-507.6-97-507.6-98.84Z" fill="#5A8997" transform="translate(532.49 112.54)"/><path d="M-501.24-93.86C-501.949-94.3365-502.502-95.0112-502.83-95.8-503.227-96.7495-503.421-97.7712-503.4-98.8-503.421-99.8288-503.227-100.851-502.83-101.8-502.5-102.59-501.947-103.267-501.24-103.75-500.545-104.203-499.729-104.436-498.9-104.42-498.07-104.436-497.255-104.203-496.56-103.75-495.855-103.264-495.304-102.588-494.97-101.8-494.573-100.851-494.379-99.8288-494.4-98.8-494.379-97.7712-494.573-96.7495-494.97-95.8-495.302-95.0134-495.854-94.3396-496.56-93.86-497.254-93.4043-498.07-93.1674-498.9-93.18-499.73-93.1674-500.546-93.4043-501.24-93.86ZM-497.76-98.86C-497.76-100.68-498.14-101.59-498.9-101.59-499.66-101.59-500.027-100.673-500-98.84-500-97.02-499.62-96.1-498.86-96.1-498.1-96.1-497.76-97-497.76-98.84Z" fill="#5A8997" transform="translate(532.49 112.54)"/><path d="M-493-99.18C-493.521-99.7945-493.786-100.586-493.74-101.39-493.752-101.949-493.636-102.503-493.4-103.01-493.182-103.425-492.853-103.772-492.45-104.01-492.036-104.246-491.566-104.367-491.09-104.36-490.617-104.365-490.151-104.245-489.74-104.01-489.334-103.774-489.005-103.427-488.79-103.01-488.549-102.505-488.433-101.949-488.45-101.39-488.404-100.586-488.669-99.7945-489.19-99.18-489.675-98.6469-490.37-98.3543-491.09-98.38-491.813-98.3527-492.512-98.6453-493-99.18ZM-485.25-104.25-482.85-104.25-489.64-93.43-492.05-93.43ZM-490.65-100.36C-490.512-100.674-490.45-101.017-490.47-101.36-490.452-101.703-490.514-102.045-490.65-102.36-490.724-102.54-490.895-102.661-491.09-102.67-491.287-102.66-491.461-102.54-491.54-102.36-491.676-102.045-491.738-101.703-491.72-101.36-491.74-101.017-491.678-100.674-491.54-100.36-491.462-100.177-491.288-100.054-491.09-100.04-490.902-100.062-490.741-100.185-490.67-100.36ZM-485.71-94.08C-486.229-94.6955-486.494-95.486-486.45-96.29-486.462-96.8489-486.346-97.4031-486.11-97.91-485.892-98.3252-485.563-98.6715-485.16-98.91-484.746-99.1459-484.276-99.2668-483.8-99.26-483.327-99.2655-482.861-99.1447-482.45-98.91-482.026-98.6817-481.678-98.334-481.45-97.91-481.214-97.4031-481.098-96.8489-481.11-96.29-481.066-95.486-481.331-94.6955-481.85-94.08-482.335-93.5469-483.03-93.2543-483.75-93.28-484.497-93.2314-485.226-93.5258-485.73-94.08ZM-483.36-95.26C-483.223-95.5747-483.161-95.9172-483.18-96.26-483.161-96.6028-483.223-96.9453-483.36-97.26-483.434-97.4402-483.605-97.5612-483.8-97.57-483.997-97.5602-484.171-97.4402-484.25-97.26-484.387-96.9453-484.449-96.6028-484.43-96.26-484.449-95.9172-484.387-95.5747-484.25-95.26-484.171-95.0798-483.997-94.9598-483.8-94.95-483.613-94.9663-483.451-95.086-483.38-95.26Z" fill="#5A8997" transform="translate(532.49 112.54)"/></svg>