<svg viewBox="0 0 158.65 28.69" xmlns="http://www.w3.org/2000/svg" xmlns:xlink="http://www.w3.org/1999/xlink" id="OBJECTS" overflow="hidden"><defs><linearGradient x1="-1207.05" y1="-209.17" x2="-1207.05" y2="-179.1" gradientUnits="userSpaceOnUse" id="linear-gradient"><stop offset="0" stop-color="#F69453"/><stop offset="0.5" stop-color="#F37521"/><stop offset="1" stop-color="#D4622A"/></linearGradient><linearGradient x1="-1264.74" y1="-209.17" x2="-1264.74" y2="-179.1" gradientUnits="userSpaceOnUse" id="linear-gradient-2"><stop offset="0" stop-color="#FFFFFF"/><stop offset="0.17" stop-color="#F9FBFC"/><stop offset="0.41" stop-color="#E7EFF2"/><stop offset="0.69" stop-color="#CBDBE1"/><stop offset="0.99" stop-color="#A3C0CB"/><stop offset="1" stop-color="#A1BFCA"/></linearGradient></defs><path d="M-1127.9-193.95-1135.45-180.87C-1135.67-180.475-1136.09-180.23-1136.54-180.23L-1277.54-180.23C-1277.99-180.226-1278.41-180.472-1278.63-180.87L-1286.19-193.95C-1286.42-194.335-1286.42-194.815-1286.19-195.2L-1278.63-208.29C-1278.41-208.683-1277.99-208.924-1277.54-208.92L-1136.54-208.92C-1136.09-208.92-1135.67-208.679-1135.45-208.29L-1127.9-195.2C-1127.67-194.815-1127.67-194.335-1127.9-193.95Z" fill="url(#linear-gradient)" transform="translate(1286.38 208.92)"/><path d="M-1277.56-208.92-1243.09-208.92-1243.09-180.23-1277.56-180.23C-1278.01-180.226-1278.43-180.472-1278.65-180.87L-1286.21-193.95C-1286.44-194.335-1286.44-194.815-1286.21-195.2L-1278.65-208.29C-1278.43-208.683-1278.01-208.924-1277.56-208.92Z" fill="url(#linear-gradient-2)" transform="translate(1286.38 208.92)"/><path d="M-1266.73-202.09-1266.73-199.85-1270.04-191.27-1273.71-191.27-1270.55-199.27-1272.47-199.27-1272.47-197.69-1275.24-197.69-1275.24-202.1Z" fill="#5A8997" transform="translate(1286.38 208.92)"/><path d="M-1259-197.32C-1258.33-196.666-1257.96-195.757-1258-194.82-1257.99-194.164-1258.16-193.518-1258.49-192.95-1258.84-192.347-1259.37-191.864-1260-191.56-1260.79-191.176-1261.67-190.991-1262.55-191.02-1263.25-191.024-1263.96-191.108-1264.64-191.27-1265.28-191.416-1265.9-191.662-1266.47-192L-1265.33-194.69C-1264.92-194.431-1264.48-194.233-1264.02-194.1-1263.59-193.967-1263.13-193.9-1262.68-193.9-1262.33-193.874-1261.98-193.95-1261.68-194.12-1261.45-194.248-1261.32-194.49-1261.32-194.75-1261.31-194.987-1261.44-195.21-1261.64-195.33-1262.01-195.486-1262.42-195.551-1262.82-195.52L-1265.71-195.52-1265.21-202.09-1258.6-202.09-1258.6-199.34-1262.45-199.34-1262.53-198.27-1262.02-198.27C-1260.93-198.347-1259.85-198.007-1259-197.32Z" fill="#5A8997" transform="translate(1286.38 208.92)"/><path d="M-1257-197C-1257.52-197.614-1257.79-198.406-1257.74-199.21-1257.76-199.769-1257.64-200.325-1257.4-200.83-1257.19-201.25-1256.86-201.598-1256.45-201.83-1256.04-202.072-1255.57-202.197-1255.1-202.19-1254.62-202.197-1254.15-202.072-1253.74-201.83-1253.32-201.603-1252.97-201.255-1252.74-200.83-1252.5-200.323-1252.39-199.769-1252.4-199.21-1252.35-198.406-1252.62-197.614-1253.14-197-1253.63-196.466-1254.33-196.174-1255.05-196.2-1255.79-196.159-1256.5-196.453-1257-197ZM-1249.26-202.07-1246.86-202.07-1253.65-191.25-1256.05-191.25ZM-1254.65-198.18C-1254.51-198.494-1254.45-198.837-1254.47-199.18-1254.45-199.523-1254.51-199.866-1254.65-200.18-1254.72-200.366-1254.9-200.491-1255.1-200.5-1255.3-200.492-1255.47-200.366-1255.54-200.18-1255.68-199.866-1255.74-199.523-1255.72-199.18-1255.74-198.837-1255.68-198.494-1255.54-198.18-1255.47-197.996-1255.3-197.871-1255.1-197.86-1254.89-197.866-1254.7-198-1254.62-198.2ZM-1249.71-191.9C-1250.23-192.514-1250.5-193.306-1250.45-194.11-1250.47-194.669-1250.35-195.225-1250.11-195.73-1249.9-196.147-1249.57-196.494-1249.16-196.73-1248.75-196.965-1248.28-197.085-1247.81-197.08-1247.33-197.087-1246.86-196.966-1246.45-196.73-1246.05-196.493-1245.72-196.146-1245.51-195.73-1245.27-195.226-1245.15-194.67-1245.16-194.11-1245.11-193.306-1245.38-192.514-1245.9-191.9-1246.39-191.366-1247.09-191.074-1247.81-191.1-1248.52-191.088-1249.21-191.388-1249.68-191.92ZM-1247.36-193.08C-1247.22-193.395-1247.16-193.737-1247.18-194.08-1247.16-194.423-1247.22-194.765-1247.36-195.08-1247.44-195.26-1247.61-195.38-1247.81-195.39-1248.01-195.384-1248.18-195.262-1248.25-195.08-1248.39-194.765-1248.45-194.423-1248.43-194.08-1248.45-193.737-1248.39-193.395-1248.25-193.08-1248.18-192.896-1248.01-192.771-1247.81-192.76-1247.6-192.766-1247.41-192.9-1247.33-193.1Z" fill="#5A8997" transform="translate(1286.38 208.92)"/><path d="M-1208.72-197.41-1208.87-197.41C-1209.19-197.413-1209.5-197.27-1209.71-197.02-1209.93-196.774-1210.05-196.458-1210.05-196.13L-1210.05-191.03C-1210.05-190.938-1210.09-190.852-1210.17-190.8-1210.23-190.784-1210.29-190.784-1210.35-190.8L-1211.01-190.8C-1211.14-190.791-1211.26-190.875-1211.29-191-1211.29-191.03-1211.29-191.06-1211.29-191.09L-1211.29-196C-1211.33-196.706-1211.1-197.4-1210.64-197.94-1210.15-198.449-1209.46-198.719-1208.75-198.68L-1205.75-198.68C-1205.38-198.684-1205.03-198.552-1204.75-198.31L-1204.54-198.1C-1204.26-197.745-1204.1-197.305-1204.1-196.85L-1204.1-195.39C-1204.09-194.959-1204.23-194.539-1204.5-194.2-1204.58-194.1-1204.67-194.009-1204.77-193.93-1205.05-193.686-1205.4-193.554-1205.77-193.56L-1207.11-193.56C-1207.48-193.564-1207.84-193.703-1208.11-193.95L-1208.34-194.17C-1208.42-194.292-1208.5-194.419-1208.57-194.55-1208.7-194.829-1208.76-195.133-1208.75-195.44ZM-1206.72-197.02C-1207.12-197.025-1207.51-196.866-1207.8-196.58-1208.09-196.298-1208.26-195.907-1208.25-195.5-1208.26-195.093-1208.09-194.702-1207.8-194.42-1207.52-194.13-1207.13-193.97-1206.72-193.98-1206.31-193.97-1205.92-194.13-1205.64-194.42-1205.35-194.706-1205.19-195.095-1205.2-195.5-1205.2-195.905-1205.35-196.294-1205.64-196.58-1205.94-196.872-1206.35-197.024-1206.77-197Z" fill="#FFFFFF" transform="translate(1286.38 208.92)"/><path d="M-1198.68-194.82-1198.3-194.82-1198.3-193.54-1198.68-193.54-1198.68-193.45C-1198.74-192.729-1199.1-192.066-1199.68-191.63-1200.29-191.046-1201.1-190.723-1201.94-190.73L-1202.94-190.73C-1203.07-190.72-1203.19-190.803-1203.23-190.93-1203.23-190.96-1203.23-190.99-1203.23-191.02L-1203.23-191.71C-1203.23-191.783-1203.21-191.856-1203.16-191.91-1203.11-191.956-1203.05-191.987-1202.98-192L-1202.12-192C-1201.57-191.984-1201.03-192.173-1200.61-192.53-1200.28-192.77-1200.05-193.128-1199.98-193.53L-1201.69-193.53C-1202.05-193.524-1202.41-193.645-1202.69-193.87-1202.77-193.927-1202.84-193.991-1202.9-194.06-1203.18-194.365-1203.34-194.765-1203.34-195.18L-1203.34-196.51C-1203.34-196.907-1203.2-197.291-1202.94-197.59-1202.86-197.678-1202.77-197.758-1202.67-197.83-1202.38-198.05-1202.03-198.167-1201.67-198.16L-1200.32-198.16C-1199.96-198.157-1199.61-198.034-1199.32-197.81L-1199.09-197.6C-1199-197.498-1198.93-197.384-1198.87-197.26-1198.74-197.015-1198.67-196.739-1198.68-196.46ZM-1201.42-197.02C-1201.82-197.025-1202.21-196.866-1202.5-196.58-1202.79-196.297-1202.95-195.905-1202.94-195.5-1202.95-195.095-1202.79-194.703-1202.5-194.42-1202.22-194.13-1201.83-193.97-1201.42-193.98-1201.01-193.97-1200.62-194.13-1200.34-194.42-1200.05-194.706-1199.9-195.095-1199.9-195.5-1199.9-195.905-1200.05-196.294-1200.34-196.58-1200.63-196.859-1201.02-197.01-1201.42-197Z" fill="#FFFFFF" transform="translate(1286.38 208.92)"/><path d="M-1188.93-195.6C-1188.92-195.134-1189.01-194.672-1189.21-194.25-1189.52-193.74-1190.07-193.424-1190.67-193.41-1191.36-193.446-1192-193.76-1192.45-194.28-1192.9-193.731-1193.56-193.412-1194.27-193.41-1194.96-193.408-1195.61-193.749-1196-194.32-1196.38-193.922-1196.89-193.67-1197.44-193.61-1197.77-193.563-1198.11-193.54-1198.44-193.54L-1198.44-194.82-1197.98-194.82C-1197.67-194.79-1197.36-194.849-1197.09-194.99-1196.82-195.226-1196.69-195.577-1196.73-195.93L-1196.73-197.53C-1196.73-197.605-1196.7-197.678-1196.65-197.73-1196.6-197.787-1196.53-197.82-1196.45-197.82L-1195.75-197.82C-1195.66-197.819-1195.58-197.779-1195.53-197.71-1195.5-197.673-1195.48-197.628-1195.47-197.58L-1195.47-195.66C-1195.48-195.374-1195.35-195.099-1195.13-194.92-1194.92-194.73-1194.64-194.63-1194.36-194.64-1193.78-194.64-1193.49-194.9-1193.49-195.44L-1193.49-197.53C-1193.49-197.605-1193.46-197.678-1193.41-197.73-1193.36-197.787-1193.29-197.82-1193.21-197.82L-1192.5-197.82C-1192.41-197.82-1192.33-197.775-1192.28-197.7-1192.27-197.66-1192.27-197.62-1192.28-197.58L-1192.28-197.58-1192.28-195.68C-1192.28-195.396-1192.17-195.123-1191.96-194.93-1191.74-194.74-1191.47-194.637-1191.18-194.64-1190.58-194.64-1190.29-194.9-1190.29-195.44L-1190.29-197.58C-1190.28-197.637-1190.25-197.689-1190.21-197.73-1190.16-197.787-1190.09-197.82-1190.01-197.82L-1189.29-197.82C-1189.2-197.82-1189.12-197.775-1189.07-197.7-1189.07-197.66-1189.07-197.62-1189.07-197.58Z" fill="#FFFFFF" transform="translate(1286.38 208.92)"/><path d="M-1178.33-193.54C-1178.66-193.532-1178.98-193.608-1179.27-193.76-1179.74-194.128-1180.19-194.522-1180.61-194.94-1180.99-193.983-1181.92-193.367-1182.95-193.4-1183.6-193.379-1184.24-193.628-1184.7-194.09-1185.16-194.553-1185.41-195.186-1185.39-195.84-1185.33-196.722-1184.93-197.546-1184.27-198.14L-1184.11-198.3-1184.11-198.3-1183.64-198.8C-1183.61-198.839-1183.57-198.867-1183.52-198.88L-1183.35-198.88C-1183.31-198.87-1183.27-198.849-1183.24-198.82L-1182.71-198.33-1182.71-198.33-1179.63-195.63C-1179.43-195.404-1179.22-195.196-1178.98-195.01-1178.8-194.909-1178.6-194.841-1178.39-194.81ZM-1183.65-197.14C-1184.03-197.149-1184.39-197-1184.65-196.73-1184.92-196.468-1185.07-196.106-1185.06-195.73-1185.06-195.355-1184.92-194.994-1184.65-194.73-1184.39-194.464-1184.03-194.316-1183.65-194.32-1183.27-194.315-1182.91-194.463-1182.65-194.73-1182.38-194.992-1182.23-195.354-1182.24-195.73-1182.23-196.107-1182.38-196.471-1182.65-196.73-1182.91-197.001-1183.27-197.15-1183.65-197.14Z" fill="#FFFFFF" transform="translate(1286.38 208.92)"/><path d="M-1175.89-201.43-1175.89-201.43-1175.89-195.81C-1175.89-195.34-1175.76-195.05-1175.48-194.94-1175.25-194.872-1175.02-194.832-1174.78-194.82L-1174.78-193.54-1175.16-193.54C-1175.66-193.542-1176.14-193.719-1176.52-194.04-1176.76-193.822-1177.04-193.665-1177.35-193.58-1177.52-193.58-1177.91-193.58-1178.54-193.58L-1178.54-194.86-1178.12-194.86C-1177.81-194.807-1177.5-194.931-1177.31-195.18-1177.2-195.473-1177.15-195.787-1177.18-196.1L-1177.18-201.47-1177.18-201.47-1177.18-201.47C-1177.18-201.544-1177.15-201.616-1177.1-201.67-1177.05-201.721-1176.97-201.749-1176.9-201.75L-1176.18-201.75C-1176.09-201.75-1176.01-201.705-1175.96-201.63-1175.95-201.578-1175.95-201.522-1175.96-201.47Z" fill="#FFFFFF" transform="translate(1286.38 208.92)"/><path d="M-1167.94-196-1170.87-194.33C-1171.53-193.945-1172.27-193.7-1173.03-193.61-1173.35-193.61-1174.12-193.54-1175.33-193.52L-1175.33-194.8-1174.33-194.8C-1173.43-194.793-1172.54-194.977-1171.72-195.34-1171.59-195.41-1170.8-195.84-1169.36-196.65-1169.53-196.989-1169.86-197.229-1170.23-197.3-1170.34-197.3-1171.45-197.33-1173.56-197.39L-1173.74-198.64-1170.58-198.64C-1169.31-198.831-1168.13-197.959-1167.94-196.692-1167.91-196.463-1167.91-196.229-1167.94-196Z" fill="#FFFFFF" transform="translate(1286.38 208.92)"/><path d="M-1164.85-195C-1164.55-194.884-1164.23-194.827-1163.91-194.83L-1163.91-193.55C-1164.25-193.556-1164.58-193.675-1164.85-193.89L-1164.85-193.45-1164.85-193.45C-1164.93-192.767-1165.24-192.13-1165.72-191.64-1166.33-191.056-1167.14-190.733-1167.98-190.74L-1168.21-190.74C-1168.34-190.73-1168.46-190.813-1168.5-190.94-1168.5-190.97-1168.5-191-1168.5-191.03L-1168.5-191.72C-1168.51-191.796-1168.48-191.87-1168.42-191.92-1168.37-191.97-1168.32-192.005-1168.25-192.02L-1168.17-192.02C-1167.62-192.001-1167.09-192.191-1166.67-192.55-1166.37-192.805-1166.17-193.16-1166.11-193.55L-1166.11-193.55-1166.11-197.55C-1166.11-197.623-1166.09-197.695-1166.04-197.75-1165.98-197.799-1165.91-197.827-1165.84-197.83L-1165.1-197.83C-1165.01-197.832-1164.93-197.787-1164.88-197.71-1164.84-197.664-1164.83-197.608-1164.83-197.55Z" fill="#FFFFFF" transform="translate(1286.38 208.92)"/><path d="M-1159.28-194.15C-1159.73-193.721-1160.33-193.499-1160.95-193.54-1161.45-193.529-1161.94-193.635-1162.39-193.85-1162.9-193.652-1163.44-193.547-1163.99-193.54L-1163.99-194.82C-1163.75-194.808-1163.52-194.875-1163.32-195.01-1163.32-195.07-1163.32-195.13-1163.32-195.19L-1163.32-196.47C-1163.33-196.751-1163.27-197.029-1163.14-197.28-1163.07-197.4-1163-197.514-1162.91-197.62L-1162.68-197.83C-1162.39-198.054-1162.04-198.177-1161.68-198.18L-1160.34-198.18C-1159.98-198.186-1159.63-198.07-1159.34-197.85L-1159.08-197.61C-1158.82-197.308-1158.67-196.92-1158.68-196.52L-1158.68-195.21C-1158.74-194.794-1158.95-194.415-1159.28-194.15ZM-1161-197C-1161.4-197.005-1161.79-196.846-1162.08-196.56-1162.37-196.277-1162.53-195.885-1162.52-195.48-1162.53-195.075-1162.37-194.683-1162.08-194.4-1161.8-194.11-1161.41-193.95-1161-193.96-1160.59-193.95-1160.2-194.11-1159.92-194.4-1159.63-194.686-1159.47-195.075-1159.48-195.48-1159.48-195.885-1159.63-196.274-1159.92-196.56-1160.21-196.846-1160.6-197.005-1161-197Z" fill="#FFFFFF" transform="translate(1286.38 208.92)"/></svg>